<svg width="372" height="220" viewBox="0 0 372 220" fill="none" xmlns="http://www.w3.org/2000/svg">
<g id="dynamic">
<g id="dynamicScreen">
<path id="Vector" d="M360.631 219.537H11.3692C8.55207 219.534 5.85119 218.413 3.85916 216.421C1.86712 214.429 0.746592 211.728 0.743408 208.911V11.9792H371.256V208.911C371.253 211.728 370.133 214.429 368.141 216.421C366.149 218.413 363.448 219.534 360.631 219.537Z" fill="#E6E6E6"/>
<path id="Vector_2" d="M346.732 199.197H25.2683C23.8171 199.196 22.4257 198.619 21.3995 197.592C20.3733 196.566 19.7961 195.175 19.7944 193.723V37.7919C19.7961 36.3406 20.3733 34.9493 21.3995 33.9231C22.4257 32.8969 23.8171 32.3196 25.2683 32.318H346.732C348.183 32.3196 349.574 32.8968 350.6 33.9231C351.627 34.9493 352.204 36.3406 352.205 37.7919V193.723C352.204 195.175 351.627 196.566 350.6 197.592C349.574 198.619 348.183 199.196 346.732 199.197Z" fill="white"/>
<path id="Vector_3" d="M372 19.1571H0V10.6258C0.00318057 7.80866 1.12371 5.10779 3.11575 3.11575C5.10779 1.12371 7.80866 0.00318057 10.6258 0H361.374C364.191 0.00318227 366.892 1.12371 368.884 3.11575C370.876 5.10779 371.997 7.80866 372 10.6258V19.1571Z" fill="#6C63FF"/>
<path id="Vector_4" d="M107.063 62.9216H49.8448C48.3933 62.9225 47.0015 63.4996 45.9752 64.5259C44.9488 65.5523 44.3718 66.944 44.3708 68.3955V106.004C44.3718 107.456 44.9488 108.848 45.9752 109.874C47.0015 110.9 48.3933 111.477 49.8448 111.478H107.063C108.514 111.476 109.906 110.899 110.932 109.873C111.958 108.847 112.535 107.456 112.537 106.004V68.3955C112.535 66.9443 111.958 65.5532 110.932 64.5271C109.906 63.501 108.514 62.9236 107.063 62.9216Z" fill="#E6E6E6"/>
<path id="Vector_5" d="M214.61 62.9216H157.391C155.94 62.9225 154.548 63.4996 153.522 64.5259C152.495 65.5523 151.918 66.944 151.917 68.3955V106.004C151.918 107.456 152.495 108.848 153.522 109.874C154.548 110.9 155.94 111.477 157.391 111.478H214.61C216.061 111.476 217.452 110.899 218.478 109.873C219.504 108.847 220.082 107.456 220.084 106.004V68.3955C220.082 66.9443 219.504 65.5532 218.478 64.5271C217.452 63.501 216.061 62.9236 214.61 62.9216Z" fill="#E6E6E6"/>
<path id="Vector_6" d="M322.156 62.9216H264.937C263.486 62.9225 262.094 63.4996 261.068 64.5259C260.041 65.5523 259.464 66.944 259.463 68.3955V106.004C259.464 107.456 260.041 108.848 261.068 109.874C262.094 110.9 263.486 111.477 264.937 111.478H322.156C323.607 111.476 324.998 110.899 326.024 109.873C327.05 108.847 327.628 107.456 327.63 106.004V68.3955C327.628 66.9443 327.05 65.5532 326.024 64.5271C324.998 63.501 323.607 62.9236 322.156 62.9216Z" fill="#E6E6E6"/>
<path id="Vector_7" d="M98.9684 129.253H57.9398C57.1328 129.253 56.3588 129.573 55.7882 130.144C55.2176 130.714 54.897 131.488 54.897 132.295C54.897 133.102 55.2176 133.876 55.7882 134.447C56.3588 135.018 57.1328 135.338 57.9398 135.338H98.9684C99.7754 135.338 100.549 135.018 101.12 134.447C101.691 133.876 102.011 133.102 102.011 132.295C102.011 131.488 101.691 130.714 101.12 130.144C100.549 129.573 99.7754 129.253 98.9684 129.253Z" fill="#E6E6E6"/>
<path id="Vector_8" d="M98.9687 145.88H57.9401C57.2437 145.879 56.5679 146.117 56.0258 146.554C55.4836 146.991 55.108 147.601 54.9617 148.282C54.8153 148.963 54.9072 149.674 55.2219 150.295C55.5366 150.916 56.055 151.411 56.6905 151.696C57.0828 151.874 57.509 151.967 57.9401 151.966H98.9687C99.7757 151.966 100.55 151.645 101.12 151.075C101.691 150.504 102.012 149.73 102.012 148.923C102.012 148.116 101.691 147.342 101.12 146.772C100.55 146.201 99.7757 145.88 98.9687 145.88Z" fill="#E6E6E6"/>
<path id="Vector_9" d="M98.9684 162.508H57.9398C57.1328 162.508 56.3588 162.829 55.7882 163.399C55.2176 163.97 54.897 164.744 54.897 165.551C54.897 166.358 55.2176 167.132 55.7882 167.703C56.3588 168.273 57.1328 168.594 57.9398 168.594H98.9684C99.7754 168.594 100.549 168.273 101.12 167.703C101.691 167.132 102.011 166.358 102.011 165.551C102.011 164.744 101.691 163.97 101.12 163.399C100.549 162.829 99.7754 162.508 98.9684 162.508Z" fill="#E6E6E6"/>
<path id="Vector_10" d="M206.515 129.253H165.486C164.679 129.253 163.905 129.573 163.335 130.144C162.764 130.714 162.443 131.488 162.443 132.295C162.443 133.102 162.764 133.876 163.335 134.447C163.905 135.018 164.679 135.338 165.486 135.338H206.515C207.322 135.338 208.096 135.018 208.666 134.447C209.237 133.876 209.558 133.102 209.558 132.295C209.558 131.488 209.237 130.714 208.666 130.144C208.096 129.573 207.322 129.253 206.515 129.253Z" fill="#E6E6E6"/>
<path id="Vector_11" d="M206.515 145.88H165.486C164.679 145.88 163.905 146.201 163.335 146.772C162.764 147.342 162.443 148.116 162.443 148.923C162.443 149.73 162.764 150.504 163.335 151.075C163.905 151.645 164.679 151.966 165.486 151.966H206.515C207.322 151.966 208.096 151.645 208.666 151.075C209.237 150.504 209.558 149.73 209.558 148.923C209.558 148.116 209.237 147.342 208.666 146.772C208.096 146.201 207.322 145.88 206.515 145.88Z" fill="#E6E6E6"/>
<path id="Vector_12" d="M206.515 162.508H165.486C164.763 162.507 164.063 162.764 163.512 163.233C162.961 163.701 162.595 164.351 162.479 165.065C162.363 165.779 162.506 166.511 162.881 167.129C163.257 167.748 163.84 168.212 164.527 168.439C164.836 168.543 165.16 168.595 165.486 168.594H206.515C207.322 168.594 208.096 168.273 208.666 167.703C209.237 167.132 209.558 166.358 209.558 165.551C209.558 164.744 209.237 163.97 208.666 163.399C208.096 162.829 207.322 162.508 206.515 162.508Z" fill="#E6E6E6"/>
<path id="Vector_13" d="M314.061 129.253H273.033C272.226 129.253 271.452 129.573 270.881 130.144C270.31 130.714 269.99 131.488 269.99 132.295C269.99 133.102 270.31 133.876 270.881 134.447C271.452 135.018 272.226 135.338 273.033 135.338H314.061C314.868 135.338 315.642 135.018 316.213 134.447C316.783 133.876 317.104 133.102 317.104 132.295C317.104 131.488 316.783 130.714 316.213 130.144C315.642 129.573 314.868 129.253 314.061 129.253Z" fill="#E6E6E6"/>
<path id="Vector_14" d="M314.061 145.88H273.032C272.336 145.879 271.66 146.117 271.118 146.554C270.576 146.991 270.2 147.601 270.054 148.282C269.908 148.963 269.999 149.674 270.314 150.295C270.629 150.916 271.147 151.411 271.783 151.696C272.175 151.874 272.601 151.967 273.032 151.966H314.061C314.868 151.966 315.642 151.645 316.213 151.075C316.783 150.504 317.104 149.73 317.104 148.923C317.104 148.116 316.783 147.342 316.213 146.772C315.642 146.201 314.868 145.88 314.061 145.88Z" fill="#E6E6E6"/>
<path id="Vector_15" d="M314.061 162.508H273.033C272.226 162.508 271.452 162.829 270.881 163.399C270.31 163.97 269.99 164.744 269.99 165.551C269.99 166.358 270.31 167.132 270.881 167.703C271.452 168.273 272.226 168.594 273.033 168.594H314.061C314.868 168.594 315.642 168.273 316.213 167.703C316.783 167.132 317.104 166.358 317.104 165.551C317.104 164.744 316.783 163.97 316.213 163.399C315.642 162.829 314.868 162.508 314.061 162.508Z" fill="#E6E6E6"/>
<path id="Vector_16" d="M12.1879 12.4497C13.7114 12.4497 14.9464 11.2147 14.9464 9.69122C14.9464 8.16775 13.7114 6.93274 12.1879 6.93274C10.6645 6.93274 9.42944 8.16775 9.42944 9.69122C9.42944 11.2147 10.6645 12.4497 12.1879 12.4497Z" fill="white"/>
<path id="Vector_17" d="M22.6584 12.4497C24.1818 12.4497 25.4169 11.2147 25.4169 9.69122C25.4169 8.16775 24.1818 6.93274 22.6584 6.93274C21.1349 6.93274 19.8999 8.16775 19.8999 9.69122C19.8999 11.2147 21.1349 12.4497 22.6584 12.4497Z" fill="white"/>
<path id="Vector_18" d="M33.1288 12.4497C34.6523 12.4497 35.8873 11.2147 35.8873 9.69122C35.8873 8.16775 34.6523 6.93274 33.1288 6.93274C31.6054 6.93274 30.3704 8.16775 30.3704 9.69122C30.3704 11.2147 31.6054 12.4497 33.1288 12.4497Z" fill="white"/>
<g id="dynamicLine1">
<path id="Vector_19" d="M87.2926 129.253H57.9398C57.1328 129.253 56.3588 129.573 55.7882 130.144C55.2176 130.714 54.897 131.488 54.897 132.295C54.897 133.102 55.2176 133.876 55.7882 134.447C56.3588 135.018 57.1328 135.338 57.9398 135.338H86.681C87.2625 135.1 87.7682 134.708 88.1441 134.204C88.5199 133.701 88.7516 133.104 88.8145 132.479C88.8773 131.854 88.7689 131.223 88.5008 130.655C88.2327 130.086 87.8151 129.602 87.2926 129.253Z" fill="#6C63FF"/>
<path id="Vector_20" d="M73.7371 145.88H57.9402C57.2437 145.879 56.5679 146.117 56.0258 146.554C55.4836 146.991 55.108 147.601 54.9617 148.282C54.8153 148.963 54.9072 149.674 55.2219 150.295C55.5366 150.916 56.055 151.411 56.6905 151.696H71.1998C72.1186 151.695 72.9996 151.33 73.6493 150.68C74.299 150.031 74.6641 149.15 74.6644 148.231C74.6693 147.357 74.3372 146.515 73.7371 145.88Z" fill="#6C63FF"/>
<path id="Vector_21" d="M95.9028 162.508H57.9398C57.1328 162.508 56.3588 162.829 55.7882 163.399C55.2176 163.97 54.897 164.744 54.897 165.551C54.897 166.358 55.2176 167.132 55.7882 167.703C56.3588 168.273 57.1328 168.594 57.9398 168.594H96.1475C96.6856 168.276 97.1276 167.819 97.4265 167.27C97.7254 166.722 97.87 166.102 97.8449 165.478C97.8198 164.854 97.6259 164.248 97.284 163.725C96.942 163.202 96.4647 162.781 95.9028 162.508Z" fill="#6C63FF"/>
</g>
<g id="dynamicLine3">
<path id="Vector_22" d="M283.137 129.253H273.032C272.359 129.252 271.704 129.475 271.17 129.886C270.637 130.298 270.255 130.875 270.085 131.527C269.915 132.179 269.966 132.869 270.23 133.489C270.494 134.109 270.957 134.623 271.545 134.952H280.496C281.415 134.951 282.296 134.586 282.946 133.937C283.595 133.287 283.96 132.406 283.961 131.487C283.964 130.667 283.671 129.874 283.137 129.253Z" fill="#6C63FF"/>
<path id="Vector_23" d="M290.761 145.88H273.032C272.336 145.879 271.66 146.117 271.118 146.554C270.576 146.991 270.2 147.601 270.054 148.282C269.908 148.963 270 149.674 270.314 150.295C270.629 150.916 271.147 151.411 271.783 151.696H288.224C289.143 151.695 290.024 151.33 290.674 150.68C291.323 150.031 291.688 149.15 291.689 148.231C291.694 147.357 291.361 146.515 290.761 145.88Z" fill="#6C63FF"/>
<path id="Vector_24" d="M303.268 162.508H273.033C272.226 162.508 271.452 162.829 270.881 163.399C270.31 163.97 269.99 164.744 269.99 165.551C269.99 166.358 270.31 167.132 270.881 167.703C271.452 168.273 272.226 168.594 273.033 168.594H303.512C304.051 168.276 304.493 167.819 304.791 167.27C305.09 166.722 305.235 166.102 305.21 165.478C305.185 164.854 304.991 164.248 304.649 163.725C304.307 163.202 303.83 162.781 303.268 162.508Z" fill="#6C63FF"/>
</g>
<g id="dynamicLine2">
<path id="Vector_25" d="M203.662 145.88H165.486C164.679 145.88 163.905 146.201 163.335 146.772C162.764 147.342 162.443 148.116 162.443 148.923C162.443 149.73 162.764 150.504 163.335 151.075C163.905 151.645 164.679 151.966 165.486 151.966H203.488C204.046 151.686 204.518 151.26 204.853 150.733C205.188 150.207 205.375 149.599 205.393 148.975C205.41 148.351 205.259 147.734 204.954 147.189C204.649 146.644 204.203 146.192 203.662 145.88Z" fill="#6C63FF"/>
<path id="Vector_26" d="M169.582 162.508H165.486C164.763 162.507 164.063 162.764 163.512 163.233C162.961 163.701 162.595 164.351 162.479 165.065C162.363 165.779 162.506 166.511 162.881 167.129C163.257 167.748 163.84 168.212 164.527 168.439H167.154C168.073 168.439 168.954 168.074 169.604 167.424C170.253 166.774 170.618 165.893 170.619 164.975C170.62 164.515 170.529 164.06 170.351 163.636C170.173 163.212 169.912 162.829 169.582 162.508Z" fill="#6C63FF"/>
<path id="Vector_27" d="M187.755 129.253H165.486C164.679 129.253 163.905 129.573 163.335 130.144C162.764 130.714 162.443 131.488 162.443 132.295C162.443 133.102 162.764 133.876 163.335 134.447C163.905 135.018 164.679 135.338 165.486 135.338H187.144C187.725 135.1 188.231 134.708 188.607 134.204C188.982 133.701 189.214 133.104 189.277 132.479C189.34 131.854 189.231 131.223 188.963 130.655C188.695 130.086 188.278 129.602 187.755 129.253Z" fill="#6C63FF"/>
</g>
</g>
<g id="phone">
<path id="Vector_28" d="M371 113.694V128.765C371 128.904 370.944 129.038 370.846 129.136C370.747 129.235 370.614 129.29 370.475 129.291H370.101V207.803C370.1 209.976 369.237 212.059 367.701 213.595C366.165 215.132 364.081 215.995 361.909 215.995H312.851C311.775 215.995 310.71 215.783 309.716 215.371C308.722 214.959 307.82 214.356 307.059 213.595C306.299 212.834 305.695 211.931 305.284 210.938C304.872 209.944 304.661 208.879 304.661 207.803V132.044H304.39C304.292 132.044 304.198 132.005 304.128 131.936C304.058 131.867 304.019 131.773 304.018 131.675V123.097C304.018 123.048 304.028 123 304.047 122.955C304.065 122.91 304.093 122.869 304.127 122.834C304.162 122.8 304.203 122.772 304.248 122.754C304.293 122.735 304.341 122.725 304.39 122.725H304.661V119.495H304.388C304.285 119.494 304.186 119.453 304.113 119.38C304.041 119.307 304 119.208 304 119.104V110.644C304 110.541 304.041 110.443 304.114 110.37C304.187 110.297 304.285 110.256 304.388 110.256H304.661V105.846H304.383C304.338 105.846 304.293 105.837 304.251 105.82C304.21 105.802 304.172 105.777 304.14 105.745C304.108 105.713 304.082 105.675 304.065 105.633C304.048 105.592 304.039 105.547 304.039 105.502V100.885C304.039 100.793 304.075 100.705 304.139 100.64C304.204 100.575 304.292 100.539 304.383 100.538H304.661V91.1897C304.661 89.0177 305.524 86.9346 307.06 85.3988C308.596 83.8629 310.679 83.0001 312.851 83H361.908C364.081 83 366.164 83.8628 367.7 85.3986C369.237 86.9344 370.1 89.0174 370.101 91.1897V113.168H370.475C370.614 113.168 370.747 113.224 370.846 113.322C370.944 113.421 371 113.554 371 113.694Z" fill="#3F3D56"/>
<path id="Vector_29" d="M339.743 87.2008H331.771C331.449 87.2008 331.188 87.4619 331.188 87.7841V88.4731C331.188 88.7952 331.449 89.0564 331.771 89.0564H339.743C340.065 89.0564 340.326 88.7952 340.326 88.4731V87.7841C340.326 87.4619 340.065 87.2008 339.743 87.2008Z" fill="#E6E8EC"/>
<path id="Vector_30" d="M342.761 89.1811C343.342 89.1811 343.813 88.7099 343.813 88.1286C343.813 87.5473 343.342 87.0761 342.761 87.0761C342.179 87.0761 341.708 87.5473 341.708 88.1286C341.708 88.7099 342.179 89.1811 342.761 89.1811Z" fill="#E6E8EC"/>
<path id="Vector_31" d="M366.178 92.8097V208.482C366.177 209.86 365.629 211.182 364.655 212.156C363.68 213.13 362.358 213.677 360.98 213.677H314.02C313.337 213.678 312.661 213.545 312.03 213.284C311.399 213.024 310.826 212.641 310.343 212.158C309.86 211.676 309.477 211.103 309.216 210.472C308.955 209.841 308.821 209.165 308.822 208.482V92.8097C308.822 92.1271 308.957 91.4513 309.218 90.8207C309.479 90.1901 309.862 89.6171 310.344 89.1345C310.827 88.6518 311.4 88.269 312.031 88.0078C312.661 87.7466 313.337 87.6122 314.02 87.6122H321.048V88.5141C321.048 89.6491 321.499 90.7376 322.302 91.5402C323.104 92.3427 324.193 92.7936 325.328 92.7936H349.211C350.346 92.7936 351.434 92.3427 352.237 91.5402C353.04 90.7376 353.49 89.6491 353.49 88.5141V87.6122H360.98C361.663 87.612 362.339 87.7463 362.97 88.0074C363.6 88.2685 364.173 88.6514 364.656 89.134C365.139 89.6167 365.521 90.1898 365.783 90.8205C366.044 91.4511 366.178 92.1271 366.178 92.8097Z" fill="white"/>
<g id="phoneLines">
<path id="Vector_32" d="M361.46 163.763H313.731V169.959H361.46V163.763Z" fill="#E6E6E6"/>
<path id="Vector_33" d="M361.46 174.778H313.731V180.973H361.46V174.778Z" fill="#E6E6E6"/>
<path id="Vector_34" d="M361.46 185.792H313.731V191.988H361.46V185.792Z" fill="#E6E6E6"/>
</g>
<path id="phoneCircle" d="M356.182 108.461C358.717 108.461 360.772 106.407 360.772 103.872C360.772 101.337 358.717 99.2827 356.182 99.2827C353.648 99.2827 351.593 101.337 351.593 103.872C351.593 106.407 353.648 108.461 356.182 108.461Z" fill="#6C63FF"/>
<path id="Vector_35" d="M361.365 119.246H313.635V150.913H361.365V119.246Z" fill="#E6E6E6"/>
<g id="phoneFlower">
<path id="Vector_36" d="M332.641 137.051C334.035 142.203 338.808 145.393 338.808 145.393C338.808 145.393 341.322 140.231 339.928 135.08C338.535 129.928 333.761 126.738 333.761 126.738C333.761 126.738 331.247 131.9 332.641 137.051Z" fill="#3F3D56"/>
<path id="Vector_37" d="M334.689 135.944C338.513 139.667 338.98 145.389 338.98 145.389C338.98 145.389 333.247 145.076 329.423 141.353C325.599 137.631 325.132 131.908 325.132 131.908C325.132 131.908 330.865 132.221 334.689 135.944Z" fill="#6C63FF"/>
<path id="Vector_38" d="M345.319 137.051C343.925 142.203 339.152 145.393 339.152 145.393C339.152 145.393 336.638 140.231 338.032 135.08C339.425 129.928 344.199 126.738 344.199 126.738C344.199 126.738 346.713 131.9 345.319 137.051Z" fill="#3F3D56"/>
<path id="Vector_39" d="M343.271 135.944C339.447 139.667 338.98 145.389 338.98 145.389C338.98 145.389 344.713 145.076 348.537 141.353C352.361 137.631 352.828 131.908 352.828 131.908C352.828 131.908 347.095 132.221 343.271 135.944Z" fill="#6C63FF"/>
</g>
</g>
</g>
</svg>
