<svg width="367" height="268" viewBox="0 0 367 268" fill="none" xmlns="http://www.w3.org/2000/svg">
<g id="intuitive">
<path id="Vector" d="M127.905 266.024C197.992 266.024 254.809 209.149 254.809 138.989C254.809 68.8301 197.992 11.9548 127.905 11.9548C57.8171 11.9548 1 68.8301 1 138.989C1 209.149 57.8171 266.024 127.905 266.024Z" stroke="#3F3D56" stroke-width="2" stroke-miterlimit="10"/>
<g id="island">
<g id="mountain">
<path id="Vector_2" opacity="0.2" d="M215.239 157.648L157.78 98.8565L150.055 115.489L115.169 79.7927L69.5847 177.945L139.285 210.382L139.577 209.752L181.896 229.445L215.239 157.648Z" fill="#6C63FF"/>
</g>
<path id="Vector_3" d="M226.578 161.861C226.578 161.803 226.579 161.746 226.579 161.688C226.579 161.654 226.579 161.621 226.579 161.588H226.555C225.486 154.783 188.088 149.316 144.251 149.316C100.414 149.316 63.0157 154.783 61.9468 161.588H61.923C61.923 161.621 61.9224 161.654 61.9224 161.688C61.9224 161.746 61.9233 161.803 61.9235 161.861C61.9233 161.87 61.9224 161.879 61.9224 161.887C61.9224 161.899 61.9236 161.91 61.9239 161.922C61.9857 183.738 70.6867 204.64 86.1193 220.045C101.552 235.449 122.457 244.1 144.251 244.1C166.045 244.1 186.95 235.449 202.382 220.045C217.815 204.64 226.516 183.738 226.578 161.922C226.578 161.91 226.579 161.899 226.579 161.887C226.579 161.879 226.578 161.87 226.578 161.861Z" fill="#3F3D56"/>
<path id="Vector_4" opacity="0.1" d="M144.251 174.459C189.72 174.459 226.579 168.83 226.579 161.887C226.579 154.944 189.72 149.316 144.251 149.316C98.7821 149.316 61.9224 154.944 61.9224 161.887C61.9224 168.83 98.7821 174.459 144.251 174.459Z" fill="white"/>
<path id="Vector_5" d="M169.616 159.819C177.66 159.819 184.181 153.291 184.181 145.239C184.181 137.186 177.66 130.659 169.616 130.659C161.572 130.659 155.051 137.186 155.051 145.239C155.051 153.291 161.572 159.819 169.616 159.819Z" fill="#6C63FF"/>
<path id="Vector_6" d="M169.484 171.606L169.603 145.159" stroke="#3F3D56" stroke-width="2" stroke-miterlimit="10"/>
<path id="Vector_7" d="M169.603 148.899C171.667 148.899 173.34 147.224 173.34 145.159C173.34 143.093 171.667 141.418 169.603 141.418C167.54 141.418 165.867 143.093 165.867 145.159C165.867 147.224 167.54 148.899 169.603 148.899Z" fill="#3F3D56"/>
<path id="Vector_8" d="M169.53 161.459C169.53 161.459 169.048 149.965 158.1 151.251Z" fill="#3F3D56"/>
<path id="Vector_9" d="M210.962 119.823C219.006 119.823 225.527 113.295 225.527 105.243C225.527 97.1904 219.006 90.6626 210.962 90.6626C202.917 90.6626 196.396 97.1904 196.396 105.243C196.396 113.295 202.917 119.823 210.962 119.823Z" fill="#6C63FF"/>
<path id="Vector_10" d="M210.137 159.069L210.975 105.227" stroke="#3F3D56" stroke-width="2" stroke-miterlimit="10"/>
<path id="Vector_11" d="M210.975 108.967C213.039 108.967 214.712 107.292 214.712 105.227C214.712 103.161 213.039 101.487 210.975 101.487C208.912 101.487 207.239 103.161 207.239 105.227C207.239 107.292 208.912 108.967 210.975 108.967Z" fill="#3F3D56"/>
<path id="Vector_12" d="M210.738 120.457C210.738 120.457 210.383 108.958 199.422 110.123Z" fill="#3F3D56"/>
<path id="Vector_13" d="M210.153 158.041C210.153 158.041 212.899 135.983 199.039 134.698" stroke="#3F3D56" stroke-width="2" stroke-miterlimit="10"/>
<path id="Vector_14" d="M199.039 138.438C201.103 138.438 202.776 136.764 202.776 134.698C202.776 132.632 201.103 130.958 199.039 130.958C196.976 130.958 195.303 132.632 195.303 134.698C195.303 136.764 196.976 138.438 199.039 138.438Z" fill="#3F3D56"/>
<path id="Vector_15" d="M81.6002 86.7393C89.6444 86.7393 96.1655 80.2115 96.1655 72.1591C96.1655 64.1067 89.6444 57.5789 81.6002 57.5789C73.556 57.5789 67.0349 64.1067 67.0349 72.1591C67.0349 80.2115 73.556 86.7393 81.6002 86.7393Z" fill="#6C63FF"/>
<path id="Vector_16" d="M81.6094 160.431V72.2127" stroke="#3F3D56" stroke-width="2" stroke-miterlimit="10"/>
<path id="Vector_17" d="M81.6093 75.911C83.6728 75.911 85.3456 74.2365 85.3456 72.1709C85.3456 70.1053 83.6728 68.4308 81.6093 68.4308C79.5458 68.4308 77.873 70.1053 77.873 72.1709C77.873 74.2365 79.5458 75.911 81.6093 75.911Z" fill="#3F3D56"/>
<path id="Vector_18" d="M70.1335 139.737C72.197 139.737 73.8698 138.063 73.8698 135.997C73.8698 133.932 72.197 132.257 70.1335 132.257C68.07 132.257 66.3972 133.932 66.3972 135.997C66.3972 138.063 68.07 139.737 70.1335 139.737Z" fill="#3F3D56"/>
<path id="Vector_19" d="M81.609 91.2756C81.609 91.2756 81.0753 79.7839 70.1333 81.1196Z" fill="#3F3D56"/>
<path id="Vector_20" d="M81.609 123.853C81.609 123.853 81.0753 112.362 70.1333 113.697Z" fill="#3F3D56"/>
<path id="Vector_21" d="M81.609 159.403C81.609 159.403 84.0109 137.066 70.1333 135.997" stroke="#3F3D56" stroke-width="2" stroke-miterlimit="10"/>
<path id="Vector_22" d="M93.3142 104.654C95.3777 104.654 97.0505 102.979 97.0505 100.913C97.0505 98.8478 95.3777 97.1733 93.3142 97.1733C91.2507 97.1733 89.5779 98.8478 89.5779 100.913C89.5779 102.979 91.2507 104.654 93.3142 104.654Z" fill="#3F3D56"/>
<path id="Vector_23" d="M81.8385 123.127C81.8385 123.127 79.4366 101.982 93.3143 100.913" stroke="#3F3D56" stroke-width="2" stroke-miterlimit="10"/>
<g id="ball">
<path id="Vector_24" d="M175.606 120.584C174.57 120.584 173.557 120.277 172.696 119.701C171.835 119.125 171.163 118.306 170.767 117.348C170.371 116.39 170.267 115.336 170.469 114.319C170.671 113.302 171.17 112.368 171.902 111.635C172.635 110.901 173.568 110.402 174.584 110.2C175.6 109.998 176.653 110.101 177.61 110.498C178.567 110.895 179.385 111.567 179.96 112.429C180.535 113.291 180.843 114.305 180.843 115.342C180.841 116.732 180.289 118.064 179.307 119.047C178.325 120.03 176.994 120.583 175.606 120.584ZM175.606 110.576C174.664 110.576 173.743 110.855 172.96 111.379C172.177 111.903 171.567 112.647 171.207 113.518C170.847 114.389 170.752 115.347 170.936 116.271C171.12 117.196 171.573 118.045 172.239 118.712C172.905 119.378 173.753 119.832 174.677 120.016C175.6 120.2 176.558 120.105 177.427 119.745C178.297 119.384 179.041 118.773 179.564 117.989C180.087 117.206 180.367 116.284 180.367 115.342C180.365 114.078 179.863 112.867 178.97 111.973C178.078 111.08 176.868 110.577 175.606 110.576V110.576Z" fill="#3F3D56"/>
</g>
<g id="ball_2">
<path id="Vector_25" d="M145.642 84.125C147.351 84.125 148.737 82.7381 148.737 81.0272C148.737 79.3163 147.351 77.9294 145.642 77.9294C143.933 77.9294 142.547 79.3163 142.547 81.0272C142.547 82.7381 143.933 84.125 145.642 84.125Z" fill="#3F3D56"/>
</g>
<path id="Vector_26" d="M142.457 134.05V160.291L128.303 168.273L99.5981 166.078V138.939L113.851 134.05H142.457Z" fill="#6C63FF"/>
<path id="Vector_27" opacity="0.1" d="M142.457 134.2V160.291L128.303 168.273H128.005V139.039L142.457 134.2Z" fill="black"/>
<path id="Vector_28" opacity="0.1" d="M142.457 134.05V134.284L128.004 139.039H99.5981V138.939L113.851 134.05H142.457Z" fill="white"/>
<path id="Vector_29" opacity="0.1" d="M121.123 137.503C124.936 137.503 128.026 136.863 128.026 136.073C128.026 135.284 124.936 134.643 121.123 134.643C117.31 134.643 114.219 135.284 114.219 136.073C114.219 136.863 117.31 137.503 121.123 137.503Z" fill="black"/>
<g id="heart">
<path id="Vector_30" d="M121.123 136.11L118.05 133.335C107.14 123.308 99.9363 116.799 99.9363 108.692C99.9093 107.149 100.192 105.617 100.767 104.185C101.342 102.754 102.198 101.453 103.285 100.358C104.371 99.2642 105.666 98.3993 107.092 97.8149C108.519 97.2305 110.048 96.9385 111.589 96.9562C113.408 96.9659 115.203 97.3718 116.849 98.1456C118.495 98.9194 119.954 100.043 121.123 101.437C122.292 100.043 123.75 98.9193 125.397 98.1455C127.043 97.3717 128.838 96.9659 130.657 96.9562C132.198 96.9385 133.727 97.2305 135.153 97.8149C136.58 98.3993 137.875 99.2642 138.961 100.358C140.048 101.453 140.904 102.754 141.479 104.185C142.054 105.617 142.336 107.149 142.309 108.692C142.309 116.799 135.106 123.308 124.195 133.335L121.123 136.11Z" fill="#FF6584"/>
</g>
</g>
<g id="girl">
<path id="Vector_31" d="M315.447 142.102L322.762 139.664L325.548 144.192L323.8 146.547C322.549 147.059 321.187 147.24 319.846 147.072C318.504 146.903 317.229 146.392 316.143 145.586C312.312 142.799 315.447 142.102 315.447 142.102Z" fill="#9F616A"/>
<path id="Vector_32" d="M301.862 81.8442H301.862C298.721 81.8442 295.708 83.092 293.487 85.313C291.266 87.5341 290.019 90.5465 290.019 93.6875V105.879H292.812L293.255 104.678L293.594 105.879H310.577L311.02 104.678L311.359 105.879H313.705V93.6875C313.705 90.5465 312.457 87.5341 310.236 85.313C308.015 83.092 305.003 81.8442 301.862 81.8442V81.8442Z" fill="#2F2E41"/>
<path id="Vector_33" d="M317.461 116.576L315.756 116.194L313.498 117.654L317.88 139.558L325.521 145.38C327.973 140.989 317.461 116.576 317.461 116.576Z" fill="#9F616A"/>
<path id="Vector_34" d="M297.43 99.4618C297.43 99.4618 295.571 109.554 293.978 109.82C292.384 110.085 300.617 113.007 300.617 113.007L307.257 112.475L306.46 110.351C306.46 110.351 304.335 105.039 306.46 99.993C308.585 94.9469 297.43 99.4618 297.43 99.4618Z" fill="#9F616A"/>
<path id="Vector_35" opacity="0.1" d="M297.43 99.4618C297.43 99.4618 295.571 109.554 293.978 109.82C292.384 110.085 300.617 113.007 300.617 113.007L307.257 112.475L306.46 110.351C306.46 110.351 304.335 105.039 306.46 99.993C308.585 94.9469 297.43 99.4618 297.43 99.4618Z" fill="black"/>
<path id="Vector_36" d="M286.94 140.627L287.205 117.522L281.696 113.007C281.696 113.007 278.175 142.752 282.159 145.673C282.549 145.957 282.961 146.21 283.391 146.428L287.088 140.677C286.995 140.646 286.94 140.627 286.94 140.627Z" fill="#9F616A"/>
<path id="Vector_37" d="M281.761 217.647L278.574 233.847H286.276C286.276 233.847 290.791 222.162 290.525 219.771C290.259 217.381 281.761 217.647 281.761 217.647Z" fill="#9F616A"/>
<path id="Vector_38" d="M314.428 218.975V232.52L320.536 233.316C320.536 233.316 324.52 217.912 323.723 216.584C322.926 215.257 314.428 218.975 314.428 218.975Z" fill="#9F616A"/>
<path id="Vector_39" d="M288.4 158.156C288.4 158.156 278.308 218.975 280.699 220.037C283.089 221.099 303.008 224.818 304.335 222.958C305.663 221.099 308.319 184.183 308.319 184.183C308.319 184.183 311.506 222.427 314.693 221.896C317.88 221.365 334.878 222.162 335.94 217.647C337.002 213.132 323.192 157.625 323.192 157.625L319.739 155.234H309.382L288.4 158.156Z" fill="#2F2E41"/>
<path id="Vector_40" d="M278.574 230.926L276.184 244.205L275.122 256.156C275.122 256.156 271.669 262.265 276.981 262.265C282.292 262.265 283.886 259.875 283.886 259.875V251.376C283.886 251.376 284.417 247.127 283.886 245.799C283.355 244.471 284.683 243.674 284.683 243.674C284.683 243.674 283.62 239.159 284.683 238.097C285.745 237.034 287.604 232.254 287.604 232.254L278.574 230.926Z" fill="#2F2E41"/>
<path id="Vector_41" d="M313.1 230.926L312.303 240.487C312.303 240.487 310.975 245.533 310.975 247.127C310.975 248.72 310.178 258.281 310.178 258.281C310.178 258.281 309.913 263.062 315.225 262.265C320.536 261.468 319.208 258.812 319.208 258.812V253.501C319.208 253.501 319.474 247.923 319.208 247.392C318.943 246.861 319.474 244.205 319.474 243.674C319.474 243.143 320.005 238.628 320.005 238.628L321.599 232.254L313.1 230.926Z" fill="#2F2E41"/>
<path id="Vector_42" d="M301.812 103.047C306.213 103.047 309.78 99.48 309.78 95.0796C309.78 90.6793 306.213 87.1121 301.812 87.1121C297.412 87.1121 293.845 90.6793 293.845 95.0796C293.845 99.48 297.412 103.047 301.812 103.047Z" fill="#9F616A"/>
<path id="Vector_43" d="M292.915 109.023C292.915 109.023 302.742 107.164 307.257 109.82C311.772 112.475 312.303 114.866 313.897 114.866C315.49 114.866 317.349 113.803 318.412 116.99L314.959 121.505L313.631 131.597L318.412 153.641C318.412 153.641 322.661 155.5 321.067 156.031C319.474 156.562 298.227 163.733 296.899 159.484C295.571 155.234 290.525 136.644 290.791 135.847C291.056 135.05 287.869 120.177 287.869 120.177L280.964 113.538C280.964 113.538 283.62 111.147 286.807 112.475C289.994 113.803 292.915 109.023 292.915 109.023Z" fill="#D0CDE1"/>
<path id="Vector_44" d="M295.263 107.904C295.263 107.904 290.791 109.554 289.197 110.351C287.604 111.147 282.425 111.546 282.425 112.343C282.425 113.139 286.973 111.654 286.89 119.235C286.807 126.817 283.355 177.012 286.01 177.544C288.666 178.075 286.276 174.888 291.853 177.544C297.431 180.199 300.086 177.809 300.618 177.012C301.149 176.216 302.477 146.736 300.618 136.909C298.758 127.083 295.263 107.904 295.263 107.904Z" fill="#3F3D56"/>
<path id="Vector_45" d="M305.769 108.661C305.762 108.598 305.773 108.535 305.8 108.478C305.828 108.42 305.871 108.372 305.925 108.339C305.979 108.305 306.041 108.288 306.104 108.288C306.168 108.288 306.23 108.306 306.283 108.34C307.87 109.34 312.137 112.044 312.569 112.475C312.929 112.835 314.995 113.561 316.29 113.991C316.613 114.098 316.896 114.299 317.103 114.569C317.309 114.839 317.429 115.165 317.448 115.505C317.503 116.178 317.47 116.856 317.349 117.522C317.084 118.584 316.021 122.302 316.021 122.302C316.021 122.302 319.74 147.798 326.379 159.749C333.019 171.701 332.488 176.481 330.363 176.747C328.238 177.012 323.989 161.874 318.412 158.953C312.834 156.031 307.523 137.44 307.788 133.457C308.025 129.9 306.169 112.375 305.769 108.661Z" fill="#3F3D56"/>
<path id="Vector_46" d="M297.032 143.814C295.076 143.325 286.961 141.651 285.877 141.291L283.391 146.428C287.331 148.445 292.517 147.798 292.517 147.798C292.517 147.798 300.219 154.836 301.547 151.383C302.875 147.931 299.157 144.346 297.032 143.814Z" fill="#9F616A"/>
<path id="Vector_47" d="M290.626 147.999L293.39 142.509C293.496 142.299 293.675 142.135 293.893 142.047C294.111 141.96 294.354 141.954 294.576 142.033L295.103 142.219C295.239 142.267 295.363 142.345 295.465 142.447C295.567 142.55 295.645 142.674 295.693 142.81C295.74 142.946 295.757 143.092 295.741 143.235C295.726 143.379 295.678 143.517 295.602 143.64L292.31 148.943C292.222 149.085 292.098 149.202 291.951 149.282C291.804 149.362 291.639 149.403 291.472 149.4C291.304 149.396 291.141 149.35 290.997 149.265C290.852 149.179 290.733 149.058 290.65 148.913V148.913C290.571 148.774 290.527 148.618 290.523 148.459C290.519 148.299 290.554 148.141 290.626 147.999Z" fill="#2F2E41"/>
<path id="Vector_48" d="M293.048 147.665C294.222 147.665 295.173 146.714 295.173 145.541C295.173 144.367 294.222 143.416 293.048 143.416C291.875 143.416 290.924 144.367 290.924 145.541C290.924 146.714 291.875 147.665 293.048 147.665Z" fill="#2F2E41"/>
<path id="Vector_49" d="M293.048 146.869C293.782 146.869 294.376 146.274 294.376 145.541C294.376 144.807 293.782 144.213 293.048 144.213C292.315 144.213 291.72 144.807 291.72 145.541C291.72 146.274 292.315 146.869 293.048 146.869Z" fill="#D0CDE1"/>
<path id="Vector_50" d="M319.872 141.026L320.138 141.291L304.601 139.299C304.601 139.299 296.766 136.776 294.642 141.822C292.517 146.869 305.664 144.611 305.664 144.611C305.664 144.611 322.13 149.126 325.317 145.673C325.396 145.584 325.465 145.486 325.521 145.38L319.872 141.026Z" fill="#9F616A"/>
<path id="Vector_51" d="M309.525 85.6759H294.198V95.0808H309.525V85.6759Z" fill="#2F2E41"/>
<path id="Vector_52" opacity="0.6" d="M277.828 132.603L276.492 142.698L293.153 145.589L277.828 132.603Z" fill="#F2F2F2"/>
<path id="Vector_53" d="M229.06 262.28H367" stroke="#3F3D56" stroke-width="2" stroke-miterlimit="10"/>
<path id="Vector_54" d="M353.618 262.97V222.531" stroke="#3F3D56" stroke-width="2" stroke-miterlimit="10"/>
<path id="Vector_55" d="M353.618 228.25C356.776 228.25 359.336 225.689 359.336 222.531C359.336 219.373 356.776 216.812 353.618 216.812C350.459 216.812 347.899 219.373 347.899 222.531C347.899 225.689 350.459 228.25 353.618 228.25Z" fill="#3F3D56"/>
<path id="Vector_56" d="M353.618 247.455C353.618 247.455 352.801 229.884 336.053 231.926Z" fill="#3F3D56"/>
</g>
<g id="bulbtwo">
<path id="Vector_57" d="M268.041 28.9359C268.041 33.1828 266.497 36.8087 263.56 39.507C261.476 41.4227 258.265 44.1078 258.265 46.9468V49.2956H248.489V46.9468C248.489 44.0781 245.265 41.3876 243.194 39.507C240.323 36.9032 238.713 33.0311 238.713 28.9359V28.849C238.725 25.111 240.282 21.5308 243.04 18.8959C245.799 16.2611 249.533 14.7873 253.422 14.7988C257.311 14.8103 261.035 16.3062 263.777 18.9573C266.519 21.6085 268.052 25.1978 268.041 28.9359Z" fill="#13334C"/>
<path id="Path 2546" d="M258.265 49.6254C258.174 49.6254 258.087 49.5907 258.022 49.5288C257.958 49.467 257.922 49.3831 257.922 49.2957V46.9465C257.922 44.185 260.755 41.607 262.824 39.7247C262.996 39.5684 263.163 39.417 263.323 39.2691C266.185 36.6392 267.697 33.0662 267.697 28.9361C267.697 21.2172 261.407 15.1707 253.377 15.1707H253.337C249.558 15.1747 245.934 16.6169 243.258 19.1819C240.582 21.7469 239.072 25.226 239.057 28.8586V28.9355C239.057 32.9802 240.651 36.7461 243.43 39.2678C243.571 39.3957 243.717 39.5272 243.867 39.6623C245.962 41.5482 248.832 44.131 248.832 46.9466V49.2957C248.832 49.3831 248.796 49.467 248.732 49.5288C248.668 49.5907 248.58 49.6254 248.489 49.6254C248.398 49.6254 248.311 49.5907 248.247 49.5288C248.183 49.467 248.146 49.3831 248.146 49.2957V46.9465C248.146 44.4169 245.402 41.9471 243.398 40.143C243.247 40.0074 243.101 39.8753 242.959 39.7468C240.043 37.1011 238.371 33.1606 238.371 28.9356V28.8565C238.394 20.9381 245.104 14.5108 253.336 14.5108H253.378C257.337 14.491 261.142 15.9838 263.956 18.6608C266.77 21.3378 268.363 24.9798 268.383 28.7854C268.384 28.8357 268.384 28.8859 268.383 28.9361C268.383 33.2506 266.797 36.9885 263.797 39.7458C263.636 39.8939 263.468 40.0465 263.296 40.2036C261.317 42.0036 258.608 44.4688 258.608 46.9465V49.2957C258.608 49.3831 258.571 49.467 258.507 49.5288C258.443 49.5907 258.356 49.6254 258.265 49.6254H258.265Z" fill="#3F3D56"/>
<path id="Path 2547" d="M256.635 53.8563H250.118C249.966 53.8563 249.821 53.7984 249.714 53.6953C249.607 53.5923 249.546 53.4525 249.546 53.3068C249.546 53.161 249.607 53.0212 249.714 52.9182C249.821 52.8151 249.966 52.7572 250.118 52.7572H256.635C256.787 52.7572 256.933 52.8151 257.04 52.9182C257.147 53.0212 257.207 53.161 257.207 53.3068C257.207 53.4525 257.147 53.5923 257.04 53.6953C256.933 53.7984 256.787 53.8563 256.635 53.8563V53.8563Z" fill="#13334C"/>
<path id="Vector_58" d="M254.078 57.5383H252.675C252.188 57.5386 251.71 57.4113 251.292 57.1701C251.23 57.1353 251.182 57.0816 251.156 57.0176C251.13 56.9535 251.127 56.8828 251.147 56.8168C251.166 56.749 251.208 56.6892 251.266 56.6466C251.324 56.604 251.395 56.581 251.468 56.5813H255.285C255.358 56.581 255.429 56.604 255.487 56.6466C255.545 56.6892 255.587 56.749 255.606 56.8168C255.626 56.8828 255.623 56.9535 255.597 57.0176C255.57 57.0816 255.522 57.1354 255.461 57.1701C255.043 57.4113 254.565 57.5386 254.078 57.5383V57.5383Z" fill="#3F3D56"/>
<path id="Vector_59" d="M256.637 55.5922L250.081 55.5916L250.06 55.5497C250.041 55.4727 250.04 55.3925 250.058 55.3152C250.076 55.2379 250.112 55.1656 250.163 55.1037C250.215 55.0402 250.282 54.9889 250.357 54.9537C250.433 54.9185 250.516 54.9003 250.6 54.9005H256.152C256.237 54.9003 256.32 54.9185 256.395 54.9537C256.471 54.9889 256.537 55.0402 256.59 55.1037C256.64 55.1648 256.676 55.2361 256.694 55.3124C256.712 55.3887 256.712 55.468 256.694 55.5442L256.683 55.5866L256.637 55.5922Z" fill="#3F3D56"/>
<path id="Path 2548" d="M238.216 15.9821C238.077 15.9822 237.944 15.9341 237.84 15.8466L232.93 11.727C232.818 11.6307 232.749 11.4956 232.74 11.3511C232.73 11.2066 232.781 11.0644 232.88 10.9553C232.979 10.8462 233.119 10.7791 233.269 10.7686C233.419 10.7581 233.568 10.805 233.682 10.8991L238.592 15.0186C238.679 15.0922 238.742 15.1897 238.77 15.2982C238.799 15.4067 238.792 15.521 238.751 15.6257C238.71 15.7305 238.637 15.8207 238.541 15.8844C238.446 15.9481 238.332 15.9822 238.216 15.9822V15.9821Z" fill="#13334C"/>
<path id="Path 2549" d="M267.724 15.9821C267.608 15.9822 267.494 15.9481 267.399 15.8844C267.303 15.8207 267.23 15.7304 267.189 15.6257C267.148 15.5209 267.141 15.4066 267.17 15.2982C267.198 15.1897 267.26 15.0921 267.348 15.0185L272.258 10.8987C272.372 10.8046 272.521 10.7577 272.671 10.7682C272.821 10.7787 272.961 10.8458 273.06 10.9549C273.159 11.064 273.209 11.2062 273.2 11.3507C273.19 11.4952 273.122 11.6303 273.01 11.7266L268.1 15.8462C267.996 15.9338 267.863 15.9821 267.724 15.9821Z" fill="#13334C"/>
<path id="Path 2550" d="M258.265 51.906H248.489C248.337 51.906 248.192 51.8482 248.085 51.7451C247.977 51.642 247.917 51.5022 247.917 51.3565C247.917 51.2107 247.977 51.071 248.085 50.9679C248.192 50.8648 248.337 50.8069 248.489 50.8069H258.265C258.417 50.8069 258.562 50.8648 258.669 50.9679C258.777 51.071 258.837 51.2107 258.837 51.3565C258.837 51.5022 258.777 51.642 258.669 51.7451C258.562 51.8482 258.417 51.906 258.265 51.906V51.906Z" fill="#13334C"/>
<path id="Vector_60" d="M253.137 37.5495L251.104 49.2956H249.943L252.008 37.3693C252.033 37.2254 252.117 37.097 252.24 37.0121C252.363 36.9273 252.517 36.8931 252.666 36.917C252.816 36.9409 252.95 37.021 253.038 37.1396C253.126 37.2582 253.162 37.4057 253.137 37.5495V37.5495Z" fill="#E6E6E6"/>
<path id="Vector_61" d="M257.044 49.2956H255.883L253.85 37.5495C253.825 37.4057 253.861 37.2582 253.949 37.1396C254.037 37.021 254.171 36.9409 254.321 36.917C254.47 36.8931 254.624 36.9273 254.747 37.0121C254.871 37.097 254.954 37.2254 254.979 37.3693L257.044 49.2956Z" fill="#E6E6E6"/>
<path id="Path 2551" d="M249.661 37.1571C249.661 37.0114 249.721 36.8716 249.829 36.7685C249.936 36.6655 250.081 36.6076 250.233 36.6076H256.521C256.672 36.6076 256.818 36.6655 256.925 36.7685C257.032 36.8716 257.092 37.0114 257.092 37.1571C257.092 37.3029 257.032 37.4427 256.925 37.5457C256.818 37.6488 256.672 37.7067 256.521 37.7067H250.233C250.081 37.7067 249.936 37.6488 249.829 37.5457C249.721 37.4427 249.661 37.3029 249.661 37.1571V37.1571Z" fill="#E6E6E6"/>
<path id="Path 2553" d="M253.377 10.4964C253.225 10.4964 253.08 10.4385 252.973 10.3354C252.865 10.2324 252.805 10.0926 252.805 9.94684V0.549549C252.805 0.4038 252.865 0.26402 252.973 0.160959C253.08 0.0578987 253.225 0 253.377 0C253.529 0 253.674 0.0578987 253.781 0.160959C253.888 0.26402 253.949 0.4038 253.949 0.549549V9.94684C253.949 10.0926 253.888 10.2324 253.781 10.3354C253.674 10.4385 253.529 10.4964 253.377 10.4964V10.4964Z" fill="#13334C"/>
</g>
</g>
</svg>
