<svg width="292" height="311" viewBox="0 0 292 311" fill="none" xmlns="http://www.w3.org/2000/svg">
<g id="learnability">
<path id="Vector" d="M269.951 200H17.0489C15.9751 200 14.9452 200.427 14.1859 201.186C13.4266 201.945 13 202.975 13 204.049C13 205.122 13.4266 206.152 14.1859 206.911C14.9452 207.671 15.9751 208.097 17.0489 208.097H24.2124V304.951C24.2124 306.025 24.639 307.055 25.3983 307.814C26.1576 308.573 27.1875 309 28.2613 309C29.3352 309 30.365 308.573 31.1244 307.814C31.8837 307.055 32.3103 306.025 32.3103 304.951L32.3718 208.097H254.067V304.951C254.067 306.025 254.493 307.055 255.253 307.814C256.012 308.573 257.042 309 258.116 309C259.19 309 260.219 308.573 260.979 307.814C261.738 307.055 262.165 306.025 262.165 304.951V210.232L263.343 208.097H269.951C271.025 208.097 272.055 207.671 272.814 206.911C273.573 206.152 274 205.122 274 204.049C274 202.975 273.573 201.945 272.814 201.186C272.055 200.427 271.025 200 269.951 200V200Z" fill="#CCCCCC"/>
<path id="Vector_2" d="M157.392 202H80.6078C79.1211 201.998 77.6957 201.412 76.6443 200.371C75.593 199.329 75.0017 197.917 75 196.444V154.556C75.0017 153.083 75.593 151.671 76.6443 150.629C77.6957 149.588 79.1211 149.002 80.6078 149H157.392C158.879 149.002 160.304 149.588 161.356 150.629C162.407 151.671 162.998 153.083 163 154.556V196.444C162.998 197.917 162.407 199.329 161.356 200.371C160.304 201.412 158.879 201.998 157.392 202V202Z" fill="#3F3D56"/>
<path id="Vector_3" d="M156.73 153H81.27C80.9334 153.001 80.6107 153.138 80.3727 153.381C80.1347 153.624 80.0007 153.953 80 154.296V196.704C80.0007 197.047 80.1347 197.376 80.3727 197.619C80.6108 197.862 80.9334 197.999 81.27 198H156.73C157.067 197.999 157.389 197.862 157.627 197.619C157.865 197.376 157.999 197.047 158 196.704V154.296C157.999 153.953 157.865 153.624 157.627 153.381C157.389 153.138 157.067 153.001 156.73 153V153Z" fill="white"/>
<path id="Vector_4" d="M126 183.575C126 183.575 116.532 181.464 111.324 185.334C106.116 189.204 117.952 198 117.952 198L126 183.575Z" fill="#2F2E41"/>
<path id="Vector_5" d="M119.5 179C124.194 179 128 175.194 128 170.5C128 165.806 124.194 162 119.5 162C114.806 162 111 165.806 111 170.5C111 175.194 114.806 179 119.5 179Z" fill="#A0616A"/>
<path id="Vector_6" d="M112.717 158.103C113.279 157.102 114.094 156.284 115.072 155.738C116.049 155.193 117.152 154.941 118.257 155.012C119.413 155.164 120.542 155.495 121.605 155.994L127.116 158.249C128.542 158.832 130.104 159.546 130.723 161.015C131.297 162.377 130.869 163.951 130.435 165.369L128.373 172.113C128.145 170.587 127.753 169.092 127.205 167.658C126.648 166.215 125.641 165.011 124.349 164.244C122.917 163.474 121.23 163.49 119.623 163.571C117.347 163.686 114.873 163.989 113.256 165.673C112.397 166.629 111.816 167.82 111.578 169.11C111.344 170.392 111.226 171.694 111.226 173C110.292 171.318 109.506 169.55 108.877 167.719C108.359 166.356 108.064 164.911 108.004 163.445C107.95 161.966 108.418 160.519 109.318 159.379C109.775 158.822 110.371 158.411 111.04 158.19C111.708 157.969 112.422 157.949 113.1 158.131L112.717 158.103Z" fill="#2F2E41"/>
<path id="Vector_7" d="M139.969 190.603C139.889 190.311 139.724 190.049 139.497 189.85C139.27 189.652 138.99 189.526 138.691 189.487C138.672 189.473 138.651 189.461 138.63 189.45L125.832 182.21C125.467 182.003 125.037 181.946 124.631 182.052C124.225 182.157 123.876 182.417 123.654 182.776L120.155 188.497L114.883 183.175L114.799 183.09C114.529 182.817 114.171 182.649 113.79 182.615C113.409 182.581 113.028 182.684 112.715 182.906L102.198 190.341C102.179 190.341 102.161 190.347 102.142 190.347C101.639 190.432 101.179 190.688 100.839 191.072C100.499 191.456 100.299 191.945 100.272 192.46L100 198H142L139.969 190.603Z" fill="#6C63FF"/>
<path id="Vector_8" d="M163.436 196.857H155.318C155.318 196.63 155.228 196.412 155.067 196.251C154.907 196.09 154.69 196 154.463 196H151.899C151.673 196 151.455 196.09 151.295 196.251C151.135 196.412 151.045 196.63 151.045 196.857H148.481C148.481 196.63 148.391 196.412 148.231 196.251C148.071 196.09 147.853 196 147.626 196H145.063C144.836 196 144.619 196.09 144.458 196.251C144.298 196.412 144.208 196.63 144.208 196.857H141.644C141.644 196.63 141.554 196.412 141.394 196.251C141.234 196.09 141.016 196 140.79 196H138.226C137.999 196 137.782 196.09 137.622 196.251C137.462 196.412 137.372 196.63 137.372 196.857H134.808C134.808 196.63 134.718 196.412 134.557 196.251C134.397 196.09 134.18 196 133.953 196H131.389C131.163 196 130.945 196.09 130.785 196.251C130.625 196.412 130.535 196.63 130.535 196.857H127.971C127.971 196.63 127.881 196.412 127.721 196.251C127.561 196.09 127.343 196 127.117 196H124.553C124.326 196 124.109 196.09 123.949 196.251C123.788 196.412 123.698 196.63 123.698 196.857H121.134C121.134 196.63 121.044 196.412 120.884 196.251C120.724 196.09 120.507 196 120.28 196H117.716C117.489 196 117.272 196.09 117.112 196.251C116.952 196.412 116.862 196.63 116.862 196.857H114.298C114.298 196.63 114.208 196.412 114.047 196.251C113.887 196.09 113.67 196 113.443 196H110.88C110.653 196 110.435 196.09 110.275 196.251C110.115 196.412 110.025 196.63 110.025 196.857H107.461C107.461 196.63 107.371 196.412 107.211 196.251C107.051 196.09 106.833 196 106.607 196H104.043C103.816 196 103.599 196.09 103.439 196.251C103.278 196.412 103.188 196.63 103.188 196.857H100.625C100.625 196.63 100.534 196.412 100.374 196.251C100.214 196.09 99.9966 196 99.7699 196H97.2062C96.9795 196 96.7622 196.09 96.6019 196.251C96.4417 196.412 96.3516 196.63 96.3516 196.857H93.7878C93.7878 196.63 93.6978 196.412 93.5375 196.251C93.3773 196.09 93.1599 196 92.9333 196H90.3695C90.1429 196 89.9255 196.09 89.7653 196.251C89.605 196.412 89.515 196.63 89.515 196.857H86.9512C86.9512 196.63 86.8612 196.412 86.7009 196.251C86.5407 196.09 86.3233 196 86.0967 196H83.5329C83.3062 196 83.0889 196.09 82.9286 196.251C82.7683 196.412 82.6783 196.63 82.6783 196.857H74.5598C73.8805 196.858 73.2294 197.13 72.7495 197.612C72.2696 198.094 72 198.747 72 199.429C72 200.11 72.2696 200.763 72.7495 201.245C73.2294 201.728 73.8805 201.999 74.5598 202H163.436C164.116 202 164.768 201.729 165.249 201.247C165.73 200.765 166 200.111 166 199.429C166 198.747 165.73 198.093 165.249 197.61C164.768 197.128 164.116 196.857 163.436 196.857V196.857Z" fill="#3F3D56"/>
<path id="Vector_9" d="M61 182.005V198.995H17.905C16.7504 199.035 15.5995 198.844 14.521 198.435C13.4424 198.026 12.4583 197.407 11.6273 196.614C10.7963 195.821 10.1354 194.871 9.68401 193.821C9.23262 192.771 9 191.641 9 190.5C9 189.359 9.23262 188.229 9.68401 187.179C10.1354 186.129 10.7963 185.179 11.6273 184.386C12.4583 183.593 13.4424 182.974 14.521 182.565C15.5995 182.156 16.7504 181.965 17.905 182.005H61Z" fill="#F2F2F2"/>
<path id="Vector_10" d="M62 199.343C61.9999 199.517 61.9302 199.684 61.8061 199.808C61.682 199.931 61.5137 200 61.3382 200H17.0662C14.6617 200 12.3557 199.052 10.6554 197.364C8.95519 195.676 8 193.387 8 191C8 188.613 8.95519 186.324 10.6554 184.636C12.3557 182.948 14.6617 182 17.0662 182H61.3382C61.5137 182 61.682 182.069 61.8062 182.192C61.9303 182.316 62 182.483 62 182.657C62 182.831 61.9303 182.998 61.8062 183.121C61.682 183.245 61.5137 183.314 61.3382 183.314H17.0662C15.0139 183.316 13.0463 184.126 11.5958 185.568C10.1453 187.009 9.33048 188.963 9.33048 191C9.33048 193.037 10.1453 194.991 11.5958 196.432C13.0463 197.874 15.0139 198.684 17.0662 198.686H61.3382C61.5137 198.686 61.682 198.755 61.8061 198.879C61.9302 199.002 61.9999 199.169 62 199.343V199.343Z" fill="#6C63FF"/>
<path id="Vector_11" d="M60.8702 196H15.1316C15.1143 196 15.0973 195.988 15.0813 195.963C15.0653 195.938 15.0508 195.901 15.0386 195.855C15.0264 195.808 15.0167 195.753 15.01 195.692C15.0034 195.631 15 195.566 15 195.5C15 195.434 15.0034 195.369 15.01 195.308C15.0167 195.247 15.0264 195.192 15.0386 195.145C15.0508 195.099 15.0653 195.062 15.0813 195.037C15.0973 195.012 15.1143 195 15.1316 195H60.8702C60.9047 195.001 60.9377 195.054 60.962 195.148C60.9863 195.241 61 195.368 61 195.5C61 195.632 60.9863 195.759 60.962 195.852C60.9377 195.946 60.9047 195.999 60.8702 196Z" fill="#CCCCCC"/>
<path id="Vector_12" d="M53 164.005V180.995H9.90501C8.75039 181.035 7.59951 180.844 6.52097 180.435C5.44244 180.026 4.45832 179.407 3.62731 178.614C2.7963 177.821 2.13539 176.871 1.68401 175.821C1.23262 174.771 1 173.641 1 172.5C1 171.359 1.23262 170.229 1.68401 169.179C2.13539 168.129 2.7963 167.179 3.62731 166.386C4.45832 165.593 5.44244 164.974 6.52097 164.565C7.59951 164.156 8.75039 163.965 9.90501 164.005H53Z" fill="#F2F2F2"/>
<path id="Vector_13" d="M54 181.343C53.9999 181.517 53.9302 181.684 53.8061 181.808C53.682 181.931 53.5137 182 53.3382 182H9.06618C7.87559 182 6.69666 181.767 5.5967 181.315C4.49674 180.863 3.4973 180.2 2.65542 179.364C1.81355 178.528 1.14573 177.536 0.690114 176.444C0.234496 175.352 0 174.182 0 173C0 171.818 0.234496 170.648 0.690114 169.556C1.14573 168.464 1.81355 167.472 2.65542 166.636C3.4973 165.8 4.49674 165.137 5.5967 164.685C6.69666 164.233 7.87559 164 9.06618 164H53.3382C53.5137 164 53.682 164.069 53.8062 164.192C53.9303 164.316 54 164.483 54 164.657C54 164.831 53.9303 164.998 53.8062 165.121C53.682 165.245 53.5137 165.314 53.3382 165.314H9.06618C7.0139 165.316 5.04632 166.126 3.5958 167.568C2.14527 169.009 1.33048 170.963 1.33048 173C1.33048 175.037 2.14527 176.991 3.5958 178.432C5.04632 179.874 7.0139 180.684 9.06618 180.686H53.3382C53.5137 180.686 53.682 180.755 53.8061 180.879C53.9302 181.002 53.9999 181.169 54 181.343V181.343Z" fill="#3F3D56"/>
<path id="Vector_14" d="M52.8702 178H7.13158C7.11435 178 7.09725 177.988 7.08129 177.963C7.06533 177.938 7.05082 177.901 7.03859 177.855C7.02636 177.808 7.01666 177.753 7.01004 177.692C7.00342 177.631 7 177.566 7 177.5C7 177.434 7.00342 177.369 7.01004 177.308C7.01666 177.247 7.02636 177.192 7.03859 177.145C7.05082 177.099 7.06533 177.062 7.08129 177.037C7.09725 177.012 7.11435 177 7.13158 177H52.8702C52.9047 177.001 52.9377 177.054 52.962 177.148C52.9863 177.241 53 177.368 53 177.5C53 177.632 52.9863 177.759 52.962 177.852C52.9377 177.946 52.9047 177.999 52.8702 178Z" fill="#CCCCCC"/>
<path id="Vector_15" d="M103 260V245.429C103 244.784 102.736 244.167 102.266 243.711C101.796 243.256 101.159 243 100.495 243H43.5051C42.8407 243 42.2035 243.256 41.7337 243.711C41.2639 244.167 41 244.784 41 245.429V260H103Z" fill="#CCCCCC"/>
<path id="Vector_16" d="M103 266H41V285H103V266Z" fill="#CCCCCC"/>
<path id="Vector_17" d="M41 290V305.429C41 306.111 41.2639 306.765 41.7337 307.247C42.2035 307.729 42.8407 308 43.5051 308H100.495C101.159 308 101.796 307.729 102.266 307.247C102.736 306.765 103 306.111 103 305.429V290H41Z" fill="#CCCCCC"/>
<path id="Vector_18" d="M72 254C73.1046 254 74 253.105 74 252C74 250.895 73.1046 250 72 250C70.8954 250 70 250.895 70 252C70 253.105 70.8954 254 72 254Z" fill="white"/>
<path id="Vector_19" d="M72 279C73.1046 279 74 278.105 74 277C74 275.895 73.1046 275 72 275C70.8954 275 70 275.895 70 277C70 278.105 70.8954 279 72 279Z" fill="white"/>
<path id="Vector_20" d="M72 303C73.1046 303 74 302.105 74 301C74 299.895 73.1046 299 72 299C70.8954 299 70 299.895 70 301C70 302.105 70.8954 303 72 303Z" fill="white"/>
<path id="Vector_21" d="M96 226.005V242.995H52.905C51.7504 243.035 50.5995 242.844 49.521 242.435C48.4424 242.026 47.4583 241.407 46.6273 240.614C45.7963 239.821 45.1354 238.871 44.684 237.821C44.2326 236.771 44 235.641 44 234.5C44 233.359 44.2326 232.229 44.684 231.179C45.1354 230.129 45.7963 229.179 46.6273 228.386C47.4583 227.593 48.4424 226.974 49.521 226.565C50.5995 226.156 51.7504 225.965 52.905 226.005H96Z" fill="#F2F2F2"/>
<path id="Vector_22" d="M97 242.343C96.9999 242.517 96.9302 242.684 96.8061 242.808C96.6821 242.931 96.5138 243 96.3383 243H52.0724C50.8814 243.001 49.7018 242.769 48.6011 242.317C47.5005 241.865 46.5002 241.202 45.6577 240.367C44.8151 239.531 44.1467 238.538 43.6907 237.446C43.2347 236.353 43 235.183 43 234C43 232.817 43.2347 231.647 43.6907 230.554C44.1467 229.462 44.8151 228.469 45.6577 227.633C46.5002 226.798 47.5005 226.135 48.6011 225.683C49.7018 225.231 50.8814 224.999 52.0724 225H96.3383C96.5138 225 96.6821 225.069 96.8062 225.192C96.9303 225.316 97 225.483 97 225.657C97 225.831 96.9303 225.998 96.8062 226.121C96.6821 226.245 96.5138 226.314 96.3383 226.314H52.0724C50.0205 226.316 48.0531 227.126 46.6028 228.568C45.1525 230.009 44.3378 231.963 44.3378 234C44.3378 236.037 45.1525 237.991 46.6028 239.432C48.0531 240.874 50.0205 241.684 52.0724 241.686H96.3383C96.5138 241.686 96.682 241.755 96.8061 241.879C96.9302 242.002 96.9999 242.169 97 242.343V242.343Z" fill="#3F3D56"/>
<path id="Vector_23" d="M95.8702 230H50.1316C50.1143 230 50.0973 229.988 50.0813 229.963C50.0653 229.938 50.0508 229.901 50.0386 229.855C50.0263 229.808 50.0166 229.753 50.01 229.692C50.0034 229.631 50 229.566 50 229.5C50 229.434 50.0034 229.369 50.01 229.308C50.0166 229.247 50.0263 229.192 50.0386 229.145C50.0508 229.099 50.0653 229.062 50.0813 229.037C50.0973 229.012 50.1143 229 50.1316 229H95.8702C95.9047 229.001 95.9377 229.054 95.962 229.148C95.9863 229.241 96 229.368 96 229.5C96 229.632 95.9863 229.759 95.962 229.852C95.9377 229.946 95.9047 229.999 95.8702 230V230Z" fill="#CCCCCC"/>
<path id="Vector_24" d="M95.8702 233H50.1316C50.1143 233 50.0973 232.988 50.0813 232.963C50.0653 232.938 50.0508 232.901 50.0386 232.855C50.0263 232.808 50.0166 232.753 50.01 232.692C50.0034 232.631 50 232.566 50 232.5C50 232.434 50.0034 232.369 50.01 232.308C50.0166 232.247 50.0263 232.192 50.0386 232.145C50.0508 232.099 50.0653 232.062 50.0813 232.037C50.0973 232.012 50.1143 232 50.1316 232H95.8702C95.9047 232.001 95.9377 232.054 95.962 232.148C95.9863 232.241 96 232.368 96 232.5C96 232.632 95.9863 232.759 95.962 232.852C95.9377 232.946 95.9047 232.999 95.8702 233V233Z" fill="#CCCCCC"/>
<g id="stickers">
<path id="Vector_25" d="M38 114.303V4.69737C38.0014 3.45199 38.4966 2.25802 39.3769 1.3774C40.2572 0.496777 41.4507 0.00141659 42.6956 0H129.304C130.549 0.00142483 131.743 0.496788 132.623 1.37741C133.503 2.25803 133.999 3.45199 134 4.69737V114.303C133.999 115.548 133.503 116.742 132.623 117.623C131.743 118.503 130.549 118.999 129.304 119H42.6956C41.4507 118.999 40.2572 118.503 39.3769 117.623C38.4966 116.742 38.0014 115.548 38 114.303V114.303ZM42.6956 1.04386C41.7274 1.04495 40.7991 1.43022 40.1144 2.11515C39.4297 2.80008 39.0446 3.72874 39.0435 4.69737V114.303C39.0446 115.271 39.4297 116.2 40.1144 116.885C40.7991 117.57 41.7274 117.955 42.6956 117.956H129.304C130.273 117.955 131.201 117.57 131.886 116.885C132.57 116.2 132.955 115.271 132.957 114.303V4.69737C132.955 3.72874 132.57 2.80008 131.886 2.11515C131.201 1.43022 130.273 1.04495 129.304 1.04386H42.6956Z" fill="#E6E6E6"/>
<path id="Vector_26" d="M91 50.6688V28.3312C91.0007 27.7131 91.2403 27.1206 91.6664 26.6836C92.0925 26.2465 92.6701 26.0007 93.2727 26H111.727C112.33 26.0007 112.908 26.2465 113.334 26.6836C113.76 27.1206 113.999 27.7131 114 28.3312V50.6688C113.999 51.2869 113.76 51.8794 113.334 52.3164C112.908 52.7535 112.33 52.9993 111.727 53H93.2727C92.6701 52.9993 92.0925 52.7535 91.6664 52.3164C91.2403 51.8794 91.0007 51.2869 91 50.6688V50.6688Z" fill="#6C63FF"/>
<path id="Vector_27" d="M54 60.6688V38.3312C54.0007 37.7131 54.2403 37.1206 54.6664 36.6835C55.0925 36.2465 55.6702 36.0007 56.2727 36H74.7273C75.3298 36.0007 75.9075 36.2465 76.3336 36.6835C76.7597 37.1206 76.9993 37.7131 77 38.3312V60.6688C76.9993 61.2869 76.7597 61.8794 76.3336 62.3165C75.9075 62.7535 75.3298 62.9993 74.7273 63H56.2727C55.6702 62.9993 55.0925 62.7535 54.6664 62.3165C54.2403 61.8794 54.0007 61.2868 54 60.6688V60.6688Z" fill="#CCCCCC"/>
<path id="Vector_28" d="M83 92.6688V70.3312C83.0007 69.7131 83.2508 69.1206 83.6954 68.6835C84.14 68.2465 84.7428 68.0007 85.3715 68H104.628C105.257 68.0007 105.86 68.2465 106.305 68.6835C106.749 69.1206 106.999 69.7131 107 70.3312V92.6688C106.999 93.2869 106.749 93.8794 106.305 94.3165C105.86 94.7535 105.257 94.9993 104.628 95H85.3715C84.7428 94.9993 84.14 94.7535 83.6954 94.3165C83.2508 93.8794 83.0007 93.2869 83 92.6688V92.6688Z" fill="#FF6584"/>
</g>
<path id="Vector_29" d="M196.903 195.002H177.096C176.908 195.002 176.722 195.045 176.554 195.129L171.555 197.654C171.39 197.725 171.25 197.842 171.151 197.993C171.053 198.143 171 198.32 171 198.5C171 198.68 171.053 198.857 171.151 199.007C171.25 199.158 171.39 199.275 171.555 199.346L176.554 201.871C176.722 201.955 176.908 201.998 177.096 201.998H196.903C197.176 202.014 197.444 201.921 197.649 201.739C197.855 201.557 197.981 201.3 198 201.025V195.975C197.981 195.7 197.855 195.443 197.649 195.261C197.444 195.079 197.176 194.986 196.903 195.002Z" fill="#3F3D56"/>
<path id="Vector_30" d="M198 195.975V201.025C197.981 201.3 197.856 201.557 197.652 201.739C197.449 201.921 197.183 202.014 196.912 201.998H193V195.002H196.912C197.183 194.986 197.449 195.079 197.652 195.261C197.856 195.443 197.981 195.7 198 195.975V195.975Z" fill="#6C63FF"/>
<path id="Vector_31" d="M197.123 157.568C198.006 157.18 198.96 156.987 199.922 157.001C200.884 157.014 201.832 157.234 202.705 157.645C203.578 158.057 204.355 158.651 204.985 159.388C205.616 160.126 206.086 160.991 206.365 161.926C206.452 162.222 206.518 162.525 206.564 162.83L233.836 176.563L240.147 172.316L248 181.497L238.363 189.445C237.204 190.393 235.775 190.937 234.288 190.995C232.801 191.053 231.335 190.623 230.107 189.768L202.437 170.337C202.231 170.426 202.021 170.503 201.807 170.57C200.886 170.853 199.917 170.935 198.963 170.811C198.008 170.687 197.09 170.359 196.269 169.85C195.448 169.34 194.743 168.661 194.198 167.855C193.654 167.049 193.284 166.136 193.111 165.174C193.06 164.895 193.026 164.613 193.01 164.33C192.934 162.911 193.287 161.503 194.022 160.294C194.757 159.085 195.839 158.133 197.123 157.568V157.568Z" fill="#FFB8B8"/>
<path id="Vector_32" d="M253.283 241H223.642C223.642 241.869 193.093 242.574 193.093 242.574C192.614 242.942 192.177 243.365 191.791 243.833C190.63 245.245 189.996 247.029 190 248.87V250.13C190.001 252.217 190.814 254.218 192.261 255.694C193.708 257.17 195.671 257.999 197.717 258H253.283C255.329 257.998 257.291 257.168 258.738 255.693C260.185 254.217 260.998 252.216 261 250.13V248.87C260.997 246.784 260.183 244.784 258.736 243.308C257.29 241.833 255.329 241.003 253.283 241V241Z" fill="#3F3D56"/>
<path id="Vector_33" d="M221 310H229V258H221V310Z" fill="#3F3D56"/>
<path id="Vector_34" d="M198 309.518C198 310.36 210.312 309.843 225.5 309.843C240.688 309.843 253 310.36 253 309.518C253 308.676 240.688 302 225.5 302C210.312 302 198 308.676 198 309.518Z" fill="#3F3D56"/>
<path id="Vector_35" d="M204.999 303L197.546 302.999L194 284L205 284.001L204.999 303Z" fill="#FFB8B8"/>
<path id="Vector_36" d="M207 311L183 310.999V310.684C183 309.413 183.242 308.153 183.711 306.978C184.18 305.803 184.869 304.736 185.736 303.836C186.603 302.937 187.633 302.224 188.767 301.737C189.9 301.25 191.115 301 192.341 301H192.342L207 301.001L207 311Z" fill="#2F2E41"/>
<path id="Vector_37" d="M194.188 291.341L179.06 257.256C177.797 254.383 177.657 251.138 178.669 248.166C179.681 245.194 181.769 242.715 184.518 241.221L217.331 223.541L232.304 222.261L246.116 221L246.216 221.169C246.343 221.386 249.313 226.539 247.305 232.191C245.783 236.477 241.822 239.826 235.534 242.142C220.856 247.55 203.9 252.172 197.291 253.908C196.999 253.983 196.726 254.119 196.49 254.308C196.254 254.496 196.061 254.733 195.922 255.002C195.784 255.268 195.701 255.56 195.68 255.86C195.659 256.159 195.7 256.46 195.801 256.743L209.855 288.469C210.002 288.872 210.055 289.303 210.01 289.729C209.964 290.155 209.822 290.565 209.595 290.927C209.367 291.289 209.059 291.594 208.696 291.818C208.332 292.042 207.922 292.179 207.497 292.219L196.996 292.987C196.907 292.996 196.818 293 196.729 293C196.192 293 195.665 292.843 195.214 292.549C194.763 292.254 194.407 291.835 194.188 291.341V291.341Z" fill="#2F2E41"/>
<path id="Vector_38" d="M208.999 303L201.546 302.999L198 284L209 284.001L208.999 303Z" fill="#FFB8B8"/>
<path id="Vector_39" d="M211 311L186 310.999V310.684C186 309.413 186.252 308.153 186.741 306.978C187.23 305.803 187.946 304.736 188.85 303.836C189.754 302.937 190.826 302.224 192.007 301.737C193.187 301.25 194.453 301 195.731 301H195.731L211 301.001L211 311Z" fill="#2F2E41"/>
<path id="Vector_40" d="M198.188 293.341L183.06 259.256C181.797 256.383 181.657 253.138 182.669 250.166C183.681 247.194 185.769 244.715 188.518 243.221L221.331 225.541L236.304 224.261L250.116 223L250.216 223.169C250.343 223.386 253.313 228.539 251.305 234.191C249.783 238.477 245.822 241.826 239.534 244.142C224.856 249.55 207.9 254.172 201.291 255.908C200.999 255.983 200.726 256.119 200.49 256.308C200.254 256.496 200.061 256.733 199.922 257.002C199.784 257.268 199.701 257.56 199.68 257.86C199.659 258.159 199.7 258.46 199.801 258.743L213.855 290.469C214.002 290.872 214.055 291.303 214.01 291.729C213.964 292.155 213.822 292.565 213.595 292.927C213.367 293.289 213.059 293.594 212.696 293.818C212.332 294.042 211.922 294.179 211.497 294.219L200.996 294.987C200.907 294.996 200.818 295 200.729 295C200.192 295 199.665 294.843 199.214 294.549C198.763 294.254 198.407 293.835 198.188 293.341V293.341Z" fill="#2F2E41"/>
<path id="Vector_41" d="M190.842 188.959C184.571 180.509 179.613 171.136 176.141 161.167C175.94 160.571 175.954 159.921 176.181 159.335C176.409 158.748 176.834 158.262 177.382 157.963L198.842 146.315C199.189 146.125 199.574 146.018 199.968 146.002C200.363 145.986 200.755 146.061 201.116 146.222C201.484 146.384 201.811 146.629 202.071 146.938C202.332 147.247 202.519 147.612 202.619 148.006C205.117 157.613 209.812 166.489 216.325 173.917C216.593 174.219 216.789 174.579 216.899 174.97C217.009 175.361 217.029 175.772 216.959 176.172C216.891 176.566 216.735 176.939 216.503 177.262C216.272 177.586 215.97 177.851 215.622 178.039L194.162 189.687C193.613 189.984 192.978 190.073 192.37 189.94C191.762 189.806 191.22 189.459 190.842 188.959V188.959Z" fill="#CCCCCC"/>
<path id="Vector_42" d="M192.732 187.701C192.85 187.846 193.014 187.946 193.199 187.984C193.383 188.021 193.574 187.994 193.74 187.907L215.581 176.342C215.687 176.288 215.779 176.21 215.849 176.114C215.92 176.018 215.967 175.908 215.987 175.792C216.009 175.669 216.003 175.542 215.968 175.422C215.933 175.302 215.87 175.191 215.785 175.099C208.961 167.507 204.042 158.435 201.425 148.616C201.395 148.495 201.336 148.382 201.255 148.287C201.173 148.192 201.07 148.116 200.954 148.067C200.844 148.018 200.725 147.996 200.606 148.001C200.486 148.006 200.369 148.038 200.264 148.095L178.423 159.659C178.258 159.747 178.129 159.89 178.059 160.062C177.988 160.235 177.981 160.426 178.038 160.603C181.508 170.324 186.464 179.462 192.732 187.701V187.701Z" fill="white"/>
<path id="Vector_43" d="M263 185.777L246.44 192L242.397 180.895C241.86 179.42 241.868 177.805 242.419 176.336C242.969 174.866 244.028 173.636 245.407 172.864V172.864C246.801 172.082 248.433 171.819 250.007 172.123C251.58 172.427 252.992 173.277 253.987 174.52L263 185.777Z" fill="#6C63FF"/>
<path id="Vector_44" d="M220.21 231.435C219.858 231.181 219.563 230.854 219.345 230.475C219.127 230.096 218.99 229.674 218.945 229.237C216.803 208.856 218.295 192.907 223.504 180.477C224.421 178.333 225.803 176.429 227.546 174.908C229.289 173.387 231.348 172.289 233.567 171.696L247.082 171L247.152 171.034C250.202 172.557 252.689 175.042 254.245 178.119C255.801 181.197 256.342 184.704 255.789 188.12C251.442 199.802 247.802 211.965 250.578 221.776C250.695 222.187 250.729 222.617 250.678 223.04C250.628 223.464 250.494 223.874 250.284 224.243C250.081 224.601 249.809 224.912 249.483 225.158C249.158 225.404 248.786 225.579 248.392 225.673L222.65 231.917C222.233 232.018 221.8 232.027 221.379 231.944C220.958 231.861 220.56 231.688 220.21 231.435Z" fill="#6C63FF"/>
<path id="Vector_45" d="M242.5 166C251.06 166 258 159.284 258 151C258 142.716 251.06 136 242.5 136C233.94 136 227 142.716 227 151C227 159.284 233.94 166 242.5 166Z" fill="#FFB8B8"/>
<path id="Vector_46" d="M199.953 162.953L188.743 167.852C188.317 168.038 187.833 168.049 187.399 167.882C186.965 167.716 186.615 167.385 186.426 166.963L186.149 166.342C185.961 165.919 185.951 165.441 186.119 165.011C186.287 164.581 186.621 164.234 187.047 164.047L198.257 159.148C198.683 158.962 199.167 158.951 199.601 159.118C200.035 159.284 200.385 159.615 200.574 160.037L200.851 160.658C201.039 161.081 201.049 161.559 200.881 161.989C200.713 162.419 200.379 162.766 199.953 162.953V162.953Z" fill="#CCCCCC"/>
<path id="Vector_47" d="M204.883 170.953L192.926 175.852C192.471 176.038 191.956 176.049 191.492 175.882C191.029 175.716 190.656 175.385 190.455 174.963L190.159 174.342C189.959 173.919 189.947 173.441 190.127 173.011C190.306 172.581 190.662 172.234 191.117 172.047L203.074 167.148C203.529 166.962 204.044 166.951 204.508 167.118C204.971 167.284 205.344 167.615 205.545 168.037L205.841 168.658C206.041 169.081 206.053 169.559 205.873 169.989C205.694 170.419 205.338 170.766 204.883 170.953V170.953Z" fill="#CCCCCC"/>
<path id="Vector_48" d="M213.643 202.542L187.064 181.425C186.853 181.5 186.637 181.564 186.419 181.617C185.481 181.838 184.507 181.857 183.561 181.675C182.615 181.492 181.717 181.111 180.927 180.556C180.132 180.001 179.463 179.281 178.966 178.444C178.469 177.607 178.155 176.674 178.046 175.705C177.867 174.157 178.214 172.593 179.029 171.268C179.844 169.943 181.08 168.934 182.536 168.405C183.444 168.077 184.412 167.946 185.374 168.02C186.337 168.095 187.273 168.373 188.121 168.837C188.969 169.301 189.711 169.941 190.297 170.713C190.882 171.486 191.3 172.375 191.521 173.321C191.589 173.621 191.637 173.925 191.663 174.232L218.122 189.604L224.706 185.786L232 195.403L221.777 202.741C220.58 203.593 219.142 204.034 217.677 203.998C216.212 203.962 214.797 203.451 213.643 202.542V202.542Z" fill="#FFB8B8"/>
<path id="Vector_49" d="M235.345 198L220 187.842L227.212 177.9C228.169 176.579 229.575 175.631 231.182 175.223C232.788 174.814 234.491 174.971 235.99 175.667V175.667C237.506 176.37 238.714 177.578 239.395 179.072C240.076 180.567 240.186 182.249 239.705 183.815L235.345 198Z" fill="#6C63FF"/>
<path id="Vector_50" d="M236.958 148.717C233.027 151.385 227.866 154.128 223.851 151.287C221.215 149.421 220.384 145.966 221.453 142.933C223.376 137.481 228.658 135.08 233.709 133.24C240.275 130.848 247.424 128.945 254.203 130.658C260.981 132.371 266.972 138.881 265.748 145.711C264.764 151.204 259.54 155.775 260.281 161.306C261.028 166.872 267.339 169.801 272.911 170.796C278.482 171.791 284.717 172.111 288.722 176.08C293.83 181.144 292.554 190.194 287.748 195.541C282.941 200.887 275.688 203.31 268.659 204.958C259.347 207.14 249.275 208.288 240.431 204.665C231.586 201.043 224.704 191.291 227.266 182.147C228.348 178.285 230.897 175.021 233.361 171.843C235.825 168.665 238.32 165.342 239.26 161.443C240.043 158.194 239.463 154.421 237.291 151.984C236.896 151.558 236.647 151.018 236.581 150.442C236.514 149.867 236.633 149.285 236.921 148.781L236.958 148.717Z" fill="#2F2E41"/>
</g>
</svg>
