<svg width="459" height="212" viewBox="0 0 459 212" fill="none" xmlns="http://www.w3.org/2000/svg">
<g id="learnability" clip-path="url(#clip0)">
<path id="Vector" d="M389.495 2.61084H262.644V0H205.125V2.61084H77.7516C76.6248 2.61084 75.5091 2.83247 74.468 3.26308C73.427 3.69368 72.4811 4.32483 71.6843 5.12049C70.8875 5.91615 70.2555 6.86072 69.8243 7.9003C69.3931 8.93987 69.1711 10.0541 69.1711 11.1793V184.633C69.1711 186.906 70.0752 189.085 71.6843 190.692C73.2935 192.299 75.4759 193.202 77.7516 193.202H389.495C390.622 193.202 391.738 192.98 392.779 192.55C393.82 192.119 394.766 191.488 395.563 190.692C396.359 189.897 396.991 188.952 397.423 187.913C397.854 186.873 398.076 185.759 398.076 184.633V11.1793C398.076 10.0541 397.854 8.93987 397.423 7.90029C396.991 6.86072 396.359 5.91614 395.563 5.12048C394.766 4.32483 393.82 3.69368 392.779 3.26307C391.738 2.83247 390.622 2.61083 389.495 2.61084V2.61084Z" fill="#3F3D56"/>
<path id="Vector_2" d="M386.572 17.7537H80.6748V190.069H386.572V17.7537Z" fill="#6C63FF"/>
<path id="Vector_3" d="M233.362 13.0542C235.095 13.0542 236.499 11.6515 236.499 9.92121C236.499 8.1909 235.095 6.78821 233.362 6.78821C231.629 6.78821 230.225 8.1909 230.225 9.92121C230.225 11.6515 231.629 13.0542 233.362 13.0542Z" fill="#6C63FF"/>
<path id="sqaureRight" d="M369.011 39.6845H354.511V25.2046H369.011V39.6845ZM355.141 39.055H368.381V25.8341H355.141V39.055Z" fill="#3F3D56"/>
<path id="Vector_4" d="M406.665 186.936H376.811V184.788C376.811 184.732 376.8 184.677 376.779 184.625C376.757 184.573 376.726 184.526 376.686 184.487C376.647 184.447 376.6 184.416 376.548 184.395C376.496 184.373 376.441 184.362 376.385 184.362H366.149C366.093 184.362 366.038 184.373 365.986 184.395C365.934 184.416 365.887 184.447 365.848 184.487C365.808 184.526 365.777 184.573 365.755 184.625C365.734 184.677 365.723 184.732 365.723 184.788V186.936H359.325V184.788C359.325 184.732 359.314 184.677 359.293 184.625C359.272 184.573 359.24 184.526 359.201 184.487C359.161 184.447 359.114 184.416 359.062 184.395C359.01 184.373 358.955 184.362 358.899 184.362H348.663C348.607 184.362 348.552 184.373 348.5 184.395C348.448 184.416 348.401 184.447 348.362 184.487C348.322 184.526 348.291 184.573 348.269 184.625C348.248 184.677 348.237 184.732 348.237 184.788V186.936H341.84V184.788C341.84 184.732 341.829 184.677 341.807 184.625C341.786 184.573 341.754 184.526 341.715 184.487C341.675 184.447 341.628 184.416 341.576 184.395C341.525 184.373 341.469 184.362 341.413 184.362H331.178C331.122 184.362 331.066 184.373 331.015 184.395C330.963 184.416 330.916 184.447 330.876 184.487C330.837 184.526 330.805 184.573 330.784 184.625C330.762 184.677 330.751 184.732 330.751 184.788V186.936H324.354V184.788C324.354 184.732 324.343 184.677 324.322 184.625C324.3 184.573 324.269 184.526 324.229 184.487C324.19 184.447 324.143 184.416 324.091 184.395C324.039 184.373 323.984 184.362 323.928 184.362H313.692C313.636 184.362 313.581 184.373 313.529 184.395C313.477 184.416 313.43 184.447 313.391 184.487C313.351 184.526 313.32 184.573 313.298 184.625C313.277 184.677 313.266 184.732 313.266 184.788V186.936H306.868V184.788C306.868 184.732 306.857 184.677 306.836 184.625C306.815 184.573 306.783 184.526 306.744 184.487C306.704 184.447 306.657 184.416 306.605 184.395C306.553 184.373 306.498 184.362 306.442 184.362H296.206C296.15 184.362 296.095 184.373 296.043 184.395C295.992 184.416 295.945 184.447 295.905 184.487C295.865 184.526 295.834 184.573 295.812 184.625C295.791 184.677 295.78 184.732 295.78 184.788V186.936H289.383V184.788C289.383 184.732 289.372 184.677 289.35 184.625C289.329 184.573 289.298 184.526 289.258 184.487C289.218 184.447 289.171 184.416 289.12 184.395C289.068 184.373 289.012 184.362 288.956 184.362H278.721C278.665 184.362 278.609 184.373 278.558 184.395C278.506 184.416 278.459 184.447 278.419 184.487C278.38 184.526 278.348 184.573 278.327 184.625C278.305 184.677 278.294 184.732 278.294 184.788V186.936H271.897V184.788C271.897 184.732 271.886 184.677 271.865 184.625C271.843 184.573 271.812 184.526 271.772 184.487C271.733 184.447 271.686 184.416 271.634 184.395C271.582 184.373 271.527 184.362 271.471 184.362H191.293C191.237 184.362 191.181 184.373 191.129 184.395C191.078 184.416 191.031 184.447 190.991 184.487C190.951 184.526 190.92 184.573 190.899 184.625C190.877 184.677 190.866 184.732 190.866 184.788V186.936H184.469V184.788C184.469 184.732 184.458 184.677 184.436 184.625C184.415 184.573 184.384 184.526 184.344 184.487C184.304 184.447 184.257 184.416 184.206 184.395C184.154 184.373 184.098 184.362 184.042 184.362H173.807C173.751 184.362 173.695 184.373 173.644 184.395C173.592 184.416 173.545 184.447 173.505 184.487C173.466 184.526 173.434 184.573 173.413 184.625C173.391 184.677 173.38 184.732 173.38 184.788V186.936H166.983V184.788C166.983 184.732 166.972 184.677 166.951 184.625C166.929 184.573 166.898 184.526 166.858 184.487C166.819 184.447 166.772 184.416 166.72 184.395C166.668 184.373 166.613 184.362 166.557 184.362H156.321C156.265 184.362 156.21 184.373 156.158 184.395C156.106 184.416 156.059 184.447 156.02 184.487C155.98 184.526 155.949 184.573 155.927 184.625C155.906 184.677 155.895 184.732 155.895 184.788V186.936H149.498V184.788C149.498 184.732 149.487 184.677 149.465 184.625C149.444 184.573 149.412 184.526 149.373 184.487C149.333 184.447 149.286 184.416 149.234 184.395C149.183 184.373 149.127 184.362 149.071 184.362H138.836C138.78 184.362 138.724 184.373 138.672 184.395C138.621 184.416 138.574 184.447 138.534 184.487C138.494 184.526 138.463 184.573 138.442 184.625C138.42 184.677 138.409 184.732 138.409 184.788V186.936H132.012V184.788C132.012 184.732 132.001 184.677 131.979 184.625C131.958 184.573 131.927 184.526 131.887 184.487C131.847 184.447 131.8 184.416 131.749 184.395C131.697 184.373 131.641 184.362 131.585 184.362H121.35C121.294 184.362 121.238 184.373 121.187 184.395C121.135 184.416 121.088 184.447 121.048 184.487C121.009 184.526 120.977 184.573 120.956 184.625C120.935 184.677 120.923 184.732 120.923 184.788V186.936H114.526V184.788C114.526 184.732 114.515 184.677 114.494 184.625C114.472 184.573 114.441 184.526 114.401 184.487C114.362 184.447 114.315 184.416 114.263 184.395C114.211 184.373 114.156 184.362 114.1 184.362H103.864C103.808 184.362 103.753 184.373 103.701 184.395C103.649 184.416 103.602 184.447 103.563 184.487C103.523 184.526 103.492 184.573 103.47 184.625C103.449 184.677 103.438 184.732 103.438 184.788V186.936H97.0406V184.788C97.0407 184.732 97.0296 184.677 97.0082 184.625C96.9867 184.573 96.9553 184.526 96.9157 184.487C96.8761 184.447 96.8291 184.416 96.7774 184.395C96.7256 184.373 96.6702 184.362 96.6142 184.362H86.3787C86.3227 184.362 86.2672 184.373 86.2155 184.395C86.1637 184.416 86.1167 184.447 86.0771 184.487C86.0375 184.526 86.0061 184.573 85.9846 184.625C85.9632 184.677 85.9522 184.732 85.9522 184.788V186.936H66.3341C63.6195 186.936 61.0161 188.013 59.0965 189.93C57.177 191.847 56.0986 194.446 56.0986 197.157V201.779C56.0986 204.49 57.177 207.089 59.0966 209.006C61.0161 210.923 63.6195 212 66.3341 212H406.665C409.379 212 411.983 210.923 413.902 209.006C415.822 207.089 416.9 204.49 416.9 201.779V197.157C416.9 194.446 415.822 191.847 413.902 189.93C411.983 188.013 409.379 186.936 406.665 186.936V186.936Z" fill="#3F3D56"/>
<path id="Vector_5" d="M367.662 113.771H269.173V57.7791H367.662V113.771ZM270.148 112.797H366.687V58.7529H270.148V112.797Z" fill="#3F3D56"/>
<path id="Vector_6" d="M187.262 124.969H99.499V70.4381H187.262V124.969ZM100.474 123.996H186.286V71.4119H100.474V123.996Z" fill="#3F3D56"/>
<path id="qmarkOne" d="M140.501 104.033L140.417 102.944C140.166 100.684 140.92 98.213 143.017 95.7011C144.904 93.4815 145.952 91.8488 145.952 89.9645C145.952 87.8291 144.61 86.4055 141.968 86.3637C140.458 86.3576 138.981 86.8103 137.733 87.6617L136.727 85.0238C138.111 84.0186 140.501 83.3487 142.723 83.3487C147.545 83.3487 149.725 86.3218 149.725 89.5037C149.725 92.3513 148.132 94.403 146.119 96.7894C144.275 98.9666 143.604 100.809 143.729 102.944L143.771 104.033L140.501 104.033ZM139.578 109.895C139.556 109.554 139.605 109.211 139.721 108.889C139.838 108.567 140.02 108.273 140.257 108.025C140.493 107.777 140.779 107.581 141.095 107.449C141.411 107.317 141.751 107.252 142.094 107.257C143.562 107.257 144.568 108.346 144.568 109.895C144.582 110.231 144.528 110.566 144.409 110.881C144.29 111.195 144.108 111.482 143.875 111.725C143.642 111.967 143.362 112.16 143.053 112.292C142.743 112.424 142.41 112.492 142.073 112.492C141.737 112.492 141.404 112.424 141.094 112.292C140.784 112.16 140.505 111.967 140.272 111.725C140.039 111.482 139.857 111.195 139.738 110.881C139.619 110.566 139.565 110.231 139.578 109.895V109.895Z" fill="#D0CDE1"/>
<path id="qmarkTwo" d="M315.538 91.8612L315.454 90.7723C315.203 88.5114 315.958 86.0409 318.054 83.5289C319.941 81.3094 320.989 79.6766 320.989 77.7923C320.989 75.657 319.647 74.2334 317.006 74.1916C315.495 74.1854 314.018 74.6381 312.771 75.4896L311.764 72.8517C313.148 71.8465 315.538 71.1766 317.76 71.1766C322.583 71.1766 324.763 74.1497 324.763 77.3316C324.763 80.1792 323.169 82.2309 321.157 84.6173C319.312 86.7945 318.641 88.637 318.767 90.7723L318.809 91.8611L315.538 91.8612ZM314.616 97.7233C314.593 97.3817 314.642 97.0391 314.759 96.7172C314.875 96.3953 315.058 96.1012 315.294 95.8532C315.531 95.6053 315.816 95.4091 316.132 95.2769C316.448 95.1447 316.789 95.0795 317.132 95.0853C318.599 95.0853 319.606 96.1737 319.606 97.7233C319.619 98.0591 319.565 98.3942 319.446 98.7086C319.327 99.0229 319.145 99.3099 318.912 99.5524C318.679 99.7949 318.4 99.9879 318.09 100.12C317.78 100.251 317.447 100.319 317.111 100.319C316.774 100.319 316.441 100.251 316.131 100.12C315.822 99.9879 315.542 99.7949 315.309 99.5524C315.076 99.3099 314.894 99.0229 314.775 98.7086C314.656 98.3942 314.602 98.0591 314.616 97.7233V97.7233Z" fill="#D0CDE1"/>
<path id="Vector_7" d="M235.346 169.018C258.583 169.018 277.42 150.208 277.42 127.004C277.42 103.8 258.583 84.9891 235.346 84.9891C212.11 84.9891 193.273 103.8 193.273 127.004C193.273 150.208 212.11 169.018 235.346 169.018Z" fill="#2F2E41"/>
<path id="Vector_8" d="M219.097 184.539L206.519 182.265L210.599 156.039L223.176 158.313L219.097 184.539Z" fill="#2F2E41"/>
<path id="Vector_9" d="M248.331 162.86L235.753 160.586L231.674 183.089L244.251 185.363L248.331 162.86Z" fill="#2F2E41"/>
<path id="Vector_10" d="M252.658 186.589C253.095 184.429 248.774 181.737 243.008 180.574C237.241 179.412 232.213 180.22 231.776 182.379C231.34 184.539 235.66 187.231 241.427 188.394C247.193 189.556 252.221 188.748 252.658 186.589Z" fill="#2F2E41"/>
<path id="Vector_11" d="M226.461 185.911C226.751 183.727 222.258 181.331 216.427 180.56C210.595 179.788 205.633 180.933 205.343 183.117C205.053 185.301 209.546 187.696 215.378 188.468C221.209 189.239 226.172 188.095 226.461 185.911Z" fill="#2F2E41"/>
<path id="Vector_12" d="M238.292 131.086C246.234 131.086 252.672 124.657 252.672 116.727C252.672 108.796 246.234 102.367 238.292 102.367C230.351 102.367 223.913 108.796 223.913 116.727C223.913 124.657 230.351 131.086 238.292 131.086Z" fill="white"/>
<g id="eyeBall">
<path id="Vector_13" d="M244.202 116.366C246.849 116.366 248.995 114.223 248.995 111.58C248.995 108.936 246.849 106.793 244.202 106.793C241.555 106.793 239.409 108.936 239.409 111.58C239.409 114.223 241.555 116.366 244.202 116.366Z" fill="#3F3D56"/>
</g>
<path id="Vector_14" d="M202.156 81.2963C201.524 65.742 214.948 52.5673 232.141 51.8699C249.333 51.1725 263.784 63.2165 264.417 78.7709C265.049 94.3252 253.098 97.8593 235.906 98.5567C218.713 99.2541 202.789 96.8507 202.156 81.2963Z" fill="white"/>
<path id="Vector_15" d="M275.671 125.777C286.996 123.185 295.515 118.206 294.701 114.656C293.886 111.106 284.045 110.329 272.72 112.921C261.395 115.513 252.876 120.493 253.691 124.043C254.505 127.593 264.346 128.37 275.671 125.777Z" fill="#2F2E41"/>
<path id="Vector_16" d="M193.082 139.492C204.407 136.9 212.927 131.921 212.112 128.371C211.297 124.821 201.456 124.044 190.131 126.636C178.807 129.228 170.287 134.208 171.102 137.758C171.917 141.308 181.758 142.085 193.082 139.492Z" fill="#2F2E41"/>
<path id="Vector_17" d="M223.791 143.561C223.567 144.798 223.589 146.067 223.856 147.296C224.122 148.524 224.629 149.688 225.346 150.721C226.064 151.754 226.978 152.636 228.037 153.316C229.095 153.997 230.278 154.462 231.516 154.686C232.755 154.91 234.026 154.888 235.256 154.622C236.487 154.355 237.652 153.849 238.687 153.133C239.721 152.416 240.604 151.504 241.286 150.446C241.967 149.389 242.433 148.209 242.657 146.971C243.6 141.769 239.572 139.928 234.362 138.986C229.153 138.045 224.734 138.359 223.791 143.561Z" fill="white"/>
<path id="Vector_18" d="M144.526 6.38904H75.3464V72.1027H144.526V6.38904Z" fill="#D0CDE1"/>
<path id="Vector_19" d="M136.665 14.2394H83.2078V55.061H136.665V14.2394Z" fill="white"/>
<path id="Vector_20" d="M112.232 59.877H83.1548V61.4052H112.232V59.877Z" fill="#F2F2F2"/>
<path id="Vector_21" d="M112.232 64.4616H83.1548V65.9898H112.232V64.4616Z" fill="#F2F2F2"/>
<path id="upperDotOne" d="M92.7196 40.7741C96.1004 40.7741 98.8411 38.0372 98.8411 34.6612C98.8411 31.2851 96.1004 28.5483 92.7196 28.5483C89.3388 28.5483 86.5981 31.2851 86.5981 34.6612C86.5981 38.0372 89.3388 40.7741 92.7196 40.7741Z" fill="#3F3D56"/>
<path id="upperDotTwo" d="M109.936 40.7741C113.317 40.7741 116.058 38.0372 116.058 34.6612C116.058 31.2851 113.317 28.5483 109.936 28.5483C106.556 28.5483 103.815 31.2851 103.815 34.6612C103.815 38.0372 106.556 40.7741 109.936 40.7741Z" fill="#6C63FF"/>
<path id="upperDotThree" d="M127.153 40.7741C130.534 40.7741 133.274 38.0372 133.274 34.6612C133.274 31.2851 130.534 28.5483 127.153 28.5483C123.772 28.5483 121.031 31.2851 121.031 34.6612C121.031 38.0372 123.772 40.7741 127.153 40.7741Z" fill="#E6E6E6"/>
<path id="Vector_22" d="M109.936 13.266C111.627 13.266 112.997 11.8976 112.997 10.2096C112.997 8.52156 111.627 7.15314 109.936 7.15314C108.246 7.15314 106.876 8.52156 106.876 10.2096C106.876 11.8976 108.246 13.266 109.936 13.266Z" fill="#3F3D56"/>
<path id="Vector_23" d="M177.431 133.63H108.251V199.344H177.431V133.63Z" fill="#D0CDE1"/>
<path id="Vector_24" d="M169.57 141.48H116.113V182.302H169.57V141.48Z" fill="white"/>
<path id="sqareShape" d="M146.616 148.189H127.876V166.903H146.616V148.189Z" fill="#6C63FF"/>
<path id="Vector_25" d="M135.05 152.869V175.594H157.807V152.869H135.05ZM156.82 174.608H136.037V153.855H156.82V174.608Z" fill="#3F3D56"/>
<path id="Vector_26" d="M145.137 186.354H116.06V187.882H145.137V186.354Z" fill="#F2F2F2"/>
<path id="Vector_27" d="M142.841 140.507C144.532 140.507 145.902 139.139 145.902 137.451C145.902 135.763 144.532 134.394 142.841 134.394C141.151 134.394 139.781 135.763 139.781 137.451C139.781 139.139 141.151 140.507 142.841 140.507Z" fill="#3F3D56"/>
<path id="Vector_28" d="M357.546 113.957H288.366V179.671H357.546V113.957Z" fill="#D0CDE1"/>
<path id="Vector_29" d="M349.685 121.807H296.228V162.629H349.685V121.807Z" fill="white"/>
<path id="box" d="M328.706 153.765H317.206V157.168H328.706V153.765Z" fill="#3F3D56"/>
<path id="lineFive" d="M342.61 127.269H303.303V128.727H342.61V127.269Z" fill="#3F3D56"/>
<path id="lineFour" d="M342.61 131.887H303.303V133.346H342.61V131.887Z" fill="#3F3D56"/>
<path id="lineThree" d="M342.61 136.506H303.303V137.964H342.61V136.506Z" fill="#3F3D56"/>
<path id="lineTwo" d="M342.61 141.124H303.303V142.583H342.61V141.124Z" fill="#3F3D56"/>
<path id="lineOne" d="M342.61 145.743H303.303V147.201H342.61V145.743Z" fill="#3F3D56"/>
<path id="Vector_30" d="M325.252 166.681H296.175V168.209H325.252V166.681Z" fill="#F2F2F2"/>
<path id="Vector_31" d="M336.73 170.501H296.175V172.03H336.73V170.501Z" fill="#F2F2F2"/>
<path id="Vector_32" d="M322.956 120.834C324.647 120.834 326.017 119.466 326.017 117.778C326.017 116.09 324.647 114.721 322.956 114.721C321.266 114.721 319.896 116.09 319.896 117.778C319.896 119.466 321.266 120.834 322.956 120.834Z" fill="#3F3D56"/>
</g>
<defs>
<clipPath id="clip0">
<rect width="459" height="212" fill="white"/>
</clipPath>
</defs>
</svg>
