<svg width="512" height="512" viewBox="0 0 512 512" fill="none" xmlns="http://www.w3.org/2000/svg">
<g filter="url(#filter0_d)">
<path d="M349.33 69.33C374.063 69.4039 397.761 79.2616 415.25 96.7502C432.738 114.239 442.596 137.937 442.67 162.67V349.33C442.596 374.063 432.738 397.761 415.25 415.25C397.761 432.738 374.063 442.596 349.33 442.67H162.67C137.937 442.596 114.239 432.738 96.7502 415.25C79.2616 397.761 69.4039 374.063 69.33 349.33V162.67C69.4039 137.937 79.2616 114.239 96.7502 96.7502C114.239 79.2616 137.937 69.4039 162.67 69.33H349.33V69.33ZM349.33 32H162.67C90.8 32 32 90.8 32 162.67V349.33C32 421.2 90.8 480 162.67 480H349.33C421.2 480 480 421.2 480 349.33V162.67C480 90.8 421.2 32 349.33 32V32Z" fill="#FFF5C3"/>
<path d="M377.33 162.67C371.792 162.67 366.379 161.028 361.774 157.951C357.17 154.875 353.581 150.502 351.461 145.385C349.342 140.269 348.788 134.639 349.868 129.208C350.948 123.776 353.615 118.787 357.531 114.871C361.447 110.955 366.436 108.288 371.868 107.208C377.299 106.128 382.929 106.682 388.045 108.801C393.162 110.921 397.534 114.51 400.611 119.114C403.688 123.719 405.33 129.132 405.33 134.67C405.338 138.349 404.619 141.994 403.215 145.395C401.81 148.795 399.748 151.885 397.147 154.487C394.545 157.088 391.455 159.15 388.055 160.555C384.654 161.959 381.009 162.678 377.33 162.67V162.67ZM256 181.33C270.768 181.33 285.205 185.709 297.484 193.914C309.764 202.119 319.335 213.781 324.986 227.425C330.638 241.069 332.116 256.083 329.235 270.567C326.354 285.052 319.242 298.357 308.8 308.8C298.357 319.242 285.052 326.354 270.567 329.235C256.083 332.116 241.069 330.638 227.425 324.986C213.781 319.335 202.119 309.764 193.914 297.484C185.709 285.205 181.33 270.768 181.33 256C181.351 236.203 189.225 217.223 203.224 203.224C217.223 189.225 236.203 181.351 256 181.33V181.33ZM256 144C233.849 144 212.194 150.569 193.776 162.875C175.358 175.182 161.003 192.674 152.526 213.14C144.049 233.605 141.831 256.124 146.152 277.85C150.474 299.576 161.141 319.533 176.804 335.196C192.468 350.859 212.424 361.526 234.15 365.848C255.876 370.17 278.395 367.952 298.861 359.475C319.326 350.998 336.818 336.642 349.125 318.224C361.431 299.806 368 278.152 368 256C368 226.296 356.2 197.808 335.196 176.804C314.192 155.8 285.704 144 256 144V144Z" fill="#FFF5C3"/>
</g>
<defs>
<filter id="filter0_d" x="-4" y="0" width="520" height="520" filterUnits="userSpaceOnUse" color-interpolation-filters="sRGB">
<feFlood flood-opacity="0" result="BackgroundImageFix"/>
<feColorMatrix in="SourceAlpha" type="matrix" values="0 0 0 0 0 0 0 0 0 0 0 0 0 0 0 0 0 0 127 0"/>
<feOffset dy="4"/>
<feGaussianBlur stdDeviation="2"/>
<feColorMatrix type="matrix" values="0 0 0 0 0 0 0 0 0 0 0 0 0 0 0 0 0 0 0.25 0"/>
<feBlend mode="normal" in2="BackgroundImageFix" result="effect1_dropShadow"/>
<feBlend mode="normal" in="SourceGraphic" in2="effect1_dropShadow" result="shape"/>
</filter>
</defs>
</svg>
