<svg width="19" height="27" viewBox="0 0 19 27" fill="none" xmlns="http://www.w3.org/2000/svg">
<path d="M3.094 13.3165C2.646 13.3165 2.23067 13.2231 1.848 13.0365C1.47467 12.8498 1.17133 12.6025 0.938 12.2945C0.704667 11.9771 0.588 11.6225 0.588 11.2305C0.588 10.5958 0.844667 10.0871 1.358 9.70448C1.87133 9.32182 2.53867 9.07448 3.36 8.96248L5.572 8.65448V8.16448C5.572 7.66982 5.418 7.28248 5.11 7.00248C4.81133 6.71315 4.33067 6.56848 3.668 6.56848C3.18267 6.56848 2.79067 6.66648 2.492 6.86248C2.19333 7.04915 1.988 7.29648 1.876 7.60448C1.82933 7.74448 1.74067 7.81448 1.61 7.81448H1.386C1.274 7.81448 1.19467 7.78648 1.148 7.73048C1.10133 7.66515 1.078 7.59048 1.078 7.50648C1.078 7.37582 1.12467 7.21248 1.218 7.01648C1.32067 6.82048 1.47467 6.62915 1.68 6.44248C1.88533 6.24648 2.15133 6.08315 2.478 5.95248C2.80467 5.82182 3.20133 5.75648 3.668 5.75648C4.21867 5.75648 4.67133 5.83115 5.026 5.98048C5.39 6.12982 5.67 6.32582 5.866 6.56848C6.07133 6.80182 6.216 7.06315 6.3 7.35248C6.384 7.64182 6.426 7.92648 6.426 8.20648V12.8685C6.426 12.9618 6.398 13.0365 6.342 13.0925C6.286 13.1485 6.21133 13.1765 6.118 13.1765H5.88C5.78667 13.1765 5.712 13.1485 5.656 13.0925C5.6 13.0365 5.572 12.9618 5.572 12.8685V12.2105C5.46 12.3785 5.30133 12.5465 5.096 12.7145C4.89067 12.8825 4.62467 13.0271 4.298 13.1485C3.98067 13.2605 3.57933 13.3165 3.094 13.3165ZM3.234 12.5045C3.66333 12.5045 4.05533 12.4111 4.41 12.2245C4.76467 12.0378 5.04467 11.7531 5.25 11.3705C5.46467 10.9785 5.572 10.4885 5.572 9.90048V9.42448L3.766 9.67648C3.00067 9.77915 2.422 9.95648 2.03 10.2085C1.638 10.4605 1.442 10.7778 1.442 11.1605C1.442 11.4685 1.53067 11.7205 1.708 11.9165C1.88533 12.1125 2.10933 12.2618 2.38 12.3645C2.66 12.4578 2.94467 12.5045 3.234 12.5045Z" fill="#FFF5C3"/>
<path d="M15.3864 21.76C14.901 21.76 14.5184 21.6573 14.2384 21.452C13.9584 21.2467 13.7624 20.9667 13.6504 20.612C13.5384 20.2573 13.4824 19.8607 13.4824 19.422V15.292H12.3904C12.297 15.292 12.2224 15.264 12.1664 15.208C12.1104 15.152 12.0824 15.0773 12.0824 14.984V14.788C12.0824 14.6947 12.1104 14.62 12.1664 14.564C12.2224 14.508 12.297 14.48 12.3904 14.48H13.4824V12.128C13.4824 12.0347 13.5104 11.96 13.5664 11.904C13.6224 11.848 13.697 11.82 13.7904 11.82H14.0284C14.1217 11.82 14.1964 11.848 14.2524 11.904C14.3084 11.96 14.3364 12.0347 14.3364 12.128V14.48H16.0724C16.1657 14.48 16.2404 14.508 16.2964 14.564C16.3524 14.62 16.3804 14.6947 16.3804 14.788V14.984C16.3804 15.0773 16.3524 15.152 16.2964 15.208C16.2404 15.264 16.1657 15.292 16.0724 15.292H14.3364V19.366C14.3364 19.8607 14.4157 20.248 14.5744 20.528C14.7424 20.808 15.0364 20.948 15.4564 20.948H16.2124C16.3057 20.948 16.3804 20.976 16.4364 21.032C16.4924 21.088 16.5204 21.1627 16.5204 21.256V21.452C16.5204 21.5453 16.4924 21.62 16.4364 21.676C16.3804 21.732 16.3057 21.76 16.2124 21.76H15.3864Z" fill="#FFF5C3"/>
<path d="M7.89364 18.5412C7.8003 18.5412 7.72564 18.5132 7.66964 18.4572C7.61364 18.4012 7.58564 18.3265 7.58564 18.2332V8.90918C7.58564 8.81585 7.61364 8.74118 7.66964 8.68518C7.72564 8.62918 7.8003 8.60118 7.89364 8.60118H8.13164C8.22497 8.60118 8.29964 8.62918 8.35564 8.68518C8.41164 8.74118 8.43964 8.81585 8.43964 8.90918V13.8652L11.5616 11.4992C11.6923 11.3965 11.7856 11.3312 11.8416 11.3032C11.907 11.2752 12.0096 11.2612 12.1496 11.2612H12.4156C12.4996 11.2612 12.565 11.2892 12.6116 11.3452C12.6676 11.3919 12.6956 11.4572 12.6956 11.5412C12.6956 11.5785 12.6816 11.6252 12.6536 11.6812C12.635 11.7278 12.5883 11.7745 12.5136 11.8212L8.97164 14.5092L12.8636 17.9812C12.985 18.0932 13.0456 18.1865 13.0456 18.2612C13.0456 18.3452 13.0176 18.4152 12.9616 18.4712C12.915 18.5179 12.8496 18.5412 12.7656 18.5412H12.5416C12.4016 18.5412 12.299 18.5319 12.2336 18.5132C12.1776 18.4852 12.0843 18.4152 11.9536 18.3032L8.43964 15.1812V18.2332C8.43964 18.3265 8.41164 18.4012 8.35564 18.4572C8.29964 18.5132 8.22497 18.5412 8.13164 18.5412H7.89364Z" fill="#FFF5C3"/>
</svg>
