<svg width="620" height="716" viewBox="0 0 620 716" fill="none" xmlns="http://www.w3.org/2000/svg">
<g id="mainSvg">
<g id="sqaureTwo">
<path id="Vector" d="M162.656 110L161.22 131.562L182.782 132.998L184.218 111.436L162.656 110Z" fill="#2F2E41"/>
<path id="Vector_2" d="M148.744 121.449L174.927 123.193L173.183 149.376L147 147.632L148.744 121.449ZM173.712 124.256L149.806 122.664L148.214 146.57L172.12 148.162L173.712 124.256Z" fill="#3F3D56"/>
</g>
<g id="sqaureTwo_2">
<path id="Vector_3" d="M77.6557 42L76.2197 63.5623L97.7821 64.9983L99.218 43.436L77.6557 42Z" fill="#2F2E41"/>
<path id="Vector_4" d="M63.7437 53.4495L89.9265 55.1931L88.1828 81.3759L62 79.6323L63.7437 53.4495ZM88.7123 56.2557L64.8063 54.6637L63.2142 78.5696L87.1202 80.1617L88.7123 56.2557Z" fill="#3F3D56"/>
</g>
<g id="sqaureOne">
<path id="Vector_5" d="M561.485 340.234L540.357 344.773L544.896 365.901L566.024 361.361L561.485 340.234Z" fill="#2F2E41"/>
<path id="Vector_6" d="M546.655 330L552.168 355.655L526.513 361.168L521 335.513L546.655 330ZM550.813 354.779L545.779 331.355L522.355 336.388L527.388 359.813L550.813 354.779Z" fill="#2F2E41"/>
</g>
<g id="sqaureOne_2">
<path id="Vector_7" d="M493.485 218.234L472.357 222.773L476.896 243.901L498.024 239.361L493.485 218.234Z" fill="#2F2E41"/>
<path id="Vector_8" d="M478.655 208L484.168 233.655L458.513 239.168L453 213.513L478.655 208ZM482.813 232.779L477.779 209.355L454.355 214.388L459.388 237.813L482.813 232.779Z" fill="#2F2E41"/>
</g>
<g id="sqaureOne_3">
<path id="Vector_9" d="M254.485 10.2335L233.357 14.7733L237.896 35.9011L259.024 31.3614L254.485 10.2335Z" fill="#2F2E41"/>
<path id="Vector_10" d="M239.655 0L245.168 25.6552L219.513 31.1678L214 5.51254L239.655 0ZM243.813 24.7795L238.779 1.35513L215.355 6.38831L220.388 29.8127L243.813 24.7795Z" fill="#2F2E41"/>
</g>
<g id="sqaureOne_4">
<path id="Vector_11" d="M64.4846 262.234L43.3567 266.773L47.8964 287.901L69.0243 283.361L64.4846 262.234Z" fill="#2F2E41"/>
<path id="Vector_12" d="M49.6553 252L55.1678 277.655L29.5125 283.168L24 257.513L49.6553 252ZM53.8127 276.779L48.7795 253.355L25.3551 258.388L30.3883 281.813L53.8127 276.779Z" fill="#2F2E41"/>
</g>
<g id="sqaureThree">
<path id="Vector_13" d="M537.183 138.362L521.411 153.135L536.184 168.906L551.956 154.133L537.183 138.362Z" fill="#2F2E41"/>
<path id="Vector_14" d="M553.09 136.152L533.939 154.09L516 134.939L535.152 117L553.09 136.152ZM533.991 152.478L551.478 136.099L535.099 118.613L517.613 134.991L533.991 152.478Z" fill="#3F3D56"/>
</g>
<g id="sqaureThree_2">
<path id="Vector_15" d="M395.183 138.362L379.411 153.135L394.184 168.906L409.956 154.133L395.183 138.362Z" fill="#2F2E41"/>
<path id="Vector_16" d="M411.09 136.152L391.939 154.09L374 134.939L393.152 117L411.09 136.152ZM391.991 152.478L409.478 136.099L393.099 118.613L375.613 134.991L391.991 152.478Z" fill="#3F3D56"/>
</g>
<g id="sqaureThree_3">
<path id="Vector_17" d="M471.183 31.3615L455.411 46.1346L470.184 61.9065L485.956 47.1334L471.183 31.3615Z" fill="#2F2E41"/>
<path id="Vector_18" d="M487.09 29.1516L467.939 47.0903L450 27.9387L469.152 10L487.09 29.1516ZM467.991 45.4777L485.478 29.0988L469.099 11.6126L451.613 27.9915L467.991 45.4777Z" fill="#3F3D56"/>
</g>
<path id="Vector_19" d="M610.76 195.607C615.838 195.607 619.954 191.489 619.954 186.409C619.954 181.329 615.838 177.211 610.76 177.211C605.682 177.211 601.566 181.329 601.566 186.409C601.566 191.489 605.682 195.607 610.76 195.607Z" fill="#E6E6E6"/>
<g id="book">
<path id="Vector_20" d="M572.348 597.274V611.338C572.346 612.736 571.631 614.077 570.361 615.066C569.09 616.055 567.368 616.611 565.571 616.612H491.777C489.98 616.611 488.258 616.055 486.987 615.066C485.717 614.077 485.002 612.736 485 611.338V597.274C485.002 595.876 485.717 594.535 486.987 593.546C488.258 592.558 489.98 592.002 491.777 592H565.571C567.368 592.002 569.09 592.558 570.361 593.546C571.631 594.535 572.346 595.876 572.348 597.274Z" fill="#13334C"/>
<path id="Vector_21" d="M499.307 592.586V616.026H505.331V592.586H499.307Z" fill="#CCCCCC"/>
<path id="Vector_22" d="M545.993 592.586V616.026H552.017V592.586H545.993Z" fill="#CCCCCC"/>
</g>
<path id="Vector_23" d="M578.041 593.43H4.50534C4.1061 593.43 3.72323 593.271 3.44093 592.989C3.15862 592.706 3 592.323 3 591.924C3 591.524 3.15862 591.141 3.44093 590.859C3.72323 590.577 4.1061 590.418 4.50534 590.418H578.041C578.44 590.418 578.823 590.577 579.106 590.859C579.388 591.141 579.547 591.524 579.547 591.924C579.547 592.323 579.388 592.706 579.106 592.989C578.823 593.271 578.44 593.43 578.041 593.43Z" fill="#3F3D56"/>
<path id="Vector_24" d="M302.652 396.144C325.1 396.144 343.297 377.939 343.297 355.482C343.297 333.025 325.1 314.82 302.652 314.82C280.205 314.82 262.008 333.025 262.008 355.482C262.008 377.939 280.205 396.144 302.652 396.144Z" fill="#2F2E41"/>
<path id="Vector_25" d="M264.034 616.511L262.958 598.08L333.507 585.151L335.097 612.356L264.034 616.511Z" fill="#FFB8B8"/>
<path id="Vector_26" d="M267.452 584.606L269.529 620.153L247.157 621.461L243.772 563.533C246.71 563.361 249.653 563.77 252.433 564.736C255.213 565.702 257.776 567.207 259.975 569.163C262.173 571.12 263.965 573.491 265.248 576.141C266.531 578.791 267.28 581.667 267.452 584.606Z" fill="#2F2E41"/>
<path id="Vector_27" d="M294.719 616.342L283 630.605L222.431 592.174L239.726 571.123L294.719 616.342Z" fill="#FFB8B8"/>
<path id="Vector_28" d="M270.556 637.444L293.156 609.936L310.468 624.172L273.639 669C271.365 667.13 269.482 664.831 268.097 662.234C266.711 659.636 265.851 656.791 265.565 653.861C265.279 650.931 265.572 647.973 266.428 645.156C267.285 642.339 268.687 639.719 270.556 637.444Z" fill="#2F2E41"/>
<path id="Vector_29" d="M260.996 550.012L252.988 587.781C252.803 588.65 252.814 589.55 253.018 590.415C253.222 591.28 253.615 592.09 254.169 592.785C254.723 593.48 255.423 594.044 256.221 594.436C257.018 594.829 257.892 595.04 258.781 595.054L337.507 596.324C338.394 596.339 339.274 596.156 340.083 595.791C340.892 595.425 341.61 594.885 342.186 594.21C342.762 593.534 343.181 592.74 343.414 591.883C343.647 591.026 343.688 590.128 343.534 589.254L336.648 550.215C336.402 548.82 335.672 547.557 334.588 546.647C333.504 545.737 332.133 545.238 330.718 545.238H266.886C265.506 545.238 264.168 545.712 263.096 546.581C262.023 547.45 261.282 548.661 260.996 550.012Z" fill="#2F2E41"/>
<path id="Vector_30" d="M274.051 563.31C274.051 563.31 197.278 515.118 182.225 540.72C174.698 553.521 178.461 565.945 184.106 575.17C189.345 583.568 196.865 590.302 205.787 594.584L268.029 625.056L290.609 600.96L275.556 587.406L274.051 563.31Z" fill="#2F2E41"/>
<path id="Vector_31" d="M313.19 555.78C313.19 555.78 412.542 527.166 392.973 581.382C373.403 635.598 299.642 614.514 299.642 614.514L292.115 591.924L317.706 573.852L313.19 555.78Z" fill="#2F2E41"/>
<path id="Vector_32" d="M303.162 401.756C323.582 401.756 340.135 385.196 340.135 364.767C340.135 344.339 323.582 327.779 303.162 327.779C282.742 327.779 266.189 344.339 266.189 364.767C266.189 385.196 282.742 401.756 303.162 401.756Z" fill="#FFB8B8"/>
<path id="Vector_33" d="M305.099 561.757C289.736 561.524 274.451 559.51 259.552 555.753L259.112 555.633L238.48 460.687C236.624 452.344 237.886 443.61 242.028 436.134C246.169 428.658 252.904 422.958 260.959 420.111C285.842 411.179 312.963 410.637 338.183 418.568H338.183C346.645 421.296 353.768 427.116 358.131 434.866C362.493 442.617 363.775 451.728 361.719 460.382L338.675 555.553L338.35 555.708C328.773 560.246 316.798 561.757 305.099 561.757Z" fill="#CCCCCC"/>
<path id="Vector_34" d="M277.386 569.132C278.135 567.049 279.332 565.156 280.891 563.585C282.451 562.015 284.336 560.806 286.414 560.043C288.491 559.28 290.711 558.982 292.916 559.171C295.121 559.359 297.258 560.029 299.176 561.132L339.8 525.855L343.475 553.578L304.335 582.828C302.268 585.929 299.135 588.164 295.531 589.109C291.927 590.054 288.102 589.643 284.78 587.955C281.458 586.267 278.87 583.419 277.508 579.95C276.145 576.48 276.101 572.632 277.386 569.132Z" fill="#FFB8B8"/>
<path id="Vector_35" d="M316.13 576.827C315.469 576.826 314.811 576.73 314.178 576.54C313.15 576.241 312.209 575.7 311.433 574.962C310.657 574.224 310.07 573.311 309.719 572.299L304.815 558.401C304.356 557.116 304.298 555.723 304.648 554.404C304.998 553.086 305.74 551.905 306.776 551.018L362.125 517.774L340.307 420.395L340.862 420.261C341.087 420.205 363.442 415.115 372.603 439.553C379.018 456.669 402.757 493.885 401.083 519.034C400.764 524.065 398.761 528.841 395.395 532.592C392.03 536.344 387.499 538.85 382.534 539.708L320.23 575.42C319.057 576.33 317.615 576.825 316.13 576.827Z" fill="#CCCCCC"/>
<path id="Vector_36" d="M322.338 565.829C321.588 563.746 320.392 561.852 318.832 560.282C317.272 558.711 315.387 557.502 313.309 556.739C311.232 555.977 309.013 555.679 306.808 555.867C304.603 556.055 302.466 556.725 300.547 557.829L259.923 522.552L256.248 550.275L295.389 579.524C297.456 582.625 300.588 584.86 304.192 585.805C307.796 586.75 311.622 586.34 314.944 584.652C318.265 582.964 320.853 580.115 322.216 576.646C323.578 573.177 323.622 569.328 322.338 565.829Z" fill="#FFB8B8"/>
<path id="Vector_37" d="M287.669 576.827C286.185 576.825 284.742 576.33 283.569 575.42L216.75 542.72C211.785 541.862 207.254 539.355 203.888 535.604C200.523 531.853 198.519 527.077 198.201 522.046C196.526 496.897 224.781 456.669 231.196 439.553C240.356 415.115 262.711 420.203 262.938 420.261L263.492 420.395L237.158 520.786L297.023 551.018C298.059 551.905 298.801 553.086 299.151 554.404C299.501 555.723 299.443 557.116 298.984 558.401L294.08 572.299C293.73 573.311 293.142 574.224 292.366 574.962C291.59 575.7 290.649 576.241 289.621 576.54C288.988 576.73 288.33 576.826 287.669 576.827Z" fill="#CCCCCC"/>
<path id="Vector_38" d="M367.382 591.924H233.407C230.613 591.92 227.935 590.809 225.959 588.832C223.984 586.856 222.872 584.177 222.869 581.382V507.588C222.872 504.793 223.984 502.114 225.959 500.137C227.935 498.161 230.613 497.049 233.407 497.046H367.382C370.176 497.049 372.854 498.161 374.83 500.137C376.805 502.114 377.916 504.793 377.92 507.588V581.382C377.916 584.177 376.805 586.856 374.83 588.832C372.854 590.809 370.176 591.92 367.382 591.924Z" fill="#13334C"/>
<path id="Vector_39" d="M300.394 553.521C305.383 553.521 309.426 549.475 309.426 544.485C309.426 539.495 305.383 535.449 300.394 535.449C295.406 535.449 291.362 539.495 291.362 544.485C291.362 549.475 295.406 553.521 300.394 553.521Z" fill="white"/>
<path id="Vector_40" d="M265.819 363.262C263.627 357.701 267.223 351.075 272.556 348.381C277.89 345.688 284.326 346.2 290.031 347.975C294.825 349.467 299.318 351.779 303.995 353.605C308.607 355.649 313.644 356.547 318.677 356.221C323.666 355.657 328.632 352.858 330.673 348.269C332.789 343.512 331.35 337.707 328.091 333.648C324.624 329.723 320.136 326.838 315.128 325.312C304.127 321.435 291.421 321.322 281.209 326.958C270.996 332.593 264.056 344.593 266.167 356.069" fill="#2F2E41"/>
<path id="Vector_41" d="M52.1684 575.837C54.0282 555.799 59.1648 536.203 67.3731 517.831C69.6609 512.718 72.1789 507.718 74.9271 502.83C75.065 502.574 75.0982 502.275 75.0198 501.995C74.9414 501.716 74.7574 501.477 74.5067 501.331C74.2561 501.184 73.9584 501.141 73.6763 501.21C73.3943 501.278 73.15 501.454 72.995 501.7C63.0006 519.502 55.9989 538.827 52.2697 558.901C51.2324 564.507 50.4527 570.152 49.9307 575.837C49.7981 577.271 52.0366 577.262 52.1684 575.837Z" fill="#E6E6E6"/>
<path id="Vector_42" d="M80.3467 506.42C88.1736 506.42 94.5186 500.072 94.5186 492.242C94.5186 484.412 88.1736 478.064 80.3467 478.064C72.5198 478.064 66.1748 484.412 66.1748 492.242C66.1748 500.072 72.5198 506.42 80.3467 506.42Z" fill="#13334C"/>
<path id="Vector_43" d="M53.6179 576.214C54.8244 563.215 58.1568 550.501 63.4819 538.582C64.9661 535.265 66.5996 532.021 68.3826 528.851C68.472 528.685 68.4935 528.491 68.4426 528.309C68.3917 528.128 68.2724 527.973 68.1098 527.878C67.9472 527.783 67.7541 527.755 67.5711 527.8C67.3881 527.844 67.2297 527.958 67.1291 528.118C60.6453 539.667 56.1029 552.204 53.6837 565.227C53.0107 568.863 52.5049 572.526 52.1663 576.214C52.0802 577.144 53.5325 577.138 53.618 576.214H53.6179Z" fill="#E6E6E6"/>
<path id="Vector_44" d="M71.8987 531.18C76.9764 531.18 81.0927 527.062 81.0927 521.982C81.0927 516.902 76.9764 512.784 71.8987 512.784C66.821 512.784 62.7047 516.902 62.7047 521.982C62.7047 527.062 66.821 531.18 71.8987 531.18Z" fill="#13334C"/>
<path id="Vector_45" d="M51.7858 575.346C44.7451 564.354 39.5566 552.279 36.4276 539.604C35.5586 536.076 34.8523 532.513 34.3087 528.916C34.2773 528.73 34.175 528.563 34.0233 528.452C33.8716 528.34 33.6825 528.291 33.4958 528.316C33.3091 528.341 33.1395 528.438 33.0227 528.586C32.9058 528.734 32.851 528.921 32.8697 529.109C34.8577 542.205 38.9836 554.885 45.0826 566.642C46.7879 569.924 48.6407 573.123 50.6412 576.239C51.1452 577.025 52.2867 576.127 51.7858 575.346Z" fill="#E6E6E6"/>
<path id="Vector_46" d="M32.858 530.534C37.9357 530.534 42.052 526.416 42.052 521.336C42.052 516.256 37.9357 512.138 32.858 512.138C27.7803 512.138 23.6641 516.256 23.6641 521.336C23.6641 526.416 27.7803 530.534 32.858 530.534Z" fill="#13334C"/>
<path id="Vector_47" d="M23.5609 583.484V565.412C23.5629 563.615 24.2773 561.892 25.5472 560.622C26.8172 559.351 28.539 558.637 30.335 558.635H72.4846C74.2805 558.637 76.0023 559.351 77.2723 560.622C78.5422 561.892 79.2566 563.615 79.2586 565.412V583.484C79.2566 585.28 78.5422 587.003 77.2723 588.273C76.0023 589.544 74.2805 590.259 72.4846 590.261H30.335C28.539 590.259 26.8172 589.544 25.5472 588.273C24.2773 587.003 23.5629 585.28 23.5609 583.484Z" fill="#F2F2F2"/>
<g id="lampLight">
<path id="Vector_48" d="M332.666 221.424C334.789 208.34 325.904 196.012 312.82 193.889C299.737 191.765 287.409 200.651 285.285 213.734C283.162 226.818 292.047 239.146 305.131 241.27C318.215 243.393 330.543 234.508 332.666 221.424Z" fill="white"/>
<path id="Vector_49" d="M240.068 223C235.301 222.984 231.449 219.107 231.465 214.339C231.466 213.994 231.488 213.65 231.53 213.308C236.195 173.7 269.084 143 308.964 143C348.844 143 381.733 173.7 386.397 213.308C386.983 218.039 383.623 222.349 378.892 222.935C378.548 222.978 378.203 222.999 377.857 223H240.068Z" fill="#F7B66F"/>
<path id="Vector_50" d="M320.964 143.944C320.706 143.903 320.445 143.874 320.186 143.836C319.277 143.702 318.363 143.581 317.444 143.479C317.026 143.432 316.607 143.394 316.187 143.354C315.425 143.282 314.662 143.217 313.898 143.173C313.454 143.147 313.013 143.114 312.568 143.093C311.373 143.037 310.168 143 308.968 143C307.768 143 306.568 143.036 305.38 143.093C304.831 143.119 304.286 143.162 303.74 143.199C303.15 143.24 302.56 143.282 301.973 143.337C301.253 143.402 300.537 143.48 299.823 143.566C299.474 143.608 299.123 143.655 298.779 143.702C262.755 148.525 234.452 178.538 231.267 215.951C230.952 219.515 233.585 222.659 237.149 222.975C237.335 222.991 237.521 223 237.707 223H380.225C383.787 223.01 386.682 220.132 386.693 216.57C386.694 216.398 386.687 216.227 386.674 216.056C383.586 179.22 356.157 149.518 320.964 143.944ZM257.988 200.929C264.893 175.839 283.668 155.733 308.228 147.129C332.81 155.716 351.609 175.825 358.522 200.929C360.073 206.667 356.68 212.576 350.942 214.127C350.015 214.378 349.058 214.503 348.098 214.5H268.413C262.47 214.521 257.635 209.72 257.615 203.776C257.611 202.815 257.737 201.857 257.988 200.929Z" fill="#EFAA65"/>
<g id="Group">
<path id="Vector_51" d="M240.135 226C240.132 226 240.13 226 240.127 226C237.004 225.991 234.072 224.768 231.871 222.553C229.669 220.339 228.461 217.4 228.47 214.278C228.471 213.81 228.501 213.337 228.559 212.872C233.487 171.335 268.055 140 308.964 140C349.875 140 384.442 171.335 389.368 212.888C389.751 215.97 388.906 219.033 386.986 221.495C385.067 223.958 382.304 225.526 379.205 225.911C378.741 225.969 378.267 225.998 377.798 226H240.135ZM240.135 220H377.789C378.01 220 378.239 219.985 378.467 219.957C379.975 219.769 381.32 219.006 382.254 217.808C383.188 216.61 383.599 215.119 383.411 213.612C378.841 175.059 346.836 146 308.964 146C271.093 146 239.087 175.06 234.514 213.595C234.484 213.838 234.47 214.066 234.469 214.295C234.465 215.815 235.053 217.245 236.124 218.323C237.194 219.399 238.619 219.995 240.137 220.001H240.135V220Z" fill="#283035"/>
</g>
<g id="Group_2">
<path id="Vector_52" d="M311.964 14H305.964V143H311.964V14Z" fill="#283035"/>
</g>
</g>
<g id="shadow">
<path id="Vector_53" opacity="0.43" d="M617.928 715.562H0L230.971 215.676H386.957L617.928 715.562Z" fill="url(#paint0_linear)"/>
</g>
<g id="notebook">
<path id="Vector_54" d="M120.288 551.416H154.291C156.488 551.416 158.268 553.197 158.268 555.393V604.256C158.268 606.452 156.488 608.233 154.291 608.233H120.288C118.092 608.233 116.311 606.452 116.311 604.256V555.393C116.311 553.197 118.092 551.416 120.288 551.416Z" fill="#E5E5E5"/>
<path id="Vector_55" d="M154.291 551.416H153.787C153.86 551.717 153.897 552.025 153.898 552.334V601.196C153.898 603.393 152.117 605.174 149.921 605.174H116.424C116.849 606.966 118.449 608.232 120.291 608.233H154.294C156.49 608.233 158.271 606.452 158.271 604.256V555.393C158.271 553.197 156.49 551.416 154.294 551.416C154.293 551.416 154.292 551.416 154.291 551.416Z" fill="#CFD1D0"/>
<g id="Group_3">
<path id="Vector_56" d="M154.291 609.544H120.288C117.372 609.544 115 607.172 115 604.256V555.393C115 552.477 117.372 550.104 120.288 550.104H154.291C157.207 550.104 159.58 552.477 159.58 555.393V604.256C159.58 607.172 157.207 609.544 154.291 609.544ZM120.288 552.727C118.819 552.727 117.622 553.923 117.622 555.394V604.256C117.622 605.726 118.818 606.922 120.288 606.922H154.291C155.761 606.922 156.958 605.727 156.958 604.256V555.394C156.958 553.923 155.762 552.727 154.291 552.727H120.288Z" fill="#283035"/>
</g>
<path id="Vector_57" d="M144.283 548.119H140.786V546.808C140.786 544.877 139.221 543.311 137.29 543.311C135.359 543.311 133.793 544.877 133.793 546.808V548.119H130.297C128.366 548.119 126.8 549.684 126.8 551.615C126.8 553.546 128.366 555.112 130.297 555.112H144.283C146.213 555.112 147.779 553.546 147.779 551.615C147.779 549.684 146.213 548.119 144.283 548.119Z" fill="#F7B66F"/>
<path id="Vector_58" d="M145.907 548.521C146.416 550.378 145.323 552.294 143.466 552.803C143.163 552.886 142.849 552.927 142.534 552.926H128.549C127.983 552.927 127.425 552.789 126.924 552.525C127.335 554.05 128.717 555.11 130.297 555.112H144.283C146.214 555.11 147.778 553.543 147.776 551.612C147.774 550.315 147.055 549.125 145.907 548.521Z" fill="#EDA762"/>
<path id="Vector_59" d="M139.038 544.622V545.934H140.672C140.425 544.979 139.787 544.173 138.914 543.713C138.996 544.01 139.037 544.315 139.038 544.622Z" fill="#EDA762"/>
<g id="Group_4">
<path id="Vector_60" d="M144.283 556.423H130.297C127.646 556.423 125.489 554.266 125.489 551.615C125.489 548.964 127.646 546.808 130.297 546.808H132.482C132.482 544.157 134.639 542 137.29 542C139.94 542 142.097 544.157 142.097 546.808H144.283C146.933 546.808 149.09 548.964 149.09 551.615C149.09 554.266 146.934 556.423 144.283 556.423ZM130.297 549.43C129.092 549.43 128.112 550.41 128.112 551.615C128.112 552.82 129.092 553.8 130.297 553.8H144.283C145.488 553.8 146.468 552.82 146.468 551.615C146.468 550.41 145.488 549.43 144.283 549.43H140.786C140.062 549.43 139.475 548.843 139.475 548.119V546.808C139.475 545.603 138.495 544.622 137.29 544.622C136.085 544.622 135.104 545.603 135.104 546.808V548.119C135.104 548.843 134.517 549.43 133.793 549.43H130.297Z" fill="#283035"/>
</g>
<path id="Vector_61" d="M137.29 567.786C139.301 567.786 140.932 566.156 140.932 564.144C140.932 562.133 139.301 560.502 137.29 560.502C135.278 560.502 133.648 562.133 133.648 564.144C133.648 566.156 135.278 567.786 137.29 567.786Z" fill="#8EAFBF"/>
<g id="Group_5">
<path id="Vector_62" d="M137.29 569.097C134.559 569.097 132.337 566.875 132.337 564.144C132.337 561.413 134.559 559.191 137.29 559.191C140.021 559.191 142.243 561.413 142.243 564.144C142.243 566.875 140.021 569.097 137.29 569.097ZM137.29 561.814C136.005 561.814 134.959 562.859 134.959 564.144C134.959 565.429 136.005 566.475 137.29 566.475C138.575 566.475 139.621 565.429 139.621 564.144C139.621 562.859 138.575 561.814 137.29 561.814Z" fill="#283035"/>
</g>
<g id="notebookTicks">
<g id="Group_6">
<path id="Vector_63" d="M132.143 576.673H123.401C122.677 576.673 122.09 576.086 122.09 575.362C122.09 574.638 122.677 574.051 123.401 574.051H132.143C132.867 574.051 133.454 574.638 133.454 575.362C133.454 576.086 132.867 576.673 132.143 576.673Z" fill="#283035"/>
</g>
<g id="Group_7">
<path id="Vector_64" d="M132.143 588.546H123.401C122.677 588.546 122.09 587.959 122.09 587.235C122.09 586.511 122.677 585.924 123.401 585.924H132.143C132.867 585.924 133.454 586.511 133.454 587.235C133.454 587.959 132.867 588.546 132.143 588.546Z" fill="#283035"/>
</g>
<g id="Group_8">
<path id="Vector_65" d="M132.143 600.42H123.401C122.677 600.42 122.09 599.833 122.09 599.109C122.09 598.384 122.677 597.797 123.401 597.797H132.143C132.867 597.797 133.454 598.384 133.454 599.109C133.454 599.833 132.867 600.42 132.143 600.42Z" fill="#283035"/>
</g>
<g id="Group_9">
<path id="Vector_66" d="M140.198 578.8C139.932 578.8 139.67 578.679 139.498 578.451L137.219 575.42C136.929 575.034 137.007 574.486 137.392 574.196C137.779 573.906 138.326 573.984 138.616 574.369L140.37 576.701L146.491 572.1C146.878 571.81 147.426 571.888 147.715 572.273C148.005 572.659 147.928 573.207 147.542 573.497L140.722 578.623C140.564 578.742 140.38 578.8 140.198 578.8Z" fill="#8BAFC1"/>
</g>
<g id="Group_10">
<path id="Vector_67" d="M140.197 590.673C140.155 590.673 140.114 590.67 140.074 590.664C139.845 590.632 139.637 590.51 139.498 590.324L137.219 587.292C136.929 586.906 137.007 586.358 137.392 586.068C137.779 585.778 138.327 585.856 138.617 586.241L140.37 588.574L146.491 583.973C146.878 583.683 147.426 583.761 147.716 584.146C148.006 584.531 147.928 585.08 147.543 585.37L140.723 590.497C140.569 590.612 140.385 590.673 140.197 590.673Z" fill="#8BAFC1"/>
</g>
</g>
<g id="pen">
<path id="Vector_68" d="M162.607 575.758L158.278 576.36L162.133 604.066L166.462 603.464L162.607 575.758Z" fill="#3BBC88"/>
<g id="Group_11">
<path id="Vector_69" d="M162.123 604.917C161.934 604.917 161.749 604.856 161.596 604.741C161.411 604.601 161.289 604.393 161.258 604.164L157.403 576.459C157.371 576.23 157.431 575.997 157.571 575.812C157.711 575.627 157.919 575.505 158.148 575.474L162.477 574.871C162.95 574.801 163.396 575.138 163.463 575.616L167.317 603.321C167.384 603.799 167.051 604.24 166.572 604.307L162.244 604.91C162.203 604.915 162.163 604.917 162.123 604.917ZM159.254 577.084L162.868 603.057L165.465 602.695L161.851 576.723L159.254 577.084Z" fill="#283035"/>
</g>
<path id="Vector_70" d="M166.453 603.44L162.124 604.042L164.891 608.07L166.453 603.44Z" fill="#E5E5E5"/>
<g id="Group_12">
<path id="Vector_71" d="M164.891 608.944C164.605 608.944 164.335 608.804 164.17 608.565L161.404 604.538C161.232 604.288 161.202 603.967 161.324 603.69C161.447 603.413 161.704 603.219 162.004 603.177L166.333 602.575C166.632 602.531 166.933 602.65 167.126 602.883C167.319 603.116 167.378 603.433 167.281 603.72L165.719 608.35C165.613 608.663 165.339 608.89 165.011 608.936C164.971 608.941 164.93 608.944 164.891 608.944ZM163.645 604.713L164.621 606.134L165.172 604.501L163.645 604.713Z" fill="#283035"/>
</g>
<path id="Vector_72" d="M160.999 571.313L158.403 571.675L159.007 576.002L161.603 575.64L160.999 571.313Z" fill="#E5E5E5"/>
<g id="Group_13">
<path id="Vector_73" d="M159.005 576.898C158.816 576.898 158.631 576.836 158.478 576.721C158.293 576.582 158.171 576.374 158.139 576.145L157.536 571.818C157.47 571.34 157.803 570.899 158.281 570.832L160.877 570.47C161.356 570.406 161.796 570.737 161.863 571.215L162.466 575.541C162.499 575.771 162.438 576.004 162.298 576.189C162.159 576.373 161.951 576.495 161.722 576.527L159.126 576.889C159.085 576.895 159.045 576.898 159.005 576.898ZM159.388 572.442L159.75 575.038L160.615 574.917L160.253 572.322L159.388 572.442Z" fill="#283035"/>
</g>
<g id="Group_14">
<path id="Vector_74" d="M166.512 587.542C166.216 587.542 165.928 587.393 165.763 587.122C165.221 586.227 164.839 585.253 164.629 584.228C164.349 582.857 164.558 581.792 164.725 580.935C164.877 580.159 164.947 579.736 164.761 579.346C164.732 579.284 164.703 579.221 164.675 579.155C164.505 578.768 164.372 578.463 163.113 578.281C162.635 578.212 162.304 577.769 162.373 577.29C162.443 576.812 162.884 576.484 163.363 576.55C165.412 576.846 165.942 577.689 166.277 578.454C166.298 578.501 166.318 578.548 166.339 578.592C166.783 579.522 166.609 580.41 166.441 581.27C166.29 582.046 166.133 582.849 166.342 583.878C166.511 584.705 166.82 585.491 167.258 586.214C167.509 586.627 167.377 587.165 166.965 587.415C166.822 587.501 166.666 587.542 166.512 587.542Z" fill="#283035"/>
</g>
</g>
</g>
<g id="coffeCup">
<g id="cupStraw">
<path id="Vector_75" d="M439.764 551.2C439.639 551.2 439.512 551.187 439.384 551.161C438.387 550.951 437.749 549.974 437.958 548.977L441.569 531.769C441.717 531.063 442.263 530.508 442.966 530.349L461.945 526.046C462.939 525.821 463.927 526.444 464.152 527.437C464.377 528.43 463.754 529.418 462.761 529.643L444.935 533.685L441.567 549.735C441.385 550.603 440.618 551.2 439.764 551.2Z" fill="#283035"/>
</g>
<path id="Vector_76" d="M426.343 615.289H448.98C450.604 615.289 451.975 614.082 452.181 612.47L458.227 565.03H417.097L423.144 612.47C423.349 614.081 424.719 615.288 426.343 615.289Z" fill="#EDA762"/>
<path id="Vector_77" d="M423.389 565.031L428.187 608.845C428.391 610.711 429.968 612.124 431.845 612.124H452.228L452.184 612.47C451.978 614.082 450.607 615.289 448.982 615.289H426.346C424.721 615.289 423.35 614.081 423.145 612.47L417.097 565.031H423.389Z" fill="#FDD2A7"/>
<g id="Group_15">
<path id="Vector_78" d="M448.98 616.672H426.343C426.343 616.672 426.343 616.672 426.342 616.672C424.029 616.671 422.065 614.939 421.772 612.645L415.725 565.205C415.675 564.811 415.797 564.414 416.059 564.116C416.322 563.818 416.7 563.647 417.097 563.647H458.228C458.625 563.647 459.003 563.817 459.266 564.116C459.528 564.414 459.65 564.811 459.6 565.205L453.553 612.645C453.261 614.941 451.295 616.672 448.98 616.672ZM426.345 613.906H448.98C449.906 613.906 450.693 613.214 450.81 612.295L456.658 566.413H418.668L424.517 612.295C424.633 613.213 425.419 613.905 426.345 613.906Z" fill="#283035"/>
</g>
<path id="Vector_79" d="M456.677 601.632L459.601 578.688H415.723L418.647 601.632H456.677Z" fill="#5CBF84"/>
<path id="Vector_80" d="M456.677 601.632L459.601 578.688H415.723L418.647 601.632H456.677Z" fill="#4FB277"/>
<path id="Vector_81" d="M456.495 598.981L458.947 578.688H422.153L424.412 597.371C424.523 598.29 425.304 598.981 426.229 598.981H456.495Z" fill="#5CBF84"/>
<g id="Group_16">
<path id="Vector_82" d="M456.677 603.015H418.648C417.951 603.015 417.364 602.497 417.276 601.807L414.351 578.862C414.301 578.468 414.423 578.071 414.685 577.774C414.948 577.475 415.326 577.304 415.723 577.304H459.601C459.998 577.304 460.377 577.475 460.639 577.774C460.901 578.071 461.023 578.468 460.973 578.862L458.049 601.807C457.961 602.497 457.373 603.015 456.677 603.015ZM419.866 600.249H455.459L458.03 580.071H417.294L419.866 600.249Z" fill="#283035"/>
</g>
<path id="Vector_83" d="M460.87 565.03H414.454C411.654 565.03 409.383 562.76 409.383 559.959C409.383 557.158 411.654 554.888 414.454 554.888H460.87C463.671 554.888 465.942 557.158 465.942 559.959C465.942 562.76 463.671 565.03 460.87 565.03Z" fill="#5CBF84"/>
<path id="Vector_84" d="M460.87 565.03H414.454C411.654 565.03 409.383 562.76 409.383 559.959C409.383 557.158 411.654 554.888 414.454 554.888H460.87C463.671 554.888 465.942 557.158 465.942 559.959C465.942 562.76 463.671 565.03 460.87 565.03Z" fill="#4FB277"/>
<path id="Vector_85" d="M461.965 562.84H419.699C417.503 562.84 415.723 561.06 415.723 558.864C415.723 556.668 417.503 554.888 419.699 554.888H461.965C464.161 554.888 465.941 556.668 465.941 558.864C465.941 561.06 464.161 562.84 461.965 562.84Z" fill="#5CBF84"/>
<g id="Group_17">
<path id="Vector_86" d="M460.87 566.413H414.454C410.895 566.413 408 563.518 408 559.959C408 556.4 410.895 553.504 414.454 553.504H460.87C464.429 553.504 467.325 556.4 467.325 559.959C467.325 563.518 464.429 566.413 460.87 566.413ZM414.454 556.271C412.421 556.271 410.766 557.925 410.766 559.959C410.766 561.993 412.421 563.647 414.454 563.647H460.87C462.904 563.647 464.559 561.993 464.559 559.959C464.559 557.925 462.904 556.271 460.87 556.271H414.454Z" fill="#283035"/>
</g>
<path id="Vector_87" d="M419.22 554.888H456.103L455.373 549.356H419.951L419.22 554.888Z" fill="#5CBF84"/>
<path id="Vector_88" d="M419.951 549.356H430.772L428.211 554.888H419.22L419.951 549.356Z" fill="#54AF79"/>
<g id="Group_18">
<path id="Vector_89" d="M456.103 556.271H419.221C418.822 556.271 418.443 556.099 418.18 555.8C417.918 555.501 417.797 555.102 417.849 554.707L418.58 549.175C418.671 548.487 419.257 547.973 419.951 547.973H455.373C456.067 547.973 456.654 548.487 456.744 549.175L457.474 554.707C457.526 555.102 457.406 555.501 457.143 555.8C456.88 556.1 456.502 556.271 456.103 556.271ZM420.798 553.505H454.526L454.16 550.739H421.163L420.798 553.505Z" fill="#283035"/>
</g>
<g id="Group_19">
<path id="Vector_90" d="M437.546 595.88C433.194 595.88 428.842 594.503 425.224 591.749L424.735 592.224C424.462 592.49 424.024 592.485 423.758 592.211C423.491 591.937 423.498 591.499 423.771 591.233L424.693 590.336C424.944 590.092 425.338 590.074 425.61 590.295C432.526 595.9 442.565 595.9 449.48 590.295C449.753 590.073 450.148 590.092 450.399 590.338L451.552 591.464C451.825 591.731 451.83 592.169 451.563 592.442C451.296 592.715 450.858 592.72 450.585 592.453L449.866 591.75C446.249 594.503 441.897 595.88 437.546 595.88Z" fill="#283035"/>
</g>
<g id="cupEyes">
<g id="Group_20">
<path id="Vector_91" d="M430.772 589.579C430.39 589.579 430.081 589.27 430.081 588.888V587.08C430.081 585.61 431.276 584.415 432.746 584.415C434.216 584.415 435.411 585.611 435.411 587.08C435.411 587.462 435.102 587.772 434.72 587.772C434.338 587.772 434.028 587.462 434.028 587.08C434.028 586.373 433.453 585.798 432.746 585.798C432.039 585.798 431.464 586.373 431.464 587.08V588.888C431.464 589.27 431.155 589.579 430.772 589.579Z" fill="#283035"/>
</g>
<g id="Group_21">
<path id="Vector_92" d="M444.552 589.579C444.169 589.579 443.86 589.27 443.86 588.888V587.08C443.86 586.373 443.285 585.799 442.578 585.799C441.871 585.799 441.296 586.373 441.296 587.08C441.296 587.462 440.986 587.772 440.604 587.772C440.222 587.772 439.913 587.462 439.913 587.08C439.913 585.61 441.108 584.415 442.578 584.415C444.048 584.415 445.243 585.611 445.243 587.08V588.888C445.243 589.27 444.934 589.579 444.552 589.579Z" fill="#283035"/>
</g>
</g>
</g>
<g id="codeScreen">
<path id="Vector_93" opacity="0.14" d="M410.811 403.949H494.391C496.823 403.949 498.795 405.921 498.795 408.353V473.235C498.795 475.668 496.823 477.639 494.391 477.639H410.811C408.379 477.639 406.407 475.668 406.407 473.235V408.353C406.407 405.921 408.379 403.949 410.811 403.949Z" fill="black"/>
<path id="Vector_94" d="M406.504 400.1H490.083C492.516 400.1 494.487 402.071 494.487 404.504V469.386C494.487 471.818 492.516 473.79 490.083 473.79H406.504C404.071 473.79 402.1 471.818 402.1 469.386V404.504C402.1 402.071 404.071 400.1 406.504 400.1Z" fill="#353F49"/>
<g id="Group_22">
<path id="Vector_95" d="M490.083 474.89H406.504C403.469 474.89 401 472.421 401 469.386V404.504C401 401.469 403.469 399 406.504 399H490.083C493.118 399 495.587 401.469 495.587 404.504V469.386C495.587 472.421 493.118 474.89 490.083 474.89ZM406.504 401.2C404.682 401.2 403.2 402.682 403.2 404.504V469.386C403.2 471.207 404.682 472.69 406.504 472.69H490.083C491.905 472.69 493.387 471.208 493.387 469.386V404.504C493.387 402.682 491.905 401.2 490.083 401.2H406.504Z" fill="#283035"/>
</g>
<path id="Vector_96" d="M406.503 400.1H490.083C492.516 400.1 494.487 402.071 494.487 404.504V411.098H402.1V404.504C402.1 402.072 404.071 400.1 406.503 400.1Z" fill="#EAEEEF"/>
<g id="Group_23">
<path id="Vector_97" d="M494.487 412.198H402.1C401.493 412.198 401 411.705 401 411.098V404.504C401 401.469 403.469 399.001 406.503 399H490.083C493.118 399 495.587 401.469 495.587 404.504V411.098C495.587 411.706 495.094 412.198 494.487 412.198ZM403.2 409.998H493.387V404.504C493.387 402.682 491.905 401.2 490.083 401.2H406.503C404.682 401.2 403.2 402.682 403.2 404.504V409.998Z" fill="#283035"/>
</g>
<path id="Vector_98" opacity="0.35" d="M409.982 407.318C410.931 407.318 411.7 406.548 411.7 405.599C411.7 404.65 410.931 403.881 409.982 403.881C409.033 403.881 408.263 404.65 408.263 405.599C408.263 406.548 409.033 407.318 409.982 407.318Z" fill="#283035"/>
<path id="Vector_99" opacity="0.35" d="M415.389 407.318C416.338 407.318 417.108 406.548 417.108 405.599C417.108 404.65 416.338 403.881 415.389 403.881C414.44 403.881 413.671 404.65 413.671 405.599C413.671 406.548 414.44 407.318 415.389 407.318Z" fill="#283035"/>
<path id="Vector_100" opacity="0.35" d="M420.522 407.318C421.472 407.318 422.241 406.548 422.241 405.599C422.241 404.65 421.472 403.881 420.522 403.881C419.573 403.881 418.804 404.65 418.804 405.599C418.804 406.548 419.573 407.318 420.522 407.318Z" fill="#283035"/>
<g id="codeBars">
<g id="Group_24">
<path id="Vector_101" d="M412.457 414.123H406.407V415.773H412.457V414.123Z" fill="#46BB86"/>
</g>
<g id="Group_25">
<path id="Vector_102" d="M431.154 414.123H414.656V415.773H431.154V414.123Z" fill="#46BB86"/>
</g>
<g id="Group_26">
<path id="Vector_103" d="M431.246 443.544H414.748V445.194H431.246V443.544Z" fill="#46BB86"/>
</g>
<g id="Group_27">
<path id="Vector_104" d="M431.154 418.522H406.407V420.172H431.154V418.522Z" fill="#389ABE"/>
</g>
<g id="Group_28">
<path id="Vector_105" d="M431.246 447.943H406.5V449.593H431.246V447.943Z" fill="#389ABE"/>
</g>
<g id="Group_29">
<path id="Vector_106" d="M423.456 422.922H411.357V424.571H423.456V422.922Z" fill="#E5C689"/>
</g>
<g id="Group_30">
<path id="Vector_107" d="M423.547 452.343H411.448V453.992H423.547V452.343Z" fill="#E5C689"/>
</g>
<g id="Group_31">
<path id="Vector_108" d="M438.853 422.922H425.655V424.571H438.853V422.922Z" fill="#F2F3F4"/>
</g>
<g id="Group_32">
<path id="Vector_109" d="M438.945 452.343H425.747V453.992H438.945V452.343Z" fill="#F2F3F4"/>
</g>
<g id="Group_33">
<path id="Vector_110" d="M443.252 427.321H417.956V428.971H443.252V427.321Z" fill="#F2F3F4"/>
</g>
<g id="Group_34">
<path id="Vector_111" d="M443.344 456.742H418.048V458.392H443.344V456.742Z" fill="#F2F3F4"/>
</g>
<g id="Group_35">
<path id="Vector_112" d="M436.653 431.72H417.956V433.37H436.653V431.72Z" fill="#FFA49F"/>
</g>
<g id="Group_36">
<path id="Vector_113" d="M436.745 461.141H418.048V462.791H436.745V461.141Z" fill="#FFA49F"/>
</g>
<g id="Group_37">
<path id="Vector_114" d="M438.853 436.12H411.357V437.77H438.853V436.12Z" fill="#F2F3F4"/>
</g>
<g id="Group_38">
<path id="Vector_115" d="M438.945 465.541H411.448V467.191H438.945V465.541Z" fill="#F2F3F4"/>
</g>
<g id="Group_39">
<path id="Vector_116" d="M421.255 439.969H406.407V441.619H421.255V439.969Z" fill="#389ABE"/>
</g>
<g id="Group_40">
<path id="Vector_117" d="M421.348 469.39H406.5V471.04H421.348V469.39Z" fill="#389ABE"/>
</g>
</g>
</g>
<g id="controlPanel" clip-path="url(#clip0)">
<path id="Vector_118" opacity="0.5" d="M217 326.389H108V261.611H217V326.389Z" fill="url(#paint1_linear)"/>
<path id="Vector_119" d="M211.046 325.275H113.954C111.193 325.275 108.954 323.036 108.954 320.275V267.726C108.954 264.965 111.193 262.726 113.954 262.726H211.046C213.808 262.726 216.046 264.965 216.046 267.726V320.275C216.046 323.036 213.808 325.275 211.046 325.275Z" fill="white" stroke="#13334C" stroke-width="2"/>
<path id="Vector_120" d="M169.586 315.139H113.859V313.271H169.586V315.139Z" fill="#F5F5F5"/>
<path id="ballSix" opacity="0.5" d="M141.653 311.805C143.007 311.805 144.105 312.879 144.105 314.205C144.105 315.53 143.007 316.605 141.653 316.605C140.299 316.605 139.201 315.53 139.201 314.205C139.201 312.879 140.299 311.805 141.653 311.805Z" fill="#13334C"/>
<path id="Vector_121" d="M169.586 306.604H113.859V304.736H169.586V306.604Z" fill="#F5F5F5"/>
<path id="ballFive" opacity="0.5" d="M124.486 303.27C125.84 303.27 126.938 304.345 126.938 305.67C126.938 306.995 125.84 308.07 124.486 308.07C123.132 308.07 122.034 306.995 122.034 305.67C122.034 304.345 123.132 303.27 124.486 303.27Z" fill="#13334C"/>
<path id="Vector_122" d="M169.586 298.067H113.859V296.2H169.586V298.067Z" fill="#F5F5F5"/>
<path id="ballFour" d="M161.001 294.734C162.356 294.734 163.453 295.808 163.453 297.134C163.453 298.459 162.356 299.534 161.001 299.534C159.647 299.534 158.55 298.459 158.55 297.134C158.55 295.808 159.647 294.734 161.001 294.734Z" fill="#13334C"/>
<path id="Vector_123" d="M169.586 289.533H113.859V287.665H169.586V289.533Z" fill="#F5F5F5"/>
<path id="ballThree" d="M135.114 286.199C136.468 286.199 137.565 287.273 137.565 288.599C137.565 289.924 136.468 290.999 135.114 290.999C133.759 290.999 132.662 289.924 132.662 288.599C132.662 287.273 133.759 286.199 135.114 286.199Z" fill="#13334C"/>
<path id="Vector_124" d="M169.586 280.996H113.859V279.129H169.586V280.996Z" fill="#F5F5F5"/>
<path id="ballTwo" opacity="0.5" d="M118.355 277.663C119.709 277.663 120.807 278.737 120.807 280.063C120.807 281.388 119.709 282.463 118.355 282.463C117.001 282.463 115.903 281.388 115.903 280.063C115.903 278.737 117.001 277.663 118.355 277.663Z" fill="#13334C"/>
<path id="Vector_125" d="M169.586 272.461H113.859V270.594H169.586V272.461Z" fill="#F5F5F5"/>
<path id="ballOne" d="M152.282 269.127C153.636 269.127 154.734 270.202 154.734 271.527C154.734 272.853 153.636 273.927 152.282 273.927C150.928 273.927 149.83 272.853 149.83 271.527C149.83 270.202 150.928 269.127 152.282 269.127Z" fill="#13334C"/>
<path id="Vector_126" opacity="0.5" d="M186.071 292.161H177.351V286.369H186.071V292.161Z" fill="url(#paint2_linear)"/>
<path id="Vector_127" opacity="0.5" d="M197.788 292.161H189.069V286.369H197.788V292.161Z" fill="url(#paint3_linear)"/>
<path id="Vector_128" opacity="0.5" d="M209.506 292.161H200.787V286.369H209.506V292.161Z" fill="url(#paint4_linear)"/>
<path id="Vector_129" opacity="0.5" d="M186.071 283.359H177.351V277.566H186.071V283.359Z" fill="url(#paint5_linear)"/>
<path id="Vector_130" opacity="0.5" d="M197.788 283.359H189.069V277.566H197.788V283.359Z" fill="url(#paint6_linear)"/>
<path id="Vector_131" opacity="0.5" d="M209.506 283.359H200.787V277.566H209.506V283.359Z" fill="url(#paint7_linear)"/>
<path id="Vector_132" opacity="0.5" d="M186.071 274.557H177.351V268.765H186.071V274.557Z" fill="url(#paint8_linear)"/>
<path id="Vector_133" opacity="0.5" d="M197.788 274.557H189.069V268.765H197.788V274.557Z" fill="url(#paint9_linear)"/>
<path id="Vector_134" opacity="0.5" d="M209.506 274.557H200.787V268.765H209.506V274.557Z" fill="url(#paint10_linear)"/>
<path id="Vector_135" d="M185.527 291.8H177.896V286.732H185.527V291.8Z" fill="#13334C"/>
<path id="Vector_136" d="M197.245 291.8H189.614V286.732H197.245V291.8Z" fill="#13334C"/>
<path id="Vector_137" opacity="0.5" d="M208.961 291.8H201.331V286.732H208.961V291.8Z" fill="#13334C"/>
<path id="Vector_138" d="M185.527 282.997H177.896V277.93H185.527V282.997Z" fill="#13334C"/>
<path id="Vector_139" d="M197.245 282.997H189.614V277.93H197.245V282.997Z" fill="#13334C"/>
<path id="Vector_140" opacity="0.5" d="M208.961 282.997H201.331V277.93H208.961V282.997Z" fill="#13334C"/>
<path id="Vector_141" d="M185.527 274.195H177.896V269.127H185.527V274.195Z" fill="#13334C"/>
<path id="Vector_142" opacity="0.5" d="M197.245 274.195H189.614V269.127H197.245V274.195Z" fill="#13334C"/>
<path id="Vector_143" opacity="0.5" d="M208.961 274.195H201.331V269.127H208.961V274.195Z" fill="#3AD29F"/>
<g id="screwDriver">
<path id="Vector_144" opacity="0.5" d="M153.627 258.064C152.861 258.064 152.293 257.939 151.889 257.251H135.462V258.984C135.462 259.434 134.874 259.265 134.487 259.265H134.167C133.784 259.265 133.464 259.434 133.464 258.984V258.598H115.014C114.059 258.598 113.68 257.778 113.549 256.711C113.549 256.739 113.542 256.765 113.539 256.793C113.533 256.716 113.529 256.639 113.529 256.561V255.395C113.529 254.18 113.968 253.196 115.015 253.196H133.466V252.61C133.466 252.16 133.78 252.329 134.168 252.329H134.489C134.872 252.329 135.463 252.16 135.463 252.61V254.32H151.991C152.066 254.212 152.149 254.11 152.239 254.015C152.947 253.664 152.957 253.586 153.604 253.586L158.669 253.786V257.79L153.627 258.064Z" fill="url(#paint11_linear)"/>
<path id="Vector_145" d="M152.537 256.998H127.194V254.598H152.537V256.998Z" fill="#E6E6E6"/>
<path id="Vector_146" opacity="0.03" d="M151.703 255.796C151.704 255.368 151.838 254.949 152.086 254.596H152.405V256.996H152.086C151.838 256.643 151.704 256.225 151.703 255.796Z" fill="black"/>
<path id="Vector_147" d="M158.532 254.165L154.014 253.665C153.439 253.665 152.886 253.889 152.479 254.288C152.072 254.686 151.843 255.227 151.843 255.79C151.843 256.354 152.072 256.894 152.479 257.293C152.886 257.691 153.439 257.915 154.014 257.915L158.532 257.424V254.165Z" fill="#E6E6E6"/>
<path id="Vector_148" opacity="0.05" d="M152.082 255.396H127.053V254.73H152.082C152.282 254.444 152.55 254.209 152.863 254.047C153.176 253.885 153.525 253.801 153.879 253.801L158.397 254.29V254.956L153.879 254.465C153.525 254.465 153.176 254.55 152.862 254.712C152.549 254.874 152.281 255.109 152.082 255.396Z" fill="black"/>
<path id="Vector_149" d="M115.517 258.099H133.88V253.676H115.517C115.06 253.676 114.622 253.854 114.298 254.171C113.975 254.487 113.793 254.916 113.793 255.364V256.415C113.794 256.862 113.976 257.29 114.3 257.606C114.623 257.922 115.061 258.099 115.517 258.099Z" fill="#13334C"/>
<path id="Vector_150" d="M134.579 259.081H134.183C133.831 259.081 133.545 258.802 133.545 258.456V253.155C133.545 252.81 133.831 252.53 134.183 252.53H134.579C134.932 252.53 135.218 252.81 135.218 253.155V258.456C135.218 258.802 134.932 259.081 134.579 259.081Z" fill="#13334C"/>
<path id="Vector_151" opacity="0.05" d="M133.545 258.099H133.21V253.676H133.545V258.099Z" fill="black"/>
<path id="Vector_152" opacity="0.05" d="M132.038 257.28H116.644V256.953H132.038V257.28Z" fill="black"/>
<path id="Vector_153" opacity="0.05" d="M132.038 256.134H116.644V255.806H132.038V256.134Z" fill="black"/>
<path id="Vector_154" opacity="0.05" d="M132.038 254.986H116.644V254.659H132.038V254.986Z" fill="black"/>
<path id="Vector_155" opacity="0.05" d="M134.537 253.864H134.227C134.046 253.864 133.873 253.934 133.745 254.059C133.618 254.184 133.546 254.353 133.546 254.53V255.01H115.638C115.184 255.01 114.746 255.175 114.408 255.472C114.071 255.77 113.857 256.179 113.81 256.621C113.803 256.558 113.8 256.495 113.8 256.431V255.61C113.8 255.133 113.993 254.675 114.338 254.337C114.683 254 115.151 253.81 115.638 253.81H133.545V253.33C133.545 253.153 133.617 252.984 133.744 252.859C133.872 252.734 134.045 252.664 134.225 252.664H134.536C134.716 252.664 134.889 252.734 135.017 252.859C135.145 252.984 135.216 253.153 135.216 253.33V254.53C135.216 254.354 135.145 254.184 135.018 254.059C134.89 253.935 134.717 253.864 134.537 253.864Z" fill="black"/>
</g>
<g id="fan">
<path id="Vector_156" opacity="0.5" d="M127 331.471C128.657 331.471 130 333.019 130 334.929C130 336.84 128.657 338.388 127 338.388C125.343 338.388 124 336.84 124 334.929C124 333.019 125.343 331.471 127 331.471Z" stroke="#3AD29F" stroke-width="3" stroke-miterlimit="10" stroke-dasharray="12 12"/>
</g>
<g id="fan_2">
<path id="Vector_157" opacity="0.5" d="M182 245C184.209 245 186 246.61 186 248.597C186 250.583 184.209 252.194 182 252.194C179.791 252.194 178 250.583 178 248.597C178 246.61 179.791 245 182 245Z" stroke="#3AD29F" stroke-width="3" stroke-miterlimit="10" stroke-dasharray="12 12"/>
</g>
<path id="Vector_158" d="M186.852 309.745C189.613 309.745 191.85 311.935 191.85 314.637C191.85 317.34 189.613 319.53 186.852 319.53C184.092 319.53 181.854 317.34 181.854 314.637C181.854 311.935 184.092 309.745 186.852 309.745Z" fill="url(#paint12_linear)"/>
<path id="Vector_159" d="M186.852 310.051C189.44 310.051 191.537 312.105 191.537 314.638C191.537 317.17 189.44 319.224 186.852 319.224C184.264 319.224 182.167 317.17 182.167 314.638C182.167 312.105 184.264 310.051 186.852 310.051Z" fill="white"/>
<path id="Vector_160" d="M186.852 314.331C187.025 314.331 187.165 314.468 187.165 314.638C187.165 314.807 187.025 314.944 186.852 314.944C186.679 314.944 186.539 314.807 186.539 314.638C186.539 314.468 186.679 314.331 186.852 314.331Z" fill="#333333"/>
<path id="Vector_161" d="M186.852 314.638L189.663 317.389" stroke="#333333" stroke-width="3" stroke-miterlimit="10"/>
<path id="Vector_162" opacity="0.05" d="M187.664 314.76C187.664 314.002 187.856 313.257 188.222 312.589C188.588 311.922 189.118 311.354 189.764 310.936C190.356 311.38 190.832 311.957 191.151 312.618C191.47 313.278 191.623 314.004 191.598 314.734C191.572 315.464 191.368 316.178 191.004 316.816C190.639 317.454 190.124 317.997 189.502 318.4C188.93 317.973 188.467 317.422 188.148 316.79C187.83 316.159 187.664 315.464 187.664 314.76Z" fill="black"/>
<path id="Vector_163" d="M200.005 309.745C202.766 309.745 205.004 311.935 205.004 314.637C205.004 317.34 202.766 319.53 200.005 319.53C197.245 319.53 195.007 317.34 195.007 314.637C195.007 311.935 197.245 309.745 200.005 309.745Z" fill="url(#paint13_linear)"/>
<path id="Vector_164" d="M200.005 310.051C202.593 310.051 204.691 312.105 204.691 314.638C204.691 317.17 202.593 319.224 200.005 319.224C197.418 319.224 195.32 317.17 195.32 314.638C195.32 312.105 197.418 310.051 200.005 310.051Z" fill="white"/>
<path id="Vector_165" d="M200.005 314.331C200.178 314.331 200.318 314.468 200.318 314.638C200.318 314.807 200.178 314.944 200.005 314.944C199.833 314.944 199.693 314.807 199.693 314.638C199.693 314.468 199.833 314.331 200.005 314.331Z" fill="#333333"/>
<path id="Vector_166" d="M200.005 314.638L202.816 317.389" stroke="#333333" stroke-width="3" stroke-miterlimit="10"/>
<path id="Vector_167" opacity="0.05" d="M200.818 314.76C200.817 314.002 201.009 313.257 201.375 312.589C201.742 311.922 202.271 311.354 202.917 310.936C203.51 311.38 203.986 311.957 204.305 312.618C204.624 313.278 204.777 314.004 204.751 314.734C204.725 315.464 204.522 316.178 204.157 316.816C203.793 317.454 203.278 317.997 202.655 318.4C202.084 317.973 201.62 317.422 201.302 316.79C200.983 316.159 200.817 315.464 200.818 314.76Z" fill="black"/>
<path id="Vector_168" d="M186.852 298.245C189.613 298.245 191.85 300.435 191.85 303.138C191.85 305.84 189.613 308.03 186.852 308.03C184.092 308.03 181.854 305.84 181.854 303.138C181.854 300.435 184.092 298.245 186.852 298.245Z" fill="url(#paint14_linear)"/>
<path id="Vector_169" d="M186.852 298.551C189.44 298.551 191.537 300.605 191.537 303.138C191.537 305.67 189.44 307.724 186.852 307.724C184.264 307.724 182.167 305.67 182.167 303.138C182.167 300.605 184.264 298.551 186.852 298.551Z" fill="white"/>
<path id="Vector_170" d="M186.852 302.831C187.025 302.831 187.165 302.968 187.165 303.138C187.165 303.307 187.025 303.444 186.852 303.444C186.679 303.444 186.539 303.307 186.539 303.138C186.539 302.968 186.679 302.831 186.852 302.831Z" fill="#333333"/>
<path id="Vector_171" d="M186.852 303.138L183.864 300.213" stroke="#333333" stroke-width="3" stroke-miterlimit="10"/>
<path id="Vector_172" opacity="0.05" d="M187.664 303.26C187.664 302.502 187.856 301.757 188.222 301.089C188.588 300.422 189.118 299.854 189.764 299.436C190.356 299.88 190.832 300.457 191.151 301.118C191.47 301.778 191.623 302.504 191.598 303.234C191.572 303.964 191.368 304.678 191.004 305.316C190.639 305.953 190.124 306.497 189.502 306.9C188.93 306.473 188.467 305.922 188.148 305.29C187.83 304.659 187.664 303.964 187.664 303.26Z" fill="black"/>
<path id="Vector_173" d="M200.005 298.245C202.766 298.245 205.004 300.435 205.004 303.138C205.004 305.84 202.766 308.03 200.005 308.03C197.245 308.03 195.007 305.84 195.007 303.138C195.007 300.435 197.245 298.245 200.005 298.245Z" fill="url(#paint15_linear)"/>
<path id="Vector_174" d="M200.005 298.551C202.593 298.551 204.691 300.605 204.691 303.138C204.691 305.67 202.593 307.724 200.005 307.724C197.418 307.724 195.32 305.67 195.32 303.138C195.32 300.605 197.418 298.551 200.005 298.551Z" fill="white"/>
<path id="Vector_175" d="M200.005 302.831C200.178 302.831 200.318 302.968 200.318 303.138C200.318 303.307 200.178 303.444 200.005 303.444C199.833 303.444 199.693 303.307 199.693 303.138C199.693 302.968 199.833 302.831 200.005 302.831Z" fill="#333333"/>
<path id="Vector_176" d="M200.005 303.137L202.816 305.889" stroke="#333333" stroke-width="3" stroke-miterlimit="10"/>
<path id="Vector_177" opacity="0.05" d="M200.818 303.26C200.817 302.502 201.009 301.757 201.375 301.089C201.742 300.422 202.271 299.854 202.917 299.436C203.51 299.88 203.986 300.457 204.305 301.118C204.624 301.778 204.777 302.504 204.751 303.234C204.725 303.964 204.522 304.678 204.157 305.316C203.793 305.953 203.278 306.497 202.655 306.9C202.084 306.473 201.62 305.922 201.302 305.29C200.983 304.659 200.817 303.964 200.818 303.26Z" fill="black"/>
</g>
<g id="bolts">
<g id="screwThree">
<path id="Vector_178" d="M477.669 443.223L470.923 439.918V433.305L477.669 430L484.415 433.305V439.916L477.669 443.223ZM477.669 434.949C477.28 434.949 476.9 435.047 476.576 435.23C476.253 435.414 476 435.674 475.851 435.98C475.702 436.285 475.663 436.62 475.739 436.944C475.815 437.268 476.002 437.566 476.277 437.8C476.552 438.033 476.902 438.193 477.284 438.257C477.665 438.322 478.061 438.289 478.42 438.163C478.78 438.037 479.087 437.823 479.304 437.549C479.52 437.275 479.636 436.952 479.637 436.622C479.638 436.401 479.589 436.183 479.491 435.979C479.392 435.775 479.248 435.589 479.065 435.433C478.882 435.277 478.665 435.153 478.425 435.068C478.185 434.983 477.928 434.94 477.669 434.94V434.949Z" fill="#5CBF84"/>
</g>
<g id="screwOne">
<path id="Vector_179" d="M468.586 449.969L460.805 446.156V438.528L468.586 434.715L476.368 438.528V446.153L468.586 449.969ZM468.586 440.424C468.137 440.424 467.699 440.537 467.325 440.749C466.952 440.96 466.661 441.261 466.489 441.614C466.318 441.966 466.273 442.353 466.36 442.727C466.448 443.101 466.664 443.444 466.981 443.714C467.299 443.983 467.703 444.167 468.144 444.241C468.584 444.315 469.04 444.277 469.455 444.131C469.87 443.985 470.224 443.738 470.474 443.421C470.723 443.105 470.856 442.732 470.856 442.351C470.858 442.097 470.8 441.845 470.687 441.61C470.574 441.375 470.407 441.162 470.196 440.982C469.985 440.802 469.734 440.659 469.458 440.561C469.182 440.464 468.885 440.414 468.586 440.414V440.424Z" fill="#EDA762"/>
</g>
<g id="screwTwo">
<path id="Vector_180" d="M457.432 447.871L449 443.74V435.474L457.432 431.342L465.864 435.474V443.737L457.432 447.871ZM457.432 437.528C456.946 437.528 456.47 437.651 456.066 437.88C455.661 438.11 455.346 438.436 455.16 438.817C454.974 439.199 454.925 439.619 455.02 440.024C455.115 440.429 455.349 440.801 455.693 441.093C456.037 441.385 456.475 441.584 456.952 441.664C457.429 441.745 457.924 441.704 458.373 441.546C458.823 441.388 459.207 441.12 459.477 440.777C459.747 440.433 459.892 440.029 459.892 439.616C459.893 439.341 459.831 439.069 459.708 438.814C459.585 438.559 459.404 438.328 459.176 438.133C458.947 437.938 458.676 437.783 458.376 437.677C458.077 437.572 457.756 437.517 457.432 437.517V437.528Z" fill="white"/>
</g>
</g>
<g id="designProcess" clip-path="url(#clip1)">
<g id="Group 24">
<path id="Path 296" d="M146.221 411.538H188.186V422.938" stroke="#13334C" stroke-width="2" stroke-miterlimit="10" stroke-dasharray="12 12"/>
<path id="Path 297" d="M173.123 469.198H131.157V457.798" stroke="#13334C" stroke-width="2" stroke-miterlimit="10" stroke-dasharray="12 12"/>
<g id="Group 22">
<path id="Path 284" d="M109.36 390H142.459C142.82 390 143.166 390.143 143.421 390.398C143.676 390.653 143.82 390.999 143.82 391.36V453.272C143.82 453.633 143.676 453.979 143.421 454.234C143.166 454.489 142.82 454.632 142.459 454.632H109.36C109.181 454.632 109.004 454.597 108.839 454.529C108.674 454.46 108.524 454.36 108.398 454.234C108.271 454.108 108.171 453.958 108.103 453.793C108.034 453.628 107.999 453.451 107.999 453.272V391.36C107.999 391.181 108.034 391.004 108.103 390.839C108.171 390.674 108.271 390.524 108.398 390.398C108.524 390.272 108.674 390.171 108.839 390.103C109.004 390.035 109.181 390 109.36 390Z" fill="#3E3C55"/>
<path id="Path 285" d="M134.687 392.645C134.585 393.322 134.243 393.94 133.725 394.388C133.206 394.836 132.544 395.083 131.858 395.085H119.629C118.944 395.083 118.282 394.835 117.763 394.388C117.244 393.94 116.902 393.322 116.8 392.644H110.322C109.966 392.644 109.624 392.786 109.371 393.038C109.119 393.29 108.977 393.632 108.977 393.989L108.976 451.981C108.976 452.338 109.118 452.68 109.37 452.932C109.622 453.184 109.964 453.326 110.321 453.326L141.262 453.327C141.619 453.327 141.961 453.185 142.213 452.933C142.466 452.681 142.607 452.339 142.607 451.982L142.609 393.989C142.609 393.632 142.467 393.29 142.215 393.038C141.962 392.786 141.62 392.644 141.263 392.644L134.687 392.645Z" fill="#E6E6E6"/>
<path id="Rectangle 112" d="M129.693 392.83H121.972C121.875 392.83 121.797 392.908 121.797 393.005V393.159C121.797 393.255 121.875 393.334 121.972 393.334H129.693C129.79 393.334 129.868 393.255 129.868 393.159V393.005C129.868 392.908 129.79 392.83 129.693 392.83Z" fill="#DBDBDB"/>
<path id="Ellipse 24" d="M131.583 393.334C131.751 393.334 131.886 393.198 131.886 393.031C131.886 392.864 131.751 392.729 131.583 392.729C131.416 392.729 131.281 392.864 131.281 393.031C131.281 393.198 131.416 393.334 131.583 393.334Z" fill="#DBDBDB"/>
<path id="Rectangle 117" d="M138.94 397.032H112.901C111.811 397.032 110.927 397.915 110.927 399.005V447.363C110.927 448.453 111.811 449.336 112.901 449.336H138.94C140.03 449.336 140.914 448.453 140.914 447.363V399.005C140.914 397.915 140.03 397.032 138.94 397.032Z" fill="white"/>
<g id="designCode">
<path id="Rectangle 55" d="M122.435 408.418H118.941V409.259H122.435V408.418Z" fill="#13334C"/>
<path id="Rectangle 56" d="M134.533 408.418H133.304V409.259H134.533V408.418Z" fill="#13334C"/>
<path id="Rectangle 57" d="M136.991 408.418H135.762V409.259H136.991V408.418Z" fill="#13334C"/>
<path id="Rectangle 58" d="M132.01 408.418H123.664V409.259H132.01V408.418Z" fill="#13334C"/>
<path id="Rectangle 59" d="M118.036 413.85H114.542V414.691H118.036V413.85Z" fill="#13334C"/>
<path id="Rectangle 60" d="M130.134 413.85H128.904V414.691H130.134V413.85Z" fill="#13334C"/>
<path id="Rectangle 61" d="M132.592 413.85H131.363V414.691H132.592V413.85Z" fill="#13334C"/>
<path id="Rectangle 62" d="M127.611 413.85H119.265V414.691H127.611V413.85Z" fill="#13334C"/>
<path id="Rectangle 63" d="M132.463 410.293H128.969V411.134H132.463V410.293Z" fill="#13334C"/>
<path id="Rectangle 64" d="M137.185 410.293H133.692V411.134H137.185V410.293Z" fill="#13334C"/>
<path id="Rectangle 66" d="M115.771 410.293H114.542V411.134H115.771V410.293Z" fill="#13334C"/>
<path id="Rectangle 67" d="M118.23 410.293H117V411.134H118.23V410.293Z" fill="#13334C"/>
<path id="Rectangle 68" d="M127.805 410.293H119.459V411.134H127.805V410.293Z" fill="#13334C"/>
<path id="Rectangle 69" d="M125.217 412.104H121.723V412.945H125.217V412.104Z" fill="#13334C"/>
<path id="Rectangle 70" d="M120.494 412.104H117V412.945H120.494V412.104Z" fill="#13334C"/>
<path id="Rectangle 71" d="M115.771 412.104H114.542V412.945H115.771V412.104Z" fill="#13334C"/>
<path id="Rectangle 73" d="M137.185 412.104H135.956V412.945H137.185V412.104Z" fill="#13334C"/>
<path id="Rectangle 74" d="M134.727 412.104H126.381V412.945H134.727V412.104Z" fill="#13334C"/>
</g>
<path id="Rectangle 114" d="M132.893 423.184H118.825C118.007 423.184 117.344 423.847 117.344 424.664V427.008C117.344 427.826 118.007 428.489 118.825 428.489H132.893C133.711 428.489 134.374 427.826 134.374 427.008V424.664C134.374 423.847 133.711 423.184 132.893 423.184Z" fill="#13334C"/>
<path id="Rectangle 115" d="M132.893 432.559H118.825C118.007 432.559 117.344 433.222 117.344 434.04V436.384C117.344 437.201 118.007 437.864 118.825 437.864H132.893C133.711 437.864 134.374 437.201 134.374 436.384V434.04C134.374 433.222 133.711 432.559 132.893 432.559Z" fill="#E6E6E6"/>
</g>
<g id="Group 23">
<path id="Path 284_2" d="M176.426 426.033H200.99C201.258 426.033 201.515 426.139 201.704 426.328C201.894 426.518 202 426.774 202 427.042V472.991C202 473.258 201.894 473.515 201.704 473.704C201.515 473.894 201.258 474 200.99 474H176.426C176.293 474 176.162 473.974 176.039 473.923C175.917 473.873 175.805 473.798 175.711 473.705C175.618 473.611 175.543 473.5 175.492 473.377C175.442 473.255 175.416 473.123 175.416 472.991V427.042C175.415 426.91 175.442 426.778 175.492 426.656C175.543 426.533 175.618 426.422 175.711 426.328C175.805 426.234 175.917 426.16 176.039 426.109C176.162 426.059 176.293 426.033 176.426 426.033Z" fill="#3E3C55"/>
<path id="Path 285_2" d="M195.222 427.995C195.146 428.498 194.893 428.957 194.508 429.289C194.122 429.622 193.631 429.805 193.123 429.807H184.047C183.538 429.805 183.047 429.622 182.662 429.289C182.277 428.957 182.023 428.498 181.947 427.995H177.14C176.875 427.995 176.621 428.1 176.434 428.288C176.247 428.475 176.142 428.728 176.142 428.993L176.14 472.032C176.14 472.297 176.245 472.551 176.433 472.738C176.62 472.925 176.874 473.03 177.138 473.03H200.101C200.366 473.03 200.62 472.925 200.807 472.738C200.994 472.551 201.099 472.297 201.099 472.032L201.1 428.993C201.1 428.728 200.995 428.474 200.808 428.287C200.621 428.1 200.367 427.995 200.102 427.995L195.222 427.995Z" fill="#E6E6E6"/>
<path id="Rectangle 112_2" d="M191.47 428.133H185.831C185.734 428.133 185.655 428.211 185.655 428.308V428.332C185.655 428.429 185.734 428.507 185.831 428.507H191.47C191.567 428.507 191.646 428.429 191.646 428.332V428.308C191.646 428.211 191.567 428.133 191.47 428.133Z" fill="#DBDBDB"/>
<path id="Ellipse 24_2" d="M192.918 428.507C193.042 428.507 193.143 428.407 193.143 428.283C193.143 428.159 193.042 428.058 192.918 428.058C192.794 428.058 192.694 428.159 192.694 428.283C192.694 428.407 192.794 428.507 192.918 428.507Z" fill="#DBDBDB"/>
<g id="Rectangle 117_2">
<path id="Vector_181" d="M197.86 431.079H179.596C178.506 431.079 177.622 431.963 177.622 433.053V467.964C177.622 469.054 178.506 469.938 179.596 469.938H197.86C198.951 469.938 199.835 469.054 199.835 467.964V433.053C199.835 431.963 198.951 431.079 197.86 431.079Z" fill="white"/>
<path id="Vector_182" d="M197.86 431.141H179.596C178.54 431.141 177.683 431.997 177.683 433.053V467.964C177.683 469.02 178.54 469.876 179.596 469.876H197.86C198.917 469.876 199.773 469.02 199.773 467.964V433.053C199.773 431.997 198.917 431.141 197.86 431.141Z" stroke="#3E3C55"/>
</g>
<g id="Rectangle 118">
<path id="Vector_183" d="M196.996 439.221H180.213V443.909H196.996V439.221Z" fill="white"/>
<path id="Vector_184" d="M196.873 439.344H180.337V443.785H196.873V439.344Z" stroke="#707070" stroke-width="2"/>
</g>
<g id="Rectangle 114_2">
<path id="Vector_185" d="M195.022 450.693H182.311V454.641H195.022V450.693Z" fill="white"/>
<path id="Vector_186" d="M194.898 450.817H182.434V454.518H194.898V450.817Z" stroke="#3E3C55" stroke-width="2"/>
</g>
<g id="Rectangle 119">
<path id="Vector_187" d="M195.022 456.738H182.311V460.686H195.022V456.738Z" fill="white"/>
<path id="Vector_188" d="M194.898 456.862H182.434V460.562H194.898V456.862Z" stroke="#3E3C55" stroke-width="2"/>
</g>
</g>
</g>
</g>
<g id="book_2">
<path id="Vector_189" d="M586.348 572.488V587.124C586.346 588.579 585.631 589.974 584.361 591.003C583.09 592.032 581.368 592.611 579.571 592.612H505.777C503.98 592.611 502.258 592.032 500.987 591.003C499.717 589.974 499.002 588.579 499 587.124V572.488C499.002 571.033 499.717 569.638 500.987 568.609C502.258 567.58 503.98 567.002 505.777 567H579.571C581.368 567.002 583.09 567.58 584.361 568.609C585.631 569.638 586.346 571.033 586.348 572.488Z" fill="#5CBF84"/>
<path id="Vector_190" d="M513.307 567.61V592.002H519.331V567.61H513.307Z" fill="#CCCCCC"/>
<path id="Vector_191" d="M559.993 567.61V592.002H566.017V567.61H559.993Z" fill="#CCCCCC"/>
</g>
<g id="book_3">
<path id="Vector_192" d="M576.348 546.488V561.124C576.346 562.579 575.631 563.974 574.361 565.003C573.09 566.032 571.368 566.611 569.571 566.612H495.777C493.98 566.611 492.258 566.032 490.987 565.003C489.717 563.974 489.002 562.579 489 561.124V546.488C489.002 545.033 489.717 543.638 490.987 542.609C492.258 541.58 493.98 541.002 495.777 541H569.571C571.368 541.002 573.09 541.58 574.361 542.609C575.631 543.638 576.346 545.033 576.348 546.488Z" fill="#389ABE"/>
<path id="Vector_193" d="M503.307 541.61V566.002H509.331V541.61H503.307Z" fill="#CCCCCC"/>
<path id="Vector_194" d="M549.993 541.61V566.002H556.017V541.61H549.993Z" fill="#CCCCCC"/>
</g>
<g id="bulb">
<path id="Vector_195" d="M396.389 288.466C396.389 293.084 394.71 297.027 391.516 299.961C389.249 302.044 385.758 304.964 385.758 308.051V310.606H375.127V308.051C375.127 304.932 371.622 302.006 369.369 299.961C366.247 297.13 364.496 292.919 364.496 288.466V288.371C364.51 284.306 366.203 280.413 369.203 277.548C372.202 274.683 376.263 273.08 380.492 273.093C384.72 273.105 388.771 274.732 391.752 277.615C394.733 280.498 396.401 284.401 396.389 288.466Z" fill="#13334C"/>
<path id="Path 2546" d="M385.758 310.964C385.659 310.964 385.564 310.926 385.494 310.859C385.424 310.792 385.385 310.701 385.385 310.606V308.051C385.385 305.048 388.466 302.245 390.716 300.198C390.902 300.028 391.084 299.863 391.258 299.703C394.37 296.843 396.015 292.957 396.015 288.466C396.015 280.072 389.175 273.497 380.443 273.497H380.399C376.289 273.501 372.349 275.07 369.439 277.859C366.529 280.648 364.887 284.432 364.871 288.382V288.465C364.871 292.864 366.604 296.959 369.626 299.701C369.779 299.84 369.938 299.983 370.101 300.13C372.38 302.181 375.501 304.989 375.501 308.051V310.606C375.501 310.701 375.461 310.792 375.391 310.859C375.322 310.926 375.227 310.964 375.128 310.964C375.029 310.964 374.934 310.926 374.864 310.859C374.794 310.792 374.755 310.701 374.755 310.606V308.051C374.755 305.3 371.771 302.615 369.591 300.653C369.427 300.505 369.268 300.362 369.114 300.222C365.943 297.345 364.125 293.06 364.125 288.466V288.379C364.149 279.769 371.446 272.779 380.398 272.779H380.444C384.749 272.758 388.887 274.381 391.947 277.292C395.007 280.203 396.739 284.164 396.761 288.302C396.761 288.357 396.761 288.411 396.761 288.466C396.761 293.158 395.036 297.222 391.774 300.221C391.599 300.382 391.416 300.548 391.228 300.719C389.077 302.676 386.131 305.357 386.131 308.051V310.606C386.131 310.701 386.091 310.792 386.021 310.859C385.951 310.926 385.857 310.964 385.758 310.964H385.758Z" fill="#3F3D56"/>
<path id="Path 2547" d="M383.986 315.565H376.899C376.734 315.565 376.576 315.502 376.459 315.39C376.343 315.278 376.277 315.126 376.277 314.967C376.277 314.809 376.343 314.657 376.459 314.545C376.576 314.433 376.734 314.37 376.899 314.37H383.986C384.151 314.37 384.309 314.433 384.426 314.545C384.542 314.657 384.608 314.809 384.608 314.967C384.608 315.126 384.542 315.278 384.426 315.39C384.309 315.502 384.151 315.565 383.986 315.565Z" fill="#13334C"/>
<path id="Vector_196" d="M381.205 319.569H379.679C379.15 319.569 378.63 319.431 378.176 319.169C378.108 319.131 378.056 319.072 378.028 319.003C377.999 318.933 377.996 318.856 378.018 318.784C378.038 318.711 378.084 318.646 378.147 318.599C378.21 318.553 378.287 318.528 378.366 318.528H382.518C382.597 318.528 382.674 318.553 382.737 318.599C382.8 318.646 382.846 318.711 382.866 318.784C382.889 318.856 382.885 318.933 382.857 319.003C382.828 319.072 382.776 319.131 382.708 319.169C382.254 319.431 381.735 319.569 381.205 319.569Z" fill="#3F3D56"/>
<path id="Vector_197" d="M383.987 317.453L376.858 317.452L376.836 317.407C376.815 317.323 376.814 317.236 376.834 317.152C376.853 317.068 376.892 316.989 376.948 316.922C377.005 316.852 377.077 316.797 377.159 316.758C377.241 316.72 377.332 316.7 377.423 316.701H383.461C383.552 316.7 383.643 316.72 383.725 316.758C383.807 316.797 383.88 316.853 383.936 316.922C383.992 316.988 384.031 317.066 384.05 317.149C384.07 317.231 384.07 317.318 384.049 317.401L384.038 317.447L383.987 317.453Z" fill="#3F3D56"/>
<path id="Path 2548" d="M363.956 274.379C363.805 274.38 363.66 274.327 363.547 274.232L358.208 269.752C358.086 269.648 358.011 269.501 358.001 269.344C357.991 269.186 358.046 269.032 358.153 268.913C358.261 268.795 358.413 268.722 358.576 268.71C358.74 268.699 358.901 268.75 359.026 268.852L364.365 273.332C364.46 273.412 364.528 273.518 364.559 273.636C364.59 273.754 364.582 273.878 364.538 273.992C364.493 274.106 364.414 274.204 364.31 274.273C364.206 274.342 364.082 274.38 363.956 274.38V274.379Z" fill="#13334C"/>
<path id="Path 2549" d="M396.045 274.379C395.918 274.38 395.794 274.342 395.69 274.273C395.586 274.204 395.507 274.106 395.462 273.992C395.418 273.878 395.411 273.754 395.441 273.636C395.472 273.518 395.54 273.412 395.635 273.332L400.974 268.852C401.099 268.749 401.26 268.698 401.424 268.71C401.587 268.721 401.739 268.794 401.847 268.913C401.954 269.031 402.009 269.186 401.999 269.343C401.989 269.5 401.914 269.647 401.792 269.752L396.453 274.232C396.34 274.327 396.195 274.379 396.045 274.379Z" fill="#13334C"/>
<path id="Path 2550" d="M385.758 313.444H375.127C374.962 313.444 374.804 313.381 374.688 313.269C374.571 313.157 374.506 313.005 374.506 312.847C374.506 312.688 374.571 312.536 374.688 312.424C374.804 312.312 374.962 312.249 375.127 312.249H385.758C385.923 312.249 386.081 312.312 386.198 312.424C386.314 312.536 386.38 312.688 386.38 312.847C386.38 313.005 386.314 313.157 386.198 313.269C386.081 313.381 385.923 313.444 385.758 313.444Z" fill="#13334C"/>
<path id="Vector_198" d="M380.182 297.833L377.971 310.606H376.709L378.955 297.637C378.982 297.48 379.072 297.34 379.206 297.248C379.341 297.156 379.507 297.119 379.67 297.145C379.833 297.171 379.978 297.258 380.074 297.387C380.17 297.516 380.209 297.676 380.182 297.833Z" fill="#E6E6E6"/>
<path id="Vector_199" d="M384.43 310.606H383.168L380.957 297.833C380.93 297.676 380.969 297.516 381.065 297.387C381.161 297.258 381.306 297.171 381.469 297.145C381.632 297.119 381.799 297.156 381.933 297.248C382.067 297.34 382.158 297.48 382.185 297.637L384.43 310.606Z" fill="#E6E6E6"/>
<path id="Path 2551" d="M376.402 297.406C376.402 297.247 376.468 297.095 376.584 296.983C376.701 296.871 376.859 296.808 377.024 296.808H383.861C384.026 296.808 384.184 296.871 384.301 296.983C384.418 297.095 384.483 297.247 384.483 297.406C384.483 297.564 384.418 297.716 384.301 297.828C384.184 297.94 384.026 298.003 383.861 298.003H377.024C376.859 298.003 376.701 297.94 376.584 297.828C376.468 297.716 376.402 297.564 376.402 297.406Z" fill="#E6E6E6"/>
<path id="Path 2553" d="M380.443 268.414C380.278 268.414 380.12 268.351 380.003 268.239C379.887 268.127 379.821 267.975 379.821 267.817V257.598C379.821 257.439 379.887 257.287 380.003 257.175C380.12 257.063 380.278 257 380.443 257C380.608 257 380.766 257.063 380.882 257.175C380.999 257.287 381.064 257.439 381.064 257.598V267.817C381.064 267.975 380.999 268.127 380.882 268.239C380.766 268.351 380.608 268.414 380.443 268.414Z" fill="#13334C"/>
</g>
</g>
<defs>
<linearGradient id="paint0_linear" x1="308.964" y1="208.725" x2="308.964" y2="733.205" gradientUnits="userSpaceOnUse">
<stop stop-color="white"/>
<stop offset="0.093" stop-color="white" stop-opacity="0.864"/>
<stop offset="0.284" stop-color="white" stop-opacity="0.605"/>
<stop offset="0.466" stop-color="white" stop-opacity="0.389"/>
<stop offset="0.633" stop-color="white" stop-opacity="0.221"/>
<stop offset="0.784" stop-color="white" stop-opacity="0.1"/>
<stop offset="0.911" stop-color="white" stop-opacity="0.026"/>
<stop offset="1" stop-color="white" stop-opacity="0"/>
</linearGradient>
<linearGradient id="paint1_linear" x1="162.501" y1="261.611" x2="162.501" y2="326.389" gradientUnits="userSpaceOnUse">
<stop stop-color="#808080" stop-opacity="0.25"/>
<stop offset="0.54" stop-color="#808080" stop-opacity="0.12"/>
<stop offset="1" stop-color="#808080" stop-opacity="0.1"/>
</linearGradient>
<linearGradient id="paint2_linear" x1="5210.33" y1="-2332.06" x2="5210.33" y2="-2063.7" gradientUnits="userSpaceOnUse">
<stop stop-color="#808080" stop-opacity="0.25"/>
<stop offset="0.54" stop-color="#808080" stop-opacity="0.12"/>
<stop offset="1" stop-color="#808080" stop-opacity="0.1"/>
</linearGradient>
<linearGradient id="paint3_linear" x1="6022.15" y1="-2332.06" x2="6022.15" y2="-2063.7" gradientUnits="userSpaceOnUse">
<stop stop-color="#808080" stop-opacity="0.25"/>
<stop offset="0.54" stop-color="#808080" stop-opacity="0.12"/>
<stop offset="1" stop-color="#808080" stop-opacity="0.1"/>
</linearGradient>
<linearGradient id="paint4_linear" x1="6833.94" y1="-2332.06" x2="6833.94" y2="-2063.7" gradientUnits="userSpaceOnUse">
<stop stop-color="#808080" stop-opacity="0.25"/>
<stop offset="0.54" stop-color="#808080" stop-opacity="0.12"/>
<stop offset="1" stop-color="#808080" stop-opacity="0.1"/>
</linearGradient>
<linearGradient id="paint5_linear" x1="5210.33" y1="-2748.77" x2="5210.33" y2="-2480.41" gradientUnits="userSpaceOnUse">
<stop stop-color="#808080" stop-opacity="0.25"/>
<stop offset="0.54" stop-color="#808080" stop-opacity="0.12"/>
<stop offset="1" stop-color="#808080" stop-opacity="0.1"/>
</linearGradient>
<linearGradient id="paint6_linear" x1="6022.15" y1="-2748.77" x2="6022.15" y2="-2480.41" gradientUnits="userSpaceOnUse">
<stop stop-color="#808080" stop-opacity="0.25"/>
<stop offset="0.54" stop-color="#808080" stop-opacity="0.12"/>
<stop offset="1" stop-color="#808080" stop-opacity="0.1"/>
</linearGradient>
<linearGradient id="paint7_linear" x1="6833.94" y1="-2748.77" x2="6833.94" y2="-2480.41" gradientUnits="userSpaceOnUse">
<stop stop-color="#808080" stop-opacity="0.25"/>
<stop offset="0.54" stop-color="#808080" stop-opacity="0.12"/>
<stop offset="1" stop-color="#808080" stop-opacity="0.1"/>
</linearGradient>
<linearGradient id="paint8_linear" x1="5210.33" y1="-3165.49" x2="5210.33" y2="-2897.07" gradientUnits="userSpaceOnUse">
<stop stop-color="#808080" stop-opacity="0.25"/>
<stop offset="0.54" stop-color="#808080" stop-opacity="0.12"/>
<stop offset="1" stop-color="#808080" stop-opacity="0.1"/>
</linearGradient>
<linearGradient id="paint9_linear" x1="6022.15" y1="-3165.49" x2="6022.15" y2="-2897.07" gradientUnits="userSpaceOnUse">
<stop stop-color="#808080" stop-opacity="0.25"/>
<stop offset="0.54" stop-color="#808080" stop-opacity="0.12"/>
<stop offset="1" stop-color="#808080" stop-opacity="0.1"/>
</linearGradient>
<linearGradient id="paint10_linear" x1="6833.94" y1="-3165.49" x2="6833.94" y2="-2897.07" gradientUnits="userSpaceOnUse">
<stop stop-color="#808080" stop-opacity="0.25"/>
<stop offset="0.54" stop-color="#808080" stop-opacity="0.12"/>
<stop offset="1" stop-color="#808080" stop-opacity="0.1"/>
</linearGradient>
<linearGradient id="paint11_linear" x1="10614.9" y1="-5059.03" x2="26571.5" y2="-5059.03" gradientUnits="userSpaceOnUse">
<stop stop-color="#808080" stop-opacity="0.25"/>
<stop offset="0.54" stop-color="#808080" stop-opacity="0.12"/>
<stop offset="1" stop-color="#808080" stop-opacity="0.1"/>
</linearGradient>
<linearGradient id="paint12_linear" x1="6354.4" y1="-2283.67" x2="6354.4" y2="-1517.8" gradientUnits="userSpaceOnUse">
<stop stop-color="#808080" stop-opacity="0.25"/>
<stop offset="0.54" stop-color="#808080" stop-opacity="0.12"/>
<stop offset="1" stop-color="#808080" stop-opacity="0.1"/>
</linearGradient>
<linearGradient id="paint13_linear" x1="7397.17" y1="-2283.67" x2="7397.17" y2="-1517.8" gradientUnits="userSpaceOnUse">
<stop stop-color="#808080" stop-opacity="0.25"/>
<stop offset="0.54" stop-color="#808080" stop-opacity="0.12"/>
<stop offset="1" stop-color="#808080" stop-opacity="0.1"/>
</linearGradient>
<linearGradient id="paint14_linear" x1="6354.4" y1="-3195.39" x2="6354.4" y2="-2429.52" gradientUnits="userSpaceOnUse">
<stop stop-color="#808080" stop-opacity="0.25"/>
<stop offset="0.54" stop-color="#808080" stop-opacity="0.12"/>
<stop offset="1" stop-color="#808080" stop-opacity="0.1"/>
</linearGradient>
<linearGradient id="paint15_linear" x1="7397.17" y1="-3195.39" x2="7397.17" y2="-2429.52" gradientUnits="userSpaceOnUse">
<stop stop-color="#808080" stop-opacity="0.25"/>
<stop offset="0.54" stop-color="#808080" stop-opacity="0.12"/>
<stop offset="1" stop-color="#808080" stop-opacity="0.1"/>
</linearGradient>
<clipPath id="clip0">
<rect width="109" height="98" fill="white" transform="matrix(1 0 0 -1 108 343)"/>
</clipPath>
<clipPath id="clip1">
<rect width="94" height="84" fill="white" transform="translate(108 390)"/>
</clipPath>
</defs>
</svg>
