<svg width="303" height="203" viewBox="0 0 303 203" fill="none" xmlns="http://www.w3.org/2000/svg">
<g id="responsive">
<path id="Vector" d="M150.19 161.902H82.0803V202.05H150.19V161.902Z" fill="#BDBDBD"/>
<g id="Group" opacity="0.1">
<path id="Vector_2" opacity="0.1" d="M83.421 165.829H148.985C149.775 162.395 150.408 160.156 150.408 160.156H81.8623C81.8623 160.156 82.5652 162.386 83.421 165.829Z" fill="black"/>
</g>
<path id="Vector_3" d="M7.83026 0H226.042C227.906 0 229.694 0.740231 231.012 2.05785C232.331 3.37547 233.071 5.16254 233.071 7.02594V141.392H0.801025V7.02594C0.801025 5.16254 1.5416 3.37547 2.85984 2.05785C4.17807 0.740231 5.96599 0 7.83026 0Z" fill="#535461"/>
<path id="Vector_4" d="M225.241 164.52H7.02923C5.16496 164.52 3.37705 163.78 2.05881 162.463C0.740575 161.145 0 159.358 0 157.494V142.701H232.27V157.494C232.27 159.358 231.53 161.145 230.211 162.463C228.893 163.78 227.105 164.52 225.241 164.52Z" fill="#BDBDBD"/>
<path id="Vector_5" d="M116.136 157.538C118.306 157.538 120.065 155.78 120.065 153.611C120.065 151.441 118.306 149.683 116.136 149.683C113.966 149.683 112.206 151.441 112.206 153.611C112.206 155.78 113.966 157.538 116.136 157.538Z" fill="#535461"/>
<path id="Vector_6" d="M78.662 190.268H153.608C154.554 190.268 155.462 190.643 156.131 191.312C156.8 191.981 157.175 192.887 157.175 193.833V198.995H75.095V193.833C75.095 193.365 75.1872 192.901 75.3665 192.469C75.5458 192.036 75.8085 191.643 76.1397 191.312C76.471 190.981 76.8642 190.718 77.2969 190.539C77.7297 190.36 78.1936 190.268 78.662 190.268Z" fill="#BDBDBD"/>
<g id="Group_2" opacity="0.1">
<path id="Vector_7" opacity="0.1" d="M150.408 190.049H82.2991V191.359H150.408V190.049Z" fill="black"/>
</g>
<g id="screen">
<g id="Group_3" opacity="0.5">
<path id="Vector_8" opacity="0.5" d="M186.218 30.5678H46.0702C44.9851 30.5678 44.1055 31.447 44.1055 32.5316V110.541C44.1055 111.626 44.9851 112.505 46.0702 112.505H186.218C187.303 112.505 188.183 111.626 188.183 110.541V32.5316C188.183 31.447 187.303 30.5678 186.218 30.5678Z" fill="url(#paint0_linear)"/>
</g>
<path id="Vector_9" d="M184.372 31.1701H47.9173C46.8323 31.1701 45.9526 32.0493 45.9526 33.1339V109.485C45.9526 110.57 46.8323 111.449 47.9173 111.449H184.372C185.457 111.449 186.336 110.57 186.336 109.485V33.1339C186.336 32.0493 185.457 31.1701 184.372 31.1701Z" fill="white"/>
<g id="Group_4" opacity="0.5">
<path id="Vector_10" opacity="0.5" d="M98.5662 42.6953H87.0226C85.9375 42.6953 85.0579 43.5745 85.0579 44.659V54.6524C85.0579 55.737 85.9375 56.6162 87.0226 56.6162H98.5662C99.6513 56.6162 100.531 55.737 100.531 54.6524V44.659C100.531 43.5745 99.6513 42.6953 98.5662 42.6953Z" fill="#6C63FF"/>
</g>
<path id="Vector_11" d="M146.178 42.6953H105.945C105.519 42.6953 105.173 43.0411 105.173 43.4677C105.173 43.8943 105.519 44.2401 105.945 44.2401H146.178C146.605 44.2401 146.951 43.8943 146.951 43.4677C146.951 43.0411 146.605 42.6953 146.178 42.6953Z" fill="#E0E0E0"/>
<path id="Vector_12" d="M139.127 47.3385H105.945C105.519 47.3385 105.173 47.6843 105.173 48.1109C105.173 48.5375 105.519 48.8833 105.945 48.8833H139.127C139.554 48.8833 139.9 48.5375 139.9 48.1109C139.9 47.6843 139.554 47.3385 139.127 47.3385Z" fill="#E0E0E0"/>
<g id="Group_5" opacity="0.5">
<path id="Vector_13" opacity="0.5" d="M98.5662 64.3491H87.0226C85.9375 64.3491 85.0579 65.2283 85.0579 66.3128V76.3062C85.0579 77.3908 85.9375 78.27 87.0226 78.27H98.5662C99.6513 78.27 100.531 77.3908 100.531 76.3062V66.3128C100.531 65.2283 99.6513 64.3491 98.5662 64.3491Z" fill="#6C63FF"/>
</g>
<path id="Vector_14" d="M146.178 64.3491H105.945C105.519 64.3491 105.173 64.6949 105.173 65.1215C105.173 65.5481 105.519 65.8939 105.945 65.8939H146.178C146.605 65.8939 146.951 65.5481 146.951 65.1215C146.951 64.6949 146.605 64.3491 146.178 64.3491Z" fill="#E0E0E0"/>
<path id="Vector_15" d="M146.178 68.988H105.945C105.519 68.988 105.173 69.3338 105.173 69.7604C105.173 70.187 105.519 70.5328 105.945 70.5328H146.178C146.605 70.5328 146.951 70.187 146.951 69.7604C146.951 69.3338 146.605 68.988 146.178 68.988Z" fill="#E0E0E0"/>
<g id="Group_6" opacity="0.5">
<path id="Vector_16" opacity="0.5" d="M98.5662 86.0029H87.0226C85.9375 86.0029 85.0579 86.8821 85.0579 87.9667V97.9601C85.0579 99.0447 85.9375 99.9239 87.0226 99.9239H98.5662C99.6513 99.9239 100.531 99.0447 100.531 97.9601V87.9667C100.531 86.8821 99.6513 86.0029 98.5662 86.0029Z" fill="#6C63FF"/>
</g>
<path id="Vector_17" d="M146.178 86.0029H105.945C105.519 86.0029 105.173 86.3488 105.173 86.7753C105.173 87.2019 105.519 87.5478 105.945 87.5478H146.178C146.605 87.5478 146.951 87.2019 146.951 86.7753C146.951 86.3488 146.605 86.0029 146.178 86.0029Z" fill="#E0E0E0"/>
<path id="Vector_18" d="M146.536 90.6418H105.867C105.483 90.6418 105.173 90.9524 105.173 91.3356V91.4927C105.173 91.876 105.483 92.1866 105.867 92.1866H146.536C146.919 92.1866 147.23 91.876 147.23 91.4927V91.3356C147.23 90.9524 146.919 90.6418 146.536 90.6418Z" fill="#E0E0E0"/>
<path id="Vector_19" d="M116.145 35.7523C117.109 35.7523 117.891 34.9707 117.891 34.0067C117.891 33.0426 117.109 32.2611 116.145 32.2611C115.18 32.2611 114.398 33.0426 114.398 34.0067C114.398 34.9707 115.18 35.7523 116.145 35.7523Z" fill="#6C63FF"/>
<path id="Vector_20" d="M116.145 35.7523C117.109 35.7523 117.891 34.9707 117.891 34.0067C117.891 33.0426 117.109 32.2611 116.145 32.2611C115.18 32.2611 114.398 33.0426 114.398 34.0067C114.398 34.9707 115.18 35.7523 116.145 35.7523Z" fill="#6C63FF"/>
<path id="Vector_21" d="M116.145 110.812C117.109 110.812 117.891 110.03 117.891 109.066C117.891 108.102 117.109 107.321 116.145 107.321C115.18 107.321 114.398 108.102 114.398 109.066C114.398 110.03 115.18 110.812 116.145 110.812Z" fill="#6C63FF"/>
<path id="Vector_22" d="M49.5633 74.8094C50.5278 74.8094 51.3097 74.0279 51.3097 73.0639C51.3097 72.0998 50.5278 71.3183 49.5633 71.3183C48.5988 71.3183 47.8169 72.0998 47.8169 73.0639C47.8169 74.0279 48.5988 74.8094 49.5633 74.8094Z" fill="#6C63FF"/>
<path id="Vector_23" d="M182.289 74.8094C183.253 74.8094 184.035 74.0279 184.035 73.0639C184.035 72.0998 183.253 71.3183 182.289 71.3183C181.324 71.3183 180.542 72.0998 180.542 73.0639C180.542 74.0279 181.324 74.8094 182.289 74.8094Z" fill="#6C63FF"/>
</g>
<g id="greenPen">
<path id="Vector_24" d="M275.931 140.082H268.945V183.722H275.931V140.082Z" fill="#535461"/>
<path id="Vector_25" d="M275.931 125.681H268.945V140.082H275.931V125.681Z" fill="#3AD29F"/>
</g>
<g id="bluePen">
<path id="Vector_26" d="M285.535 143.573H278.55V187.213H285.535V143.573Z" fill="#535461"/>
<path id="Vector_27" d="M285.535 129.173H278.55V143.574H285.535V129.173Z" fill="#4D8AF0"/>
</g>
<g id="orangePen">
<path id="Vector_28" d="M297.324 150.992H290.339V194.632H297.324V150.992Z" fill="#535461"/>
<path id="Vector_29" d="M297.324 136.591H290.339V150.992H297.324V136.591Z" fill="#F55F44"/>
</g>
<path id="Vector_30" d="M262.833 153.611H303V188.304C303 191.024 301.919 193.632 299.995 195.555C298.071 197.479 295.461 198.559 292.74 198.559H273.093C270.372 198.559 267.762 197.479 265.838 195.555C263.914 193.632 262.833 191.024 262.833 188.304V153.611Z" fill="#6C63FF"/>
<g id="Group_7" opacity="0.1">
<path id="Vector_31" opacity="0.1" d="M262.833 153.611V155.356H301.254V190.049C301.257 192.342 300.488 194.57 299.071 196.373C300.296 195.415 301.287 194.19 301.967 192.792C302.648 191.394 303.001 189.859 303 188.304V153.611H262.833Z" fill="black"/>
</g>
</g>
<defs>
<linearGradient id="paint0_linear" x1="70025.4" y1="21242.5" x2="70025.4" y2="5857.95" gradientUnits="userSpaceOnUse">
<stop stop-color="#808080" stop-opacity="0.25"/>
<stop offset="0.54" stop-color="#808080" stop-opacity="0.12"/>
<stop offset="1" stop-color="#808080" stop-opacity="0.1"/>
</linearGradient>
</defs>
</svg>
