<svg width="225" height="251" viewBox="0 0 225 251" fill="none" xmlns="http://www.w3.org/2000/svg">
<g id="socialable">
<path id="Vector" d="M94.1591 142.554C94.3033 142.616 94.4339 142.706 94.5434 142.819C94.6529 142.931 94.7391 143.064 94.7972 143.21C94.8553 143.355 94.8841 143.511 94.8819 143.668C94.8797 143.825 94.8466 143.98 94.7846 144.124L93.1607 147.892L93.3448 147.986L92.2375 150.543L92.0603 150.445L86.2429 163.943C86.0438 164.405 85.6832 164.779 85.2285 164.994C84.7737 165.21 84.2558 165.254 83.7715 165.116L74.7262 162.549C74.5059 162.487 74.302 162.377 74.1288 162.227C73.9556 162.078 73.8172 161.892 73.7234 161.683C73.6295 161.475 73.5825 161.248 73.5856 161.02C73.5887 160.791 73.6418 160.566 73.7413 160.36L82.8583 141.474C83.0498 141.077 83.3707 140.757 83.7683 140.567C84.1659 140.377 84.6164 140.327 85.0459 140.427L93.9464 142.486C94.0193 142.502 94.0905 142.525 94.1591 142.554V142.554Z" fill="#3F3D56"/>
<path id="Vector_2" d="M86.6305 141.882L91.3096 142.964C91.3938 142.984 91.4821 142.975 91.5608 142.939C91.6395 142.904 91.7042 142.843 91.745 142.767C91.7911 142.681 91.8644 142.612 91.9536 142.571C92.0427 142.531 92.1427 142.521 92.2381 142.543L93.2238 142.771C93.3582 142.802 93.4843 142.862 93.5929 142.948C93.7016 143.033 93.7902 143.14 93.8525 143.263C93.9149 143.386 93.9495 143.522 93.9538 143.66C93.9582 143.797 93.9322 143.934 93.8777 144.061L85.4581 163.637C85.3536 163.88 85.1633 164.076 84.9233 164.187C84.6834 164.299 84.4107 164.318 84.1574 164.242L75.1757 161.535C75.0611 161.5 74.9553 161.442 74.8656 161.363C74.7759 161.283 74.7043 161.186 74.6557 161.077C74.6072 160.967 74.5828 160.849 74.5843 160.729C74.5858 160.61 74.6131 160.492 74.6643 160.384L83.5632 141.619C83.6943 141.342 83.9161 141.119 84.1918 140.986C84.4676 140.853 84.7806 140.818 85.079 140.887L86.1179 141.127C86.0925 141.294 86.1311 141.465 86.2262 141.605C86.3212 141.745 86.4656 141.844 86.6305 141.882Z" fill="#6C63FF"/>
<path id="Vector_3" d="M64.3552 244.57L69.9146 244.569L72.5586 223.148L64.3533 223.149L64.3552 244.57Z" fill="#FFB8B8"/>
<path id="Vector_4" d="M80.637 249.725L63.1644 249.726L63.1638 242.983L73.8856 242.982C74.7721 242.982 75.65 243.156 76.469 243.495C77.2881 243.834 78.0324 244.33 78.6593 244.957C79.2862 245.583 79.7835 246.326 80.1229 247.144C80.4622 247.962 80.6369 248.839 80.637 249.725V249.725L80.637 249.725Z" fill="#2F2E41"/>
<path id="Vector_5" d="M34.3887 244.57L39.9485 244.569L42.592 223.148L34.3867 223.149L34.3887 244.57Z" fill="#FFB8B8"/>
<path id="Vector_6" d="M50.6707 249.725L33.1981 249.726L33.1975 242.983L43.9193 242.982C45.7097 242.982 47.4268 243.692 48.693 244.957C49.9591 246.221 50.6705 247.936 50.6707 249.725V249.725L50.6707 249.725Z" fill="#2F2E41"/>
<path id="Vector_7" d="M50.6706 92.2904C57.2671 92.2904 62.6146 86.9486 62.6146 80.3592C62.6146 73.7697 57.2671 68.428 50.6706 68.428C44.0741 68.428 38.7266 73.7697 38.7266 80.3592C38.7266 86.9486 44.0741 92.2904 50.6706 92.2904Z" fill="#FFB8B8"/>
<path id="Vector_8" d="M91.5115 158.17C91.4281 157.509 91.2007 156.875 90.8453 156.312C90.4899 155.748 90.0151 155.269 89.4545 154.909C88.8938 154.549 88.2609 154.316 87.6003 154.226C86.9398 154.137 86.2675 154.193 85.6311 154.391L78.956 146.398L73.104 149.265L82.6892 160.421C83.0931 161.467 83.8672 162.329 84.8647 162.843C85.8621 163.357 87.0137 163.487 88.1012 163.21C89.1887 162.932 90.1365 162.266 90.765 161.337C91.3936 160.408 91.6592 159.281 91.5115 158.17V158.17Z" fill="#FFB8B8"/>
<path id="Vector_9" d="M34.063 166.254C34.3475 165.652 34.4963 164.995 34.499 164.329C34.5016 163.663 34.3581 163.004 34.0784 162.4C33.7988 161.795 33.3899 161.259 32.8805 160.83C32.3711 160.4 31.7736 160.088 31.1301 159.914L29.79 149.591L23.3115 148.874L25.409 163.426C25.1881 164.525 25.3786 165.667 25.9443 166.635C26.5099 167.603 27.4116 168.331 28.4783 168.68C29.545 169.028 30.7027 168.974 31.732 168.527C32.7613 168.08 33.5907 167.271 34.0631 166.254L34.063 166.254Z" fill="#FFB8B8"/>
<path id="Vector_10" d="M24.9966 159.942C24.4719 159.942 23.9648 159.754 23.5676 159.411C23.1703 159.069 22.9094 158.595 22.8322 158.077L19.6434 136.626C19.2427 133.926 19.5668 131.168 20.5826 128.633L30.3724 104.228C30.7728 103.23 31.4297 102.355 32.2768 101.691C33.1239 101.028 34.1312 100.599 35.1971 100.449C36.263 100.298 37.3497 100.431 38.3476 100.835C39.3455 101.238 40.2193 101.897 40.8807 102.745H40.8808C41.5643 103.62 41.9961 104.664 42.1298 105.766C42.2634 106.867 42.0939 107.984 41.6394 108.996L37.0241 119.309C31.8483 130.877 29.8953 143.627 31.3716 156.213C31.4313 156.721 31.3108 157.233 31.031 157.662C30.7512 158.09 30.33 158.407 29.8405 158.557L25.6394 159.846C25.4311 159.91 25.2144 159.942 24.9966 159.942Z" fill="#CCCCCC"/>
<path id="Vector_11" d="M47.7626 92.2899C45.965 92.3286 44.1795 91.987 42.5235 91.2874C40.8675 90.5877 39.3784 89.546 38.1541 88.2305C36.9299 86.9151 35.9982 85.3557 35.4202 83.6549C34.8422 81.9541 34.6311 80.1504 34.8007 78.3623C34.9703 76.5742 35.5168 74.8422 36.4042 73.2801C37.2917 71.718 38.5 70.3612 39.9497 69.2988C41.3995 68.2364 43.058 67.4926 44.816 67.1161C46.5741 66.7395 48.3921 66.7389 50.1504 67.1143C52.777 65.5212 55.8308 64.4492 58.8915 64.7218C61.9522 64.9945 64.9792 66.8097 66.1237 69.6583C67.2683 72.507 66.0387 76.2621 63.1928 77.4198C61.3683 78.162 59.3079 77.802 57.3608 77.5027C55.4137 77.2034 53.2897 77.0081 51.5951 78.0117C49.9005 79.0153 49.1387 81.7063 50.6564 82.961C51.4609 83.6524 52.0354 84.5724 52.3033 85.5982C52.5713 86.624 52.52 87.707 52.1563 88.703C51.3935 90.6734 49.3117 92.2564 47.7626 92.2899Z" fill="#2F2E41"/>
<path id="Vector_12" d="M32.7705 240.254C32.4781 240.254 32.1888 240.196 31.9194 240.082C31.65 239.969 31.4061 239.803 31.2021 239.593C30.9981 239.384 30.8381 239.136 30.7316 238.865C30.625 238.593 30.5741 238.302 30.5818 238.01L32.7066 157.461L32.9383 157.455L68.0619 156.69L74.1263 235.015C74.1595 235.492 74.0358 235.966 73.7741 236.367C73.5125 236.767 73.1271 237.07 72.6767 237.231L72.6101 237.245L65.7165 237.666C65.4258 237.764 65.1177 237.8 64.8122 237.771C64.5066 237.742 64.2106 237.65 63.9432 237.499C63.6758 237.349 63.4431 237.144 63.2601 236.898C63.0772 236.652 62.948 236.37 62.8812 236.071L51.644 185.843C51.607 185.678 51.5133 185.531 51.3792 185.427C51.2452 185.323 51.079 185.269 50.9094 185.274C50.7398 185.279 50.5773 185.344 50.45 185.456C50.3226 185.568 50.2384 185.721 50.2117 185.888L41.91 238.055C41.8294 238.549 41.5823 239.001 41.2095 239.336C40.8368 239.67 40.3607 239.868 39.8603 239.895L32.8809 240.251C32.844 240.253 32.8072 240.254 32.7705 240.254Z" fill="#2F2E41"/>
<path id="Vector_13" d="M43.1075 164.128C38.7367 164.128 34.9197 163.468 32.812 161.586C31.4576 160.376 30.8718 158.732 31.071 156.697C31.8201 149.05 30.5221 132.288 29.3014 119.573C29.0218 116.591 29.3387 113.583 30.2337 110.725C31.1287 107.866 32.5839 105.214 34.5145 102.923C36.3722 100.703 38.6592 98.8801 41.2385 97.5637C43.8178 96.2473 46.6366 95.4642 49.5259 95.2614C53.5469 94.9753 62.9629 94.3083 65.8897 101.797C70.2865 113.045 68.1361 118.204 66.0565 123.193C64.2896 127.431 62.4627 131.814 64.7021 140.044C65.9392 144.595 67.4374 149.071 69.1892 153.45C70.4019 156.556 71.0106 158.115 70.4486 159.134C70.0053 159.937 68.8994 160.287 67.0138 160.651C66.398 160.771 65.5842 160.943 64.6149 161.149C59.6877 162.195 50.587 164.128 43.1075 164.128Z" fill="#CCCCCC"/>
<path id="Vector_14" d="M78.9922 157.078C78.9754 157.078 78.9586 157.078 78.9418 157.077C78.6267 157.07 78.3169 156.995 78.0336 156.857C77.7503 156.719 77.5001 156.522 77.3003 156.279L64.9194 141.208C62.2758 137.988 60.5352 134.125 59.8753 130.013L56.0632 106.214C55.9346 105.412 55.9676 104.592 56.1602 103.802C56.3528 103.012 56.7012 102.269 57.1849 101.615C57.6686 100.961 58.2779 100.411 58.9773 99.9951C59.6766 99.5795 60.4519 99.3074 61.2578 99.1948C62.0637 99.0822 62.8839 99.1312 63.6706 99.3391C64.4572 99.5469 65.1945 99.9094 65.8392 100.405C66.484 100.901 67.0232 101.521 67.4254 102.227C67.8276 102.934 68.0847 103.714 68.1816 104.521L69.6972 117.143C71.0985 128.803 75.6254 139.869 82.8001 149.172L83.6662 150.295C83.9788 150.7 84.1393 151.202 84.1197 151.713C84.1001 152.224 83.9017 152.712 83.559 153.092L80.6182 156.355C80.4131 156.582 80.1623 156.764 79.8822 156.889C79.6021 157.013 79.2989 157.078 78.9922 157.078Z" fill="#CCCCCC"/>
<g id="fb">
<path id="Vector_15" d="M123.1 40.8053C119.06 40.8053 115.112 39.6087 111.753 37.3669C108.394 35.125 105.776 31.9385 104.23 28.2104C102.684 24.4823 102.28 20.38 103.068 16.4223C103.856 12.4646 105.801 8.82917 108.658 5.97581C111.514 3.12244 115.153 1.17928 119.115 0.39204C123.077 -0.395201 127.184 0.00884146 130.916 1.55307C134.648 3.0973 137.838 5.71235 140.083 9.06755C142.327 12.4228 143.525 16.3674 143.525 20.4027C143.519 25.8119 141.365 30.9978 137.536 34.8228C133.707 38.6477 128.515 40.7992 123.1 40.8053V40.8053ZM123.1 0.971562C119.253 0.971562 115.492 2.11117 112.293 4.24629C109.094 6.38141 106.601 9.41613 105.129 12.9667C103.657 16.5173 103.271 20.4242 104.022 24.1935C104.772 27.9628 106.625 31.425 109.345 34.1425C112.066 36.86 115.532 38.7106 119.305 39.4604C123.079 40.2102 126.99 39.8254 130.544 38.3547C134.098 36.884 137.136 34.3934 139.274 31.198C141.411 28.0026 142.552 24.2458 142.552 20.4027C142.546 15.251 140.495 10.312 136.848 6.66923C133.202 3.02646 128.257 0.977384 123.1 0.971562V0.971562Z" fill="#CCCCCC"/>
<path id="Vector_16" fill-rule="evenodd" clip-rule="evenodd" d="M136.452 20.4828C136.451 17.934 135.72 15.4387 134.344 13.2924C132.968 11.146 131.005 9.43839 128.688 8.37174C126.37 7.3051 123.796 6.92406 121.268 7.27374C118.741 7.62342 116.367 8.68918 114.427 10.3448C112.487 12.0005 111.062 14.1767 110.322 16.6159C109.582 19.0551 109.557 21.655 110.25 24.108C110.943 26.5609 112.325 28.7642 114.233 30.4568C116.14 32.1495 118.494 33.2608 121.014 33.659V24.3394H117.623V20.4828H121.014V17.5437C121.014 14.2016 123.008 12.354 126.057 12.354C127.058 12.3679 128.058 12.4551 129.046 12.6148V15.8974H127.362C125.704 15.8974 125.186 16.9251 125.186 17.9814V20.4834H128.888L128.297 24.34H125.186V33.6602C128.327 33.1633 131.187 31.5631 133.252 29.1475C135.317 26.7319 136.452 23.6594 136.452 20.4828V20.4828Z" fill="#3F3D56"/>
<path id="Vector_17" d="M138.359 45.5811C142.857 45.5811 146.502 41.8991 146.502 37.3572C146.502 32.8153 142.857 29.1333 138.359 29.1333C133.862 29.1333 130.216 32.8153 130.216 37.3572C130.216 41.8991 133.862 45.5811 138.359 45.5811Z" fill="#3F3D56"/>
<path id="Vector_18" d="M139.988 41.7432H138.33V35.4325C137.718 36.0079 136.986 36.4413 136.187 36.7015V35.182C136.7 34.9933 137.177 34.7182 137.597 34.3686C138.073 34.0128 138.436 33.5276 138.642 32.9711H139.988V41.7432Z" fill="#3F3D56"/>
<path id="Vector_19" d="M138.359 45.5811C142.857 45.5811 146.502 41.8991 146.502 37.3572C146.502 32.8153 142.857 29.1333 138.359 29.1333C133.862 29.1333 130.216 32.8153 130.216 37.3572C130.216 41.8991 133.862 45.5811 138.359 45.5811Z" fill="#6C63FF"/>
<path id="Vector_20" d="M139.988 41.7432H138.33V35.4325C137.718 36.0079 136.986 36.4413 136.187 36.7015V35.182C136.7 34.9933 137.177 34.7182 137.597 34.3686C138.073 34.0128 138.436 33.5276 138.642 32.9711H139.988V41.7432Z" fill="white"/>
</g>
<g id="twitter">
<path id="Vector_21" d="M201.881 59.7506C197.841 59.7506 193.892 58.554 190.533 56.3122C187.175 54.0703 184.557 50.8838 183.011 47.1557C181.465 43.4276 181.06 39.3253 181.849 35.3676C182.637 31.4099 184.582 27.7745 187.438 24.9211C190.295 22.0678 193.934 20.1246 197.896 19.3374C201.858 18.5501 205.965 18.9542 209.697 20.4984C213.429 22.0426 216.619 24.6577 218.863 28.0129C221.107 31.3681 222.305 35.3127 222.305 39.348C222.299 44.7572 220.145 49.9432 216.316 53.7681C212.487 57.593 207.296 59.7445 201.881 59.7506V59.7506ZM201.881 19.9169C198.033 19.9169 194.273 21.0565 191.074 23.1916C187.875 25.3267 185.382 28.3614 183.909 31.912C182.437 35.4626 182.052 39.3695 182.802 43.1388C183.553 46.9081 185.406 50.3704 188.126 53.0878C190.846 55.8053 194.312 57.656 198.086 58.4057C201.859 59.1555 205.77 58.7707 209.325 57.3C212.879 55.8293 215.917 53.3388 218.054 50.1433C220.192 46.9479 221.333 43.1911 221.333 39.348C221.327 34.1963 219.275 29.2573 215.629 25.6145C211.982 21.9718 207.038 19.9227 201.881 19.9169V19.9169Z" fill="#CCCCCC"/>
<path id="Vector_22" d="M213.552 33.7604L215.983 33.2746C215.983 33.2746 213.941 35.5578 213.552 35.7035C213.515 36.1886 213.515 36.6757 213.552 37.1608C208.883 57.1749 191.668 48.3337 191.668 48.3337C197.941 48.4794 198.476 45.9048 198.476 45.9048C194.829 45.3705 194.1 42.9902 194.1 42.9902C194.427 43.1626 194.806 43.2084 195.165 43.1188C195.524 43.0291 195.837 42.8104 196.045 42.5044C192.106 41.4843 192.641 37.6466 192.641 37.6466C193.343 38.153 194.163 38.4708 195.024 38.5696C194.586 38.0352 190.89 33.6147 193.127 31.3315C193.127 31.3315 195.85 36.1893 202.999 36.6265L203.485 36.5293C203.403 36.1795 203.37 35.8196 203.388 35.4606C203.388 34.1078 203.926 32.8105 204.884 31.8539C205.841 30.8973 207.14 30.36 208.494 30.36C211.898 30.36 212.628 32.3031 212.628 32.3031L215.059 30.8457C215.011 30.8457 214.767 33.2746 213.552 33.7604Z" fill="#3F3D56"/>
<path id="Vector_23" d="M216.767 66.1514C221.314 66.1514 225 62.4695 225 57.9275C225 53.3856 221.314 49.7036 216.767 49.7036C212.22 49.7036 208.534 53.3856 208.534 57.9275C208.534 62.4695 212.22 66.1514 216.767 66.1514Z" fill="#3F3D56"/>
<path id="Vector_24" d="M215.789 59.2719C215.761 59.7132 215.886 60.1509 216.143 60.5112C216.234 60.6418 216.354 60.7493 216.494 60.8251C216.634 60.901 216.79 60.9431 216.95 60.9482C217.091 60.9495 217.23 60.9178 217.357 60.8557C217.483 60.7936 217.593 60.7027 217.679 60.5905C217.903 60.2429 218.006 59.8307 217.97 59.4185C218.005 58.9857 217.895 58.5537 217.656 58.1907C217.566 58.0713 217.449 57.9741 217.315 57.9067C217.181 57.8392 217.034 57.8032 216.884 57.8015C216.734 57.7998 216.586 57.8324 216.45 57.8967C216.315 57.9611 216.196 58.0556 216.103 58.1729C215.872 58.4909 215.761 58.8801 215.789 59.2719V59.2719ZM219.36 55.68L217.835 55.8562C217.823 55.588 217.72 55.3319 217.544 55.1298C217.463 55.0513 217.367 54.99 217.262 54.9497C217.157 54.9094 217.045 54.8909 216.933 54.8954C216.764 54.8978 216.599 54.9418 216.452 55.0235C216.304 55.1053 216.18 55.2222 216.089 55.3639C215.785 55.9687 215.635 56.6394 215.654 57.316C215.824 57.0886 216.045 56.9042 216.299 56.7778C216.553 56.6515 216.834 56.5866 217.118 56.5884C217.44 56.5872 217.758 56.657 218.05 56.7929C218.342 56.9287 218.601 57.1273 218.808 57.3744C219.291 57.9366 219.542 58.6612 219.511 59.4016C219.549 60.1759 219.283 60.9345 218.771 61.517C218.511 61.7862 218.195 61.9963 217.847 62.1331C217.498 62.2699 217.123 62.3302 216.749 62.3099C216.375 62.2896 216.009 62.1891 215.677 62.0153C215.345 61.8415 215.055 61.5985 214.825 61.3026C214.29 60.6291 214.023 59.5246 214.023 57.9892C214.023 56.4146 214.302 55.2798 214.859 54.5845C215.112 54.2519 215.441 53.9839 215.818 53.8026C216.195 53.6213 216.61 53.5318 217.028 53.5415C217.596 53.5212 218.15 53.717 218.578 54.0892C219.017 54.5121 219.293 55.0748 219.36 55.68V55.68Z" fill="#3F3D56"/>
<path id="Vector_25" d="M216.767 66.1514C221.314 66.1514 225 62.4695 225 57.9275C225 53.3856 221.314 49.7036 216.767 49.7036C212.22 49.7036 208.534 53.3856 208.534 57.9275C208.534 62.4695 212.22 66.1514 216.767 66.1514Z" fill="#6C63FF"/>
<path id="Vector_26" d="M215.789 59.2719C215.761 59.7132 215.886 60.1509 216.143 60.5112C216.234 60.6418 216.354 60.7493 216.494 60.8251C216.634 60.901 216.79 60.9431 216.95 60.9482C217.091 60.9495 217.23 60.9178 217.357 60.8557C217.483 60.7936 217.593 60.7027 217.679 60.5905C217.903 60.2429 218.006 59.8307 217.97 59.4185C218.005 58.9857 217.895 58.5537 217.656 58.1907C217.566 58.0713 217.449 57.9741 217.315 57.9067C217.181 57.8392 217.034 57.8032 216.884 57.8015C216.734 57.7998 216.586 57.8324 216.45 57.8967C216.315 57.9611 216.196 58.0556 216.103 58.1729C215.872 58.4909 215.761 58.8801 215.789 59.2719V59.2719ZM219.36 55.68L217.835 55.8562C217.823 55.588 217.72 55.3319 217.544 55.1298C217.463 55.0513 217.367 54.99 217.262 54.9497C217.157 54.9094 217.045 54.8909 216.933 54.8954C216.764 54.8978 216.599 54.9418 216.452 55.0235C216.304 55.1053 216.18 55.2222 216.089 55.3639C215.785 55.9687 215.635 56.6394 215.654 57.316C215.824 57.0886 216.045 56.9042 216.299 56.7778C216.553 56.6515 216.834 56.5866 217.118 56.5884C217.44 56.5872 217.758 56.657 218.05 56.7929C218.342 56.9287 218.601 57.1273 218.808 57.3744C219.291 57.9366 219.542 58.6612 219.511 59.4016C219.549 60.1759 219.283 60.9345 218.771 61.517C218.511 61.7862 218.195 61.9963 217.847 62.1331C217.498 62.2699 217.123 62.3302 216.749 62.3099C216.375 62.2896 216.009 62.1891 215.677 62.0153C215.345 61.8415 215.055 61.5985 214.825 61.3026C214.29 60.6291 214.023 59.5246 214.023 57.9892C214.023 56.4146 214.302 55.2798 214.859 54.5845C215.112 54.2519 215.441 53.9839 215.818 53.8026C216.195 53.6213 216.61 53.5318 217.028 53.5415C217.596 53.5212 218.15 53.717 218.578 54.0892C219.017 54.5121 219.293 55.0748 219.36 55.68V55.68Z" fill="white"/>
</g>
<g id="linkedin">
<path id="Vector_27" d="M165.408 124.359C161.368 124.359 157.419 123.162 154.061 120.921C150.702 118.679 148.084 115.492 146.538 111.764C144.992 108.036 144.588 103.934 145.376 99.976C146.164 96.0183 148.109 92.3829 150.966 89.5295C153.822 86.6762 157.461 84.733 161.423 83.9458C165.385 83.1585 169.492 83.5626 173.224 85.1068C176.956 86.651 180.146 89.2661 182.39 92.6213C184.635 95.9765 185.832 99.9211 185.832 103.956C185.826 109.366 183.673 114.552 179.843 118.376C176.014 122.201 170.823 124.353 165.408 124.359V124.359ZM165.408 84.5253C161.561 84.5253 157.8 85.6649 154.601 87.8C151.402 89.9351 148.909 92.9699 147.437 96.5204C145.964 100.071 145.579 103.978 146.33 107.747C147.08 111.516 148.933 114.979 151.653 117.696C154.374 120.414 157.84 122.264 161.613 123.014C165.386 123.764 169.298 123.379 172.852 121.908C176.406 120.438 179.444 117.947 181.582 114.752C183.719 111.556 184.86 107.8 184.86 103.956C184.854 98.8047 182.803 93.8657 179.156 90.223C175.509 86.5802 170.565 84.5311 165.408 84.5253V84.5253Z" fill="#CCCCCC"/>
<path id="Vector_28" d="M174.487 92.7826L156.464 92.7843C156.232 92.773 156 92.8077 155.782 92.8861C155.564 92.9646 155.363 93.0853 155.192 93.2415C155.02 93.3976 154.881 93.586 154.783 93.7959C154.684 94.0058 154.629 94.233 154.618 94.4645L154.62 112.509C154.633 112.994 154.831 113.457 155.174 113.8C155.517 114.144 155.98 114.344 156.466 114.357L174.484 114.356C174.958 114.337 175.406 114.133 175.73 113.787C176.054 113.441 176.229 112.981 176.216 112.507L176.215 94.4626C176.218 94.237 176.176 94.0131 176.09 93.8046C176.004 93.596 175.876 93.4073 175.714 93.2499C175.552 93.0926 175.36 92.97 175.149 92.8896C174.938 92.8092 174.713 92.7728 174.487 92.7826V92.7826ZM161.314 110.766L158.22 110.766L158.22 101.157L161.313 101.157L161.314 110.766ZM159.873 99.696H159.851C159.406 99.6931 158.98 99.514 158.667 99.198C158.354 98.8819 158.178 98.4548 158.18 98.01C158.181 97.5653 158.359 97.1393 158.675 96.8254C158.99 96.5114 159.417 96.3351 159.862 96.3351C160.307 96.3351 160.734 96.5114 161.05 96.8254C161.365 97.1393 161.543 97.5653 161.544 98.01C161.546 98.4548 161.371 98.8819 161.058 99.198C160.744 99.514 160.319 99.6931 159.873 99.696V99.696ZM172.621 110.765L169.528 110.765L169.527 105.511C169.527 104.252 169.077 103.392 167.957 103.393C167.607 103.395 167.267 103.507 166.982 103.711C166.698 103.915 166.485 104.203 166.371 104.533C166.289 104.778 166.252 105.035 166.264 105.292L166.265 110.766L163.171 110.766L163.17 101.157L166.264 101.156L166.264 102.494C166.545 102.007 166.953 101.605 167.444 101.33C167.935 101.055 168.491 100.917 169.054 100.931C171.085 100.931 172.621 102.268 172.621 105.151V110.765Z" fill="#3F3D56"/>
<path id="Vector_29" d="M182.121 129.69C186.668 129.69 190.354 126.008 190.354 121.466C190.354 116.924 186.668 113.242 182.121 113.242C177.575 113.242 173.889 116.924 173.889 121.466C173.889 126.008 177.575 129.69 182.121 129.69Z" fill="#3F3D56"/>
<path id="Vector_30" d="M181.102 119.41C181.094 119.55 181.114 119.689 181.16 119.821C181.207 119.953 181.279 120.074 181.373 120.177C181.467 120.27 181.58 120.342 181.704 120.39C181.828 120.437 181.96 120.458 182.093 120.452C182.227 120.459 182.361 120.437 182.486 120.389C182.612 120.341 182.726 120.268 182.821 120.174C182.916 120.071 182.989 119.949 183.036 119.817C183.083 119.685 183.103 119.544 183.095 119.404C183.101 119.269 183.081 119.134 183.034 119.007C182.988 118.879 182.917 118.763 182.825 118.663C182.731 118.57 182.62 118.497 182.497 118.449C182.374 118.401 182.242 118.38 182.11 118.385C181.975 118.379 181.84 118.4 181.713 118.449C181.587 118.497 181.472 118.571 181.376 118.666C181.283 118.766 181.211 118.883 181.164 119.011C181.117 119.138 181.096 119.274 181.102 119.41V119.41ZM180.954 123.088C180.931 123.471 181.052 123.849 181.293 124.147C181.397 124.269 181.527 124.367 181.673 124.433C181.819 124.498 181.978 124.531 182.139 124.528C182.294 124.532 182.448 124.501 182.59 124.437C182.732 124.374 182.857 124.28 182.958 124.162C183.193 123.862 183.309 123.485 183.283 123.105C183.3 122.752 183.182 122.406 182.953 122.137C182.849 122.018 182.72 121.924 182.575 121.86C182.431 121.797 182.274 121.766 182.116 121.77C181.947 121.759 181.777 121.791 181.624 121.864C181.471 121.937 181.34 122.048 181.242 122.186C181.055 122.45 180.954 122.765 180.954 123.088V123.088ZM180.773 121.067C180.4 120.923 180.084 120.663 179.87 120.326C179.683 120.015 179.585 119.657 179.588 119.293C179.58 118.998 179.633 118.704 179.745 118.431C179.857 118.157 180.026 117.91 180.24 117.706C180.771 117.3 181.421 117.08 182.09 117.08C182.759 117.08 183.41 117.3 183.941 117.706C184.156 117.909 184.326 118.156 184.44 118.429C184.553 118.703 184.607 118.998 184.598 119.294C184.606 119.67 184.501 120.041 184.296 120.357C184.091 120.673 183.795 120.921 183.448 121.067C183.875 121.226 184.242 121.515 184.497 121.893C184.751 122.271 184.88 122.72 184.866 123.175C184.886 123.534 184.829 123.892 184.7 124.227C184.571 124.562 184.373 124.866 184.118 125.119C183.863 125.372 183.558 125.568 183.221 125.694C182.885 125.82 182.526 125.874 182.167 125.852C181.482 125.876 180.811 125.659 180.271 125.237C179.977 124.998 179.743 124.693 179.588 124.347C179.433 124.001 179.361 123.624 179.377 123.245C179.373 122.797 179.489 122.355 179.713 121.967C179.959 121.559 180.331 121.244 180.773 121.067V121.067Z" fill="#3F3D56"/>
<path id="Vector_31" d="M182.121 129.69C186.668 129.69 190.354 126.008 190.354 121.466C190.354 116.924 186.668 113.242 182.121 113.242C177.575 113.242 173.889 116.924 173.889 121.466C173.889 126.008 177.575 129.69 182.121 129.69Z" fill="#6C63FF"/>
<path id="Vector_32" d="M181.102 119.41C181.094 119.55 181.114 119.689 181.16 119.821C181.207 119.953 181.279 120.074 181.373 120.177C181.467 120.27 181.58 120.342 181.704 120.39C181.828 120.437 181.96 120.458 182.093 120.452C182.227 120.459 182.361 120.437 182.486 120.389C182.612 120.341 182.726 120.268 182.821 120.174C182.916 120.071 182.989 119.949 183.036 119.817C183.083 119.685 183.103 119.544 183.095 119.404C183.101 119.269 183.081 119.134 183.034 119.007C182.988 118.879 182.917 118.763 182.825 118.663C182.731 118.57 182.62 118.497 182.497 118.449C182.374 118.401 182.242 118.38 182.11 118.385C181.975 118.379 181.84 118.4 181.713 118.449C181.587 118.497 181.472 118.571 181.376 118.666C181.283 118.766 181.211 118.883 181.164 119.011C181.117 119.138 181.096 119.274 181.102 119.41V119.41ZM180.954 123.088C180.931 123.471 181.052 123.849 181.293 124.147C181.397 124.269 181.527 124.367 181.673 124.433C181.819 124.498 181.978 124.531 182.139 124.528C182.294 124.532 182.448 124.501 182.59 124.437C182.732 124.374 182.857 124.28 182.958 124.162C183.193 123.862 183.309 123.485 183.283 123.105C183.3 122.752 183.182 122.406 182.953 122.137C182.849 122.018 182.72 121.924 182.575 121.86C182.431 121.797 182.274 121.766 182.116 121.77C181.947 121.759 181.777 121.791 181.624 121.864C181.471 121.937 181.34 122.048 181.242 122.186C181.055 122.45 180.954 122.765 180.954 123.088V123.088ZM180.773 121.067C180.4 120.923 180.084 120.663 179.87 120.326C179.683 120.015 179.585 119.657 179.588 119.293C179.58 118.998 179.633 118.704 179.745 118.431C179.857 118.157 180.026 117.91 180.24 117.706C180.771 117.3 181.421 117.08 182.09 117.08C182.759 117.08 183.41 117.3 183.941 117.706C184.156 117.909 184.326 118.156 184.44 118.429C184.553 118.703 184.607 118.998 184.598 119.294C184.606 119.67 184.501 120.041 184.296 120.357C184.091 120.673 183.795 120.921 183.448 121.067C183.875 121.226 184.242 121.515 184.497 121.893C184.751 122.271 184.88 122.72 184.866 123.175C184.886 123.534 184.829 123.892 184.7 124.227C184.571 124.562 184.373 124.866 184.118 125.119C183.863 125.372 183.558 125.568 183.221 125.694C182.885 125.82 182.526 125.874 182.167 125.852C181.482 125.876 180.811 125.659 180.271 125.237C179.977 124.998 179.743 124.693 179.588 124.347C179.433 124.001 179.361 123.624 179.377 123.245C179.373 122.797 179.489 122.355 179.713 121.967C179.959 121.559 180.331 121.244 180.773 121.067V121.067Z" fill="white"/>
</g>
<path id="Vector_33" d="M112.821 250.648H0.486299C0.357324 250.648 0.233625 250.597 0.142426 250.505C0.0512271 250.414 0 250.291 0 250.162C0 250.033 0.0512271 249.91 0.142426 249.819C0.233625 249.727 0.357324 249.676 0.486299 249.676H112.821C112.95 249.676 113.074 249.727 113.165 249.819C113.256 249.91 113.308 250.033 113.308 250.162C113.308 250.291 113.256 250.414 113.165 250.505C113.074 250.597 112.95 250.648 112.821 250.648Z" fill="#CCCCCC"/>
</g>
</svg>
