<svg width="263" height="219" viewBox="0 0 263 219" fill="none" xmlns="http://www.w3.org/2000/svg">
<g id="speed">
<g id="speedometer">
<path id="Vector" d="M214.779 165.701C217.767 160.711 219.342 155.002 219.333 149.185C219.333 131.41 204.932 117 187.167 117C169.401 117 155 131.41 155 149.185C154.991 155.002 156.566 160.711 159.555 165.701H214.779Z" fill="#3F3D56"/>
<path id="Vector_2" d="M162.477 153.702C163.334 153.702 164.029 153.007 164.029 152.149C164.029 151.292 163.334 150.596 162.477 150.596C161.62 150.596 160.925 151.292 160.925 152.149C160.925 153.007 161.62 153.702 162.477 153.702Z" fill="#6C63FF"/>
<path id="Vector_3" d="M163.388 140.253C164.245 140.253 164.94 139.558 164.94 138.7C164.94 137.843 164.245 137.147 163.388 137.147C162.531 137.147 161.836 137.843 161.836 138.7C161.836 139.558 162.531 140.253 163.388 140.253Z" fill="#6C63FF"/>
<path id="Vector_4" d="M171.091 129.194C171.948 129.194 172.643 128.499 172.643 127.641C172.643 126.784 171.948 126.089 171.091 126.089C170.234 126.089 169.539 126.784 169.539 127.641C169.539 128.499 170.234 129.194 171.091 129.194Z" fill="#6C63FF"/>
<path id="Vector_5" d="M183.387 123.685C184.244 123.685 184.939 122.99 184.939 122.132C184.939 121.274 184.244 120.579 183.387 120.579C182.53 120.579 181.835 121.274 181.835 122.132C181.835 122.99 182.53 123.685 183.387 123.685Z" fill="#6C63FF"/>
<path id="Vector_6" d="M196.762 125.299C197.619 125.299 198.314 124.603 198.314 123.746C198.314 122.888 197.619 122.193 196.762 122.193C195.905 122.193 195.21 122.888 195.21 123.746C195.21 124.603 195.905 125.299 196.762 125.299Z" fill="#6C63FF"/>
<path id="Vector_7" d="M207.396 133.574C208.253 133.574 208.948 132.879 208.948 132.022C208.948 131.164 208.253 130.469 207.396 130.469C206.539 130.469 205.844 131.164 205.844 132.022C205.844 132.879 206.539 133.574 207.396 133.574Z" fill="#6C63FF"/>
<path id="Vector_8" d="M212.251 146.148C213.108 146.148 213.803 145.453 213.803 144.596C213.803 143.738 213.108 143.043 212.251 143.043C211.394 143.043 210.699 143.738 210.699 144.596C210.699 145.453 211.394 146.148 212.251 146.148Z" fill="#6C63FF"/>
<path id="Vector_9" d="M209.941 159.428C210.798 159.428 211.493 158.733 211.493 157.876C211.493 157.018 210.798 156.323 209.941 156.323C209.084 156.323 208.389 157.018 208.389 157.876C208.389 158.733 209.084 159.428 209.941 159.428Z" fill="#6C63FF"/>
<g id="needle">
<path id="Vector_10" d="M187.167 150.173C188.881 150.173 190.271 148.782 190.271 147.067C190.271 145.352 188.881 143.962 187.167 143.962C185.453 143.962 184.063 145.352 184.063 147.067C184.063 148.782 185.453 150.173 187.167 150.173Z" fill="#6C63FF"/>
<path id="Vector_11" d="M187.167 147.067L203.109 134.927" stroke="#6C63FF" stroke-width="4" stroke-miterlimit="10"/>
</g>
</g>
<g id="Group" opacity="0.7">
<path id="Vector_12" opacity="0.7" d="M166.181 98.5754C166.204 91.6464 164.545 84.8153 161.348 78.6687C159.83 75.7822 158.446 73.9877 157.368 72.8872C156.962 72.4561 156.432 72.1628 155.851 72.048C155.27 71.9333 154.667 72.003 154.128 72.2473C153.697 72.3995 153.307 72.6508 152.991 72.981C151.549 74.474 150.248 76.4476 149.11 78.5492C145.747 84.8395 144.001 91.8683 144.031 99.002V103.285H141.285V53.5179C141.285 43.0867 138.951 32.7949 134.38 23.6577C132.214 19.3323 130.238 16.6449 128.717 14.9926C128.349 14.5726 127.895 14.2361 127.386 14.0055C126.877 13.775 126.325 13.6557 125.766 13.6557C125.208 13.6557 124.656 13.775 124.147 14.0055C123.638 14.2361 123.184 14.5726 122.816 14.9926C120.757 17.2307 118.901 20.1883 117.278 23.3335C112.471 32.6584 110.029 43.2403 110.029 53.9814V103.285H107.656V98.7972C107.685 91.6636 105.939 84.6347 102.576 78.3445C101.439 76.2457 100.137 74.2721 98.6954 72.7763C98.2805 72.3391 97.7376 72.0452 97.1449 71.9368C96.5522 71.8285 95.9404 71.9113 95.3978 72.1734L95.4973 72.2274C95.1493 72.3813 94.8345 72.6015 94.5706 72.8758C93.5046 73.9764 92.1202 75.7708 90.5909 78.6573C87.3937 84.804 85.7354 91.635 85.7583 98.5641V172.97H94.2295L93.3056 179.087V197.376H100.23V179.087L99.3065 172.97H107.656V105.21H110.029V172.666H116.795L115.823 179.084V197.376H122.75V179.087L121.778 172.668H130.895L129.922 179.087V197.376H136.85V179.087L135.878 172.668H141.279V105.21H144.025V173.072H146.251V172.97H153.61L152.687 179.087V197.376H159.614V179.087L158.69 172.97H166.181V98.5754Z" fill="url(#paint0_linear)"/>
</g>
<path id="Vector_13" d="M101.609 175.521H95.051L96.2222 167.555H100.438L101.609 175.521Z" fill="#535461"/>
<g id="Group_2" opacity="0.1">
<path id="Vector_14" opacity="0.1" d="M95.8953 170.718H100.765L100.438 168.491H96.2222L95.8953 170.718Z" fill="black"/>
</g>
<path id="Vector_15" d="M157.826 175.521H151.268L152.439 167.555H156.655L157.826 175.521Z" fill="#535461"/>
<g id="Group_3" opacity="0.1">
<path id="Vector_16" opacity="0.1" d="M152.112 170.718H156.982L156.655 168.491H152.439L152.112 170.718Z" fill="black"/>
</g>
<path id="Vector_17" d="M122.926 175.521H116.365L117.537 167.555H121.755L122.926 175.521Z" fill="#535461"/>
<g id="Group_4" opacity="0.1">
<path id="Vector_18" opacity="0.1" d="M117.21 170.718H122.082L121.755 168.491H117.537L117.21 170.718Z" fill="black"/>
</g>
<path id="Vector_19" d="M136.276 175.521H129.718L130.889 167.555H135.104L136.276 175.521Z" fill="#535461"/>
<g id="Group_5" opacity="0.1">
<path id="Vector_20" opacity="0.1" d="M130.562 170.718H135.434L135.105 168.491H130.889L130.562 170.718Z" fill="black"/>
</g>
<path id="Vector_21" d="M148.457 101.706H101.609V103.581H148.457V101.706Z" fill="#535461"/>
<path id="Vector_22" d="M155.7 72.0938C155.452 71.8204 155.15 71.6019 154.813 71.4524C154.476 71.3028 154.111 71.2256 153.743 71.2256C153.374 71.2256 153.009 71.3028 152.672 71.4524C152.335 71.6019 152.033 71.8204 151.785 72.0938C150.421 73.547 149.19 75.4694 148.113 77.5141C144.924 83.6631 143.275 90.494 143.306 97.4209V169.566H164.037V97.1223C164.063 90.3853 162.494 83.738 159.458 77.7246C158.019 74.9149 156.709 73.1659 155.7 72.0938Z" fill="#E0E0E0"/>
<path id="Vector_23" d="M96.2506 72.0938C96.4982 71.8204 96.8002 71.6019 97.1373 71.4524C97.4744 71.3028 97.839 71.2256 98.2078 71.2256C98.5765 71.2256 98.9412 71.3028 99.2783 71.4524C99.6154 71.6019 99.9174 71.8204 100.165 72.0938C101.529 73.547 102.76 75.4694 103.838 77.5141C107.026 83.6631 108.675 90.494 108.645 97.4209V169.566H87.9073V97.1223C87.8812 90.3853 89.4506 83.738 92.4869 77.7246C93.9224 74.9149 95.2329 73.1659 96.2506 72.0938Z" fill="#E0E0E0"/>
<path id="Vector_24" d="M88.0239 98.6608L92.9418 98.6835V104.752H88.0239V98.6608Z" fill="#535461"/>
<path id="Vector_25" d="M103.719 98.6608L108.636 98.6835V104.752H103.719V98.6608Z" fill="#535461"/>
<path id="Vector_26" d="M143.303 98.6608L148.224 98.6835V104.752H143.303V98.6608Z" fill="#535461"/>
<path id="Vector_27" d="M158.997 98.6608L163.918 98.6835V104.752H158.997V98.6608Z" fill="#535461"/>
<g id="Group_6" opacity="0.1">
<path id="Vector_28" opacity="0.1" d="M103.829 77.4203C102.755 75.3755 101.521 73.4531 100.157 71.9999C99.7709 71.5739 99.2566 71.2857 98.692 71.1795C98.1274 71.0732 97.5436 71.1546 97.0295 71.4113C97.3257 71.5591 97.5933 71.7584 97.8198 71.9999C99.1843 73.4531 100.415 75.3755 101.493 77.4203C104.681 83.5692 106.33 90.4002 106.3 97.327V169.466H108.642V97.3355C108.672 90.4053 107.021 83.5713 103.829 77.4203V77.4203Z" fill="black"/>
</g>
<g id="Group_7" opacity="0.1">
<path id="Vector_29" opacity="0.1" d="M149.978 77.6193C151.052 75.5746 152.286 73.6522 153.65 72.199C153.906 71.9239 154.214 71.7034 154.557 71.5506C154.05 71.3286 153.487 71.2717 152.946 71.3881C152.405 71.5045 151.915 71.7882 151.544 72.199C150.179 73.6522 148.949 75.5746 147.871 77.6193C144.683 83.7683 143.033 90.5992 143.064 97.5261V169.665H145.173V97.5374C145.14 90.607 146.789 83.7719 149.978 77.6193V77.6193Z" fill="black"/>
</g>
<path id="Vector_30" d="M101.609 175.521H95.051V193.329H101.609V175.521Z" fill="url(#paint1_linear)"/>
<path id="Vector_31" d="M122.924 175.521H116.365V193.329H122.924V175.521Z" fill="url(#paint2_linear)"/>
<path id="Vector_32" d="M136.276 175.521H129.718V193.329H136.276V175.521Z" fill="url(#paint3_linear)"/>
<path id="Vector_33" d="M157.826 175.521H151.268V193.329H157.826V175.521Z" fill="url(#paint4_linear)"/>
<path id="Vector_34" d="M128.572 15.5301C128.229 15.1227 127.802 14.7953 127.319 14.5706C126.837 14.3459 126.311 14.2295 125.779 14.2295C125.247 14.2295 124.721 14.3459 124.239 14.5706C123.756 14.7953 123.329 15.1227 122.986 15.5301C121.039 17.7085 119.291 20.5893 117.744 23.6549C113.196 32.7381 110.882 43.047 110.882 53.5008V169.27H140.471V53.0345C140.471 42.8763 138.263 32.8433 133.933 23.9677C131.884 19.756 130.013 17.1397 128.572 15.5301Z" fill="#EEEEEE"/>
<path id="Vector_35" d="M130.064 28.3899H120.88C119.153 28.3899 117.753 29.7904 117.753 31.5181V32.34C117.753 34.0676 119.153 35.4682 120.88 35.4682H130.064C131.791 35.4682 133.191 34.0676 133.191 32.34V31.5181C133.191 29.7904 131.791 28.3899 130.064 28.3899Z" fill="#6C63FF"/>
<path id="cloud1" d="M77.5231 208.219C88.9573 208.219 98.2265 198.946 98.2265 187.507C98.2265 176.069 88.9573 166.796 77.5231 166.796C66.089 166.796 56.8198 176.069 56.8198 187.507C56.8198 198.946 66.089 208.219 77.5231 208.219Z" fill="url(#paint5_linear)"/>
<path id="cloud3" d="M77.4207 217.953C89.9412 217.953 100.091 207.8 100.091 195.274C100.091 182.748 89.9412 172.595 77.4207 172.595C64.9002 172.595 54.7502 182.748 54.7502 195.274C54.7502 207.8 64.9002 217.953 77.4207 217.953Z" fill="url(#paint6_linear)"/>
<path id="cloud7" d="M169.552 217.953C182.073 217.953 192.223 207.8 192.223 195.274C192.223 182.748 182.073 172.595 169.552 172.595C157.032 172.595 146.882 182.748 146.882 195.274C146.882 207.8 157.032 217.953 169.552 217.953Z" fill="url(#paint7_linear)"/>
<path id="cloud5" d="M168.412 217.953C179.846 217.953 189.116 208.681 189.116 197.242C189.116 185.803 179.846 176.53 168.412 176.53C156.978 176.53 147.709 185.803 147.709 197.242C147.709 208.681 156.978 217.953 168.412 217.953Z" fill="url(#paint8_linear)"/>
<path id="cloud4" d="M145.017 201.178C145.02 204.453 144.246 207.682 142.757 210.599C141.269 213.516 139.109 216.038 136.455 217.956H112.17C109.295 215.878 107.003 213.096 105.511 209.877C104.02 206.658 103.379 203.11 103.652 199.572C103.924 196.035 105.1 192.627 107.066 189.674C109.033 186.721 111.724 184.323 114.883 182.71C118.042 181.096 121.561 180.321 125.105 180.459C128.649 180.596 132.099 181.642 135.123 183.495C138.147 185.349 140.644 187.948 142.376 191.044C144.108 194.141 145.017 197.63 145.014 201.178H145.017Z" fill="url(#paint9_linear)"/>
<path id="cloud5_2" d="M170.692 216.091C170.692 216.711 170.665 217.324 170.61 217.931C170.612 217.939 170.612 217.948 170.61 217.956H129.368C129.311 217.342 129.283 216.719 129.283 216.094C129.279 211.137 131.054 206.345 134.284 202.587C137.515 198.829 141.986 196.356 146.885 195.618C147.908 195.464 148.942 195.386 149.977 195.385C150.506 195.385 151.032 195.405 151.552 195.442C155.263 195.726 158.829 197.004 161.875 199.143C164.921 201.282 167.336 204.202 168.864 207.596C168.95 207.784 169.032 207.974 169.109 208.165C170.154 210.677 170.692 213.37 170.692 216.091V216.091Z" fill="url(#paint10_linear)"/>
<path id="cloud6" d="M209.822 211.947C209.824 213.982 209.525 216.006 208.935 217.953H169.308C168.35 214.769 168.168 211.401 168.776 208.131C168.81 207.952 168.845 207.77 168.884 207.593C169.882 202.963 172.435 198.814 176.119 195.838C179.803 192.862 184.395 191.239 189.13 191.239C189.781 191.239 190.421 191.267 191.054 191.33C191.339 191.352 191.623 191.386 191.907 191.423C196.869 192.099 201.419 194.55 204.713 198.324C208.006 202.098 209.822 206.938 209.822 211.947V211.947Z" fill="url(#paint11_linear)"/>
<path id="cloud2" d="M82.6427 217.956C82.7109 217.74 82.7706 217.524 82.8303 217.305C83.7728 213.779 83.7676 210.066 82.8153 206.542C81.863 203.019 79.9974 199.809 77.4071 197.238C74.8168 194.667 71.5938 192.827 68.0641 191.902C64.5344 190.977 60.8231 191.001 57.3058 191.972C56.4822 192.198 55.6741 192.478 54.8867 192.808C50.1452 194.782 46.3051 198.446 44.1107 203.091C41.9164 207.736 41.5241 213.03 43.0099 217.948H82.6427V217.956Z" fill="url(#paint12_linear)"/>
<g id="Group_8" opacity="0.7">
<path id="Vector_36" opacity="0.7" d="M201.953 175.359C204.051 175.359 205.751 173.658 205.751 171.559C205.751 169.461 204.051 167.76 201.953 167.76C199.856 167.76 198.155 169.461 198.155 171.559C198.155 173.658 199.856 175.359 201.953 175.359Z" fill="url(#paint13_linear)"/>
</g>
<path id="Vector_37" d="M201.953 175.08C203.897 175.08 205.472 173.504 205.472 171.559C205.472 169.615 203.897 168.039 201.953 168.039C200.009 168.039 198.434 169.615 198.434 171.559C198.434 173.504 200.009 175.08 201.953 175.08Z" fill="url(#paint14_linear)"/>
<g id="Group_9" opacity="0.7">
<path id="Vector_38" opacity="0.7" d="M219.345 212.363C221.632 212.363 223.486 210.507 223.486 208.219C223.486 205.931 221.632 204.076 219.345 204.076C217.057 204.076 215.203 205.931 215.203 208.219C215.203 210.507 217.057 212.363 219.345 212.363Z" fill="url(#paint15_linear)"/>
</g>
<path id="Vector_39" d="M219.345 212.155C221.518 212.155 223.279 210.393 223.279 208.219C223.279 206.045 221.518 204.283 219.345 204.283C217.172 204.283 215.411 206.045 215.411 208.219C215.411 210.393 217.172 212.155 219.345 212.155Z" fill="url(#paint16_linear)"/>
<g id="Group_10" opacity="0.7">
<path id="Vector_40" opacity="0.7" d="M42.1202 189.16C44.6338 189.16 46.6714 187.121 46.6714 184.607C46.6714 182.092 44.6338 180.054 42.1202 180.054C39.6067 180.054 37.5691 182.092 37.5691 184.607C37.5691 187.121 39.6067 189.16 42.1202 189.16Z" fill="url(#paint17_linear)"/>
</g>
<path id="Vector_41" d="M42.1202 188.955C44.5206 188.955 46.4666 187.008 46.4666 184.607C46.4666 182.205 44.5206 180.259 42.1202 180.259C39.7197 180.259 37.7737 182.205 37.7737 184.607C37.7737 187.008 39.7197 188.955 42.1202 188.955Z" fill="url(#paint18_linear)"/>
<g id="bigMoon">
<g id="Group_11" opacity="0.4">
<path id="Vector_42" opacity="0.4" d="M213.577 4.96818C212.568 3.6346 211.304 2.51515 209.859 1.67503C208.2 0.721707 206.345 0.162263 204.437 0.0398657C202.528 -0.0825314 200.617 0.235393 198.85 0.969105C197.084 1.70282 195.51 2.8327 194.249 4.27157C192.988 5.71044 192.075 7.41982 191.579 9.26782C191.084 11.1158 191.019 13.053 191.391 14.9299C191.762 16.8069 192.559 18.5733 193.722 20.093C194.884 21.6127 196.379 22.845 198.093 23.6949C199.806 24.5447 201.692 24.9893 203.605 24.9944C203.869 24.9944 204.133 24.9944 204.395 24.9688C206.645 24.8268 208.815 24.0777 210.674 22.8011C212.533 21.5245 214.011 19.768 214.952 17.7183C215.893 15.6686 216.262 13.4021 216.019 11.1597C215.775 8.91726 214.93 6.78258 213.571 4.9824L213.577 4.96818Z" fill="url(#paint19_linear)"/>
</g>
<path id="Vector_43" opacity="0.2" d="M215.41 12.49C215.411 15.4915 214.268 18.3804 212.215 20.5691C210.162 22.7578 207.352 24.0818 204.358 24.272C204.111 24.2891 203.861 24.2976 203.61 24.2976C201.801 24.2965 200.016 23.8792 198.394 23.0779C196.771 22.2765 195.355 21.1127 194.254 19.6763C193.153 18.2398 192.396 16.5694 192.044 14.794C191.691 13.0185 191.751 11.1858 192.22 9.43733C192.688 7.68889 193.552 6.07162 194.745 4.71055C195.938 3.34948 197.427 2.28107 199.099 1.58793C200.77 0.894788 202.579 0.595477 204.384 0.713138C206.19 0.8308 207.944 1.36228 209.512 2.26649V2.26649C210.879 3.06075 212.074 4.11931 213.028 5.38048V5.38048C214.577 7.42629 215.414 9.92346 215.41 12.49V12.49Z" fill="#6C63FF"/>
<path id="Vector_44" opacity="0.05" d="M200.705 5.00225C200.096 5.26532 199.507 5.57528 198.946 5.92933C198.571 6.13746 198.249 6.42942 198.005 6.78248C197.886 6.95955 197.82 7.16722 197.816 7.38059C197.812 7.59397 197.87 7.80397 197.982 7.98542C198.266 8.37786 198.835 8.44043 199.31 8.46602C199.746 8.55872 200.199 8.53385 200.622 8.39394C201.046 8.25404 201.425 8.00412 201.72 7.66975L202.735 6.74835C203.087 6.42985 203.474 5.98905 203.321 5.53973C203.204 5.19563 202.817 5.02784 202.468 4.97096C201.596 4.79923 200.691 4.95839 199.929 5.41744" fill="#F55F44"/>
<path id="Vector_45" opacity="0.05" d="M196.467 17.771C196.809 17.771 197.087 17.4935 197.087 17.1511C197.087 16.8087 196.809 16.5311 196.467 16.5311C196.125 16.5311 195.847 16.8087 195.847 17.1511C195.847 17.4935 196.125 17.771 196.467 17.771Z" fill="#F55F44"/>
<path id="Vector_46" opacity="0.05" d="M209.097 15.4932C210.354 15.4932 211.374 14.4733 211.374 13.2153C211.374 11.9572 210.354 10.9374 209.097 10.9374C207.839 10.9374 206.82 11.9572 206.82 13.2153C206.82 14.4733 207.839 15.4932 209.097 15.4932Z" fill="#F55F44"/>
<path id="Vector_47" opacity="0.05" d="M213.031 5.37766C213.022 5.97286 212.843 6.55295 212.514 7.04898C212.185 7.54502 211.72 7.93612 211.176 8.1758C210.631 8.41549 210.029 8.49367 209.441 8.40106C208.853 8.30844 208.304 8.04893 207.86 7.65337C207.415 7.2578 207.093 6.74282 206.933 6.16965C206.772 5.59648 206.779 4.98923 206.954 4.42007C207.128 3.85092 207.462 3.3438 207.916 2.95901C208.37 2.57422 208.925 2.32794 209.515 2.24945V2.24945C210.883 3.04788 212.079 4.11136 213.031 5.37766V5.37766Z" fill="#F55F44"/>
<path id="Vector_48" opacity="0.05" d="M213.259 19.2897C212.244 20.7347 210.917 21.9328 209.376 22.7952C207.835 23.6577 206.12 24.1624 204.358 24.272C204.344 24.1099 204.335 23.945 204.335 23.7801C204.336 22.7439 204.624 21.7281 205.168 20.8461C205.711 19.9642 206.489 19.2506 207.414 18.7849C208.34 18.3193 209.376 18.1199 210.408 18.209C211.44 18.2981 212.427 18.6723 213.259 19.2897V19.2897Z" fill="#F55F44"/>
</g>
<path id="Vector_49" opacity="0.25" d="M205.472 99.4826C206.273 99.4826 206.922 98.8333 206.922 98.0323C206.922 97.2313 206.273 96.5819 205.472 96.5819C204.672 96.5819 204.023 97.2313 204.023 98.0323C204.023 98.8333 204.672 99.4826 205.472 99.4826Z" fill="#535461"/>
<path id="Vector_50" opacity="0.25" d="M12.1695 137.59C12.9702 137.59 13.6193 136.941 13.6193 136.14C13.6193 135.339 12.9702 134.689 12.1695 134.689C11.3688 134.689 10.7197 135.339 10.7197 136.14C10.7197 136.941 11.3688 137.59 12.1695 137.59Z" fill="#535461"/>
<path id="Vector_51" opacity="0.25" d="M261.473 145.837C262.274 145.837 262.923 145.188 262.923 144.387C262.923 143.586 262.274 142.936 261.473 142.936C260.673 142.936 260.024 143.586 260.024 144.387C260.024 145.188 260.673 145.837 261.473 145.837Z" fill="#535461"/>
<path id="Vector_52" opacity="0.25" d="M82.077 77.1131C82.8777 77.1131 83.5267 76.4638 83.5267 75.6628C83.5267 74.8617 82.8777 74.2124 82.077 74.2124C81.2763 74.2124 80.6272 74.8617 80.6272 75.6628C80.6272 76.4638 81.2763 77.1131 82.077 77.1131Z" fill="#535461"/>
<path id="Vector_53" opacity="0.25" d="M77.3155 43.7665C78.1162 43.7665 78.7653 43.1171 78.7653 42.3161C78.7653 41.5151 78.1162 40.8658 77.3155 40.8658C76.5148 40.8658 75.8657 41.5151 75.8657 42.3161C75.8657 43.1171 76.5148 43.7665 77.3155 43.7665Z" fill="#535461"/>
<path id="Vector_54" opacity="0.25" d="M36.3211 109.837C37.1218 109.837 37.7709 109.188 37.7709 108.387C37.7709 107.586 37.1218 106.936 36.3211 106.936C35.5204 106.936 34.8713 107.586 34.8713 108.387C34.8713 109.188 35.5204 109.837 36.3211 109.837Z" fill="#535461"/>
<path id="Vector_55" opacity="0.25" d="M241.396 110.09H240.105V108.802H239.579V110.09H238.289V110.619H239.579V111.907H240.105V110.619H241.396V110.09Z" fill="#535461"/>
<path id="Vector_56" opacity="0.25" d="M263 65.4421H261.71V64.1538H261.184V65.4421H259.893V65.971H261.184V67.2593H261.71V65.971H263V65.4421Z" fill="#535461"/>
<path id="Vector_57" opacity="0.25" d="M171.002 40.4989H169.711V39.2078H169.185V40.4989H167.895V41.025H169.185V42.3161H169.711V41.025H171.002V40.4989Z" fill="#535461"/>
<path id="Vector_58" opacity="0.25" d="M227.316 102.841H226.025V101.553H225.499V102.841H224.211V103.37H225.499V104.658H226.025V103.37H227.316V102.841Z" fill="#535461"/>
<path id="Vector_59" opacity="0.25" d="M180.11 145.715H178.822V144.426H178.296V145.715H177.006V146.244H178.296V147.532H178.822V146.244H180.11V145.715Z" fill="#535461"/>
<path id="Vector_60" opacity="0.25" d="M48.0216 57.2746H46.731V55.9863H46.2051V57.2746H44.9146V57.8007H46.2051V59.0918H46.731V57.8007H48.0216V57.2746Z" fill="#535461"/>
<path id="Vector_61" opacity="0.25" d="M3.10706 74.0531H1.81648V72.7649H1.29058V74.0531H0V74.5793H1.29058V75.8703H1.81648V74.5793H3.10706V74.0531Z" fill="#535461"/>
<path id="Vector_62" opacity="0.25" d="M65.8254 126.869H64.5348V125.578H64.0089V126.869H62.7212V127.395H64.0089V128.686H64.5348V127.395H65.8254V126.869Z" fill="#535461"/>
<path id="Vector_63" d="M219.345 212.155C221.518 212.155 223.279 210.393 223.279 208.219C223.279 206.045 221.518 204.283 219.345 204.283C217.172 204.283 215.411 206.045 215.411 208.219C215.411 210.393 217.172 212.155 219.345 212.155Z" fill="url(#paint20_linear)"/>
<g id="Group_12" opacity="0.4">
<path id="Vector_64" opacity="0.4" d="M76.4571 99.0561C75.9768 98.4204 75.3748 97.8868 74.6861 97.4863C73.8964 97.0264 73.0113 96.7547 72.0995 96.6925C71.1878 96.6302 70.274 96.779 69.4291 97.1272C68.5841 97.4755 67.8308 98.0138 67.2275 98.7005C66.6242 99.3872 66.1873 100.204 65.9506 101.087C65.7138 101.97 65.6837 102.895 65.8625 103.792C66.0413 104.689 66.4243 105.532 66.9816 106.256C67.5389 106.981 68.2557 107.567 69.0762 107.97C69.8967 108.372 70.7989 108.58 71.7127 108.577C71.8378 108.577 71.9657 108.577 72.0879 108.577C73.1591 108.509 74.1918 108.151 75.0764 107.543C75.9611 106.935 76.6647 106.099 77.1126 105.123C77.5606 104.147 77.7361 103.068 77.6207 102C77.5053 100.933 77.1033 99.9164 76.4571 99.0589V99.0561Z" fill="url(#paint21_linear)"/>
</g>
<g id="smallMoon">
<path id="Vector_65" opacity="0.2" d="M77.3298 102.639C77.3297 104.069 76.7854 105.445 75.8074 106.487C74.8294 107.529 73.4912 108.16 72.0651 108.25C71.9486 108.25 71.8292 108.25 71.7098 108.25C70.8482 108.249 69.9983 108.05 69.2259 107.668C68.4534 107.287 67.7791 106.732 67.255 106.048C66.7308 105.364 66.3709 104.569 66.2031 103.723C66.0353 102.878 66.064 102.005 66.2871 101.172C66.5101 100.34 66.9215 99.5698 67.4895 98.9216C68.0575 98.2735 68.7668 97.7647 69.5627 97.4345C70.3585 97.1044 71.2196 96.9617 72.0794 97.0175C72.9392 97.0733 73.7746 97.3261 74.5212 97.7564V97.7564C75.1718 98.1346 75.7409 98.6382 76.1955 99.2381V99.2381C76.9364 100.217 77.335 101.412 77.3298 102.639V102.639Z" fill="#6C63FF"/>
<path id="Vector_66" opacity="0.1" d="M70.3253 99.0731C70.0299 99.1975 69.7448 99.3449 69.4725 99.5139C69.2941 99.6114 69.1404 99.7486 69.0233 99.9149C68.9692 99.9998 68.9404 100.099 68.9404 100.199C68.9404 100.3 68.9692 100.399 69.0233 100.484C69.106 100.565 69.2051 100.627 69.3141 100.666C69.423 100.706 69.5391 100.721 69.6544 100.711C69.8605 100.753 70.074 100.741 70.2735 100.674C70.4731 100.608 70.6517 100.49 70.7915 100.333L71.2748 99.895C71.4425 99.7414 71.6273 99.5338 71.559 99.3262C71.5209 99.2477 71.4632 99.1803 71.3915 99.1305C71.3198 99.0806 71.2366 99.0501 71.1497 99.0418C70.7345 98.9606 70.3039 99.0366 69.9415 99.2551" fill="#F55F44"/>
<path id="Vector_67" opacity="0.1" d="M68.3071 105.153C68.4704 105.153 68.6027 105.021 68.6027 104.858C68.6027 104.694 68.4704 104.562 68.3071 104.562C68.1438 104.562 68.0115 104.694 68.0115 104.858C68.0115 105.021 68.1438 105.153 68.3071 105.153Z" fill="#F55F44"/>
<path id="Vector_68" opacity="0.1" d="M74.3222 104.07C74.922 104.07 75.4081 103.583 75.4081 102.983C75.4081 102.383 74.922 101.897 74.3222 101.897C73.7225 101.897 73.2363 102.383 73.2363 102.983C73.2363 103.583 73.7225 104.07 74.3222 104.07Z" fill="#F55F44"/>
<path id="Vector_69" opacity="0.1" d="M76.1956 99.2636C76.192 99.5469 76.1071 99.8232 75.9511 100.06C75.795 100.296 75.5744 100.483 75.3154 100.597C75.0565 100.712 74.77 100.75 74.4902 100.706C74.2104 100.663 73.949 100.539 73.737 100.352C73.5251 100.164 73.3716 99.9188 73.2947 99.6462C73.2179 99.3735 73.2209 99.0845 73.3035 98.8135C73.3861 98.5425 73.5448 98.301 73.7607 98.1176C73.9765 97.9343 74.2405 97.8168 74.5212 97.7792V97.7792C75.1721 98.1582 75.7412 98.6628 76.1956 99.2636V99.2636Z" fill="#F55F44"/>
<path id="Vector_70" opacity="0.1" d="M76.3063 105.878C75.8231 106.567 75.1913 107.138 74.4576 107.549C73.7239 107.96 72.9072 108.201 72.0679 108.253C72.0679 108.176 72.0679 108.097 72.0679 108.017C72.0663 107.521 72.203 107.035 72.4627 106.612C72.7224 106.19 73.0947 105.849 73.5377 105.626C73.9808 105.404 74.4771 105.31 74.9707 105.355C75.4643 105.399 75.9357 105.58 76.3319 105.878H76.3063Z" fill="#F55F44"/>
</g>
<g id="Group_13" opacity="0.1">
<path id="Vector_71" opacity="0.1" d="M140.312 57.4594H111.032V58.5969H140.312V57.4594Z" fill="black"/>
</g>
</g>
<defs>
<linearGradient id="paint0_linear" x1="125.971" y1="197.376" x2="125.971" y2="13.6645" gradientUnits="userSpaceOnUse">
<stop stop-color="#808080" stop-opacity="0.25"/>
<stop offset="0.54" stop-color="#808080" stop-opacity="0.12"/>
<stop offset="1" stop-color="#808080" stop-opacity="0.1"/>
</linearGradient>
<linearGradient id="paint1_linear" x1="98.3287" y1="175.521" x2="98.3287" y2="193.332" gradientUnits="userSpaceOnUse">
<stop stop-color="#E0E0E0"/>
<stop offset="0.31" stop-color="#FCCC63"/>
<stop offset="0.77" stop-color="#F55F44"/>
</linearGradient>
<linearGradient id="paint2_linear" x1="2876.6" y1="11166.6" x2="2876.6" y2="12282" gradientUnits="userSpaceOnUse">
<stop stop-color="#E0E0E0"/>
<stop offset="0.31" stop-color="#FCCC63"/>
<stop offset="0.77" stop-color="#F55F44"/>
</linearGradient>
<linearGradient id="paint3_linear" x1="3197.97" y1="11166.6" x2="3197.97" y2="12282" gradientUnits="userSpaceOnUse">
<stop stop-color="#E0E0E0"/>
<stop offset="0.31" stop-color="#FCCC63"/>
<stop offset="0.77" stop-color="#F55F44"/>
</linearGradient>
<linearGradient id="paint4_linear" x1="3716.7" y1="11166.6" x2="3716.7" y2="12282" gradientUnits="userSpaceOnUse">
<stop stop-color="#E0E0E0"/>
<stop offset="0.31" stop-color="#FCCC63"/>
<stop offset="0.77" stop-color="#F55F44"/>
</linearGradient>
<linearGradient id="paint5_linear" x1="77.5231" y1="166.796" x2="77.5231" y2="208.219" gradientUnits="userSpaceOnUse">
<stop stop-color="#F2F2F2"/>
<stop offset="0.31" stop-color="#E6E6E6"/>
<stop offset="0.77" stop-color="#CCCCCC"/>
</linearGradient>
<linearGradient id="paint6_linear" x1="12403.3" y1="27701.4" x2="12403.3" y2="34936.2" gradientUnits="userSpaceOnUse">
<stop stop-color="#F2F2F2"/>
<stop offset="0.31" stop-color="#E6E6E6"/>
<stop offset="0.77" stop-color="#CCCCCC"/>
</linearGradient>
<linearGradient id="paint7_linear" x1="27190.5" y1="27701.4" x2="27190.5" y2="34936.2" gradientUnits="userSpaceOnUse">
<stop stop-color="#F2F2F2"/>
<stop offset="0.31" stop-color="#E6E6E6"/>
<stop offset="0.77" stop-color="#CCCCCC"/>
</linearGradient>
<linearGradient id="paint8_linear" x1="24678.7" y1="25889.9" x2="24678.7" y2="31923.6" gradientUnits="userSpaceOnUse">
<stop stop-color="#F2F2F2"/>
<stop offset="0.31" stop-color="#E6E6E6"/>
<stop offset="0.77" stop-color="#CCCCCC"/>
</linearGradient>
<linearGradient id="paint9_linear" x1="23912.2" y1="26422.4" x2="23912.2" y2="31367.7" gradientUnits="userSpaceOnUse">
<stop stop-color="#F2F2F2"/>
<stop offset="0.31" stop-color="#E6E6E6"/>
<stop offset="0.77" stop-color="#CCCCCC"/>
</linearGradient>
<linearGradient id="paint10_linear" x1="27667.8" y1="17168.6" x2="27667.8" y2="18960.6" gradientUnits="userSpaceOnUse">
<stop stop-color="#F2F2F2"/>
<stop offset="0.31" stop-color="#E6E6E6"/>
<stop offset="0.77" stop-color="#CCCCCC"/>
</linearGradient>
<linearGradient id="paint11_linear" x1="33398.1" y1="19891.1" x2="33398.1" y2="22401.2" gradientUnits="userSpaceOnUse">
<stop stop-color="#F2F2F2"/>
<stop offset="0.31" stop-color="#E6E6E6"/>
<stop offset="0.77" stop-color="#CCCCCC"/>
</linearGradient>
<linearGradient id="paint12_linear" x1="14883.8" y1="19902.5" x2="14883.8" y2="22414.1" gradientUnits="userSpaceOnUse">
<stop stop-color="#F2F2F2"/>
<stop offset="0.31" stop-color="#E6E6E6"/>
<stop offset="0.77" stop-color="#CCCCCC"/>
</linearGradient>
<linearGradient id="paint13_linear" x1="5594.34" y1="4853.35" x2="5594.34" y2="4650.31" gradientUnits="userSpaceOnUse">
<stop stop-color="#808080" stop-opacity="0.25"/>
<stop offset="0.54" stop-color="#808080" stop-opacity="0.12"/>
<stop offset="1" stop-color="#808080" stop-opacity="0.1"/>
</linearGradient>
<linearGradient id="paint14_linear" x1="5198.79" y1="4328.68" x2="5198.79" y2="4503.02" gradientUnits="userSpaceOnUse">
<stop stop-color="#F2F2F2"/>
<stop offset="0.31" stop-color="#E6E6E6"/>
<stop offset="0.77" stop-color="#CCCCCC"/>
</linearGradient>
<linearGradient id="paint15_linear" x1="6606.92" y1="6392.33" x2="6606.92" y2="6150.93" gradientUnits="userSpaceOnUse">
<stop stop-color="#808080" stop-opacity="0.25"/>
<stop offset="0.54" stop-color="#808080" stop-opacity="0.12"/>
<stop offset="1" stop-color="#808080" stop-opacity="0.1"/>
</linearGradient>
<linearGradient id="paint16_linear" x1="219.345" y1="204.283" x2="219.345" y2="212.155" gradientUnits="userSpaceOnUse">
<stop stop-color="#F2F2F2"/>
<stop offset="0.31" stop-color="#E0E0E0"/>
<stop offset="0.77" stop-color="#B3B3B3"/>
</linearGradient>
<linearGradient id="paint17_linear" x1="1386.26" y1="6236.93" x2="1386.26" y2="5945.36" gradientUnits="userSpaceOnUse">
<stop stop-color="#808080" stop-opacity="0.25"/>
<stop offset="0.54" stop-color="#808080" stop-opacity="0.12"/>
<stop offset="1" stop-color="#808080" stop-opacity="0.1"/>
</linearGradient>
<linearGradient id="paint18_linear" x1="1325.81" y1="5692.58" x2="1325.81" y2="5958.6" gradientUnits="userSpaceOnUse">
<stop stop-color="#F2F2F2"/>
<stop offset="0.31" stop-color="#E6E6E6"/>
<stop offset="0.77" stop-color="#CCCCCC"/>
</linearGradient>
<linearGradient id="paint19_linear" x1="21480.5" y1="3816.72" x2="21480.5" y2="1622.47" gradientUnits="userSpaceOnUse">
<stop stop-color="#808080" stop-opacity="0.25"/>
<stop offset="0.54" stop-color="#808080" stop-opacity="0.12"/>
<stop offset="1" stop-color="#808080" stop-opacity="0.1"/>
</linearGradient>
<linearGradient id="paint20_linear" x1="6286.87" y1="5858.84" x2="6286.87" y2="6076.73" gradientUnits="userSpaceOnUse">
<stop stop-color="#F2F2F2"/>
<stop offset="0.31" stop-color="#E6E6E6"/>
<stop offset="0.77" stop-color="#CCCCCC"/>
</linearGradient>
<linearGradient id="paint21_linear" x1="4705.81" y1="5412.84" x2="4705.81" y2="4915" gradientUnits="userSpaceOnUse">
<stop stop-color="#808080" stop-opacity="0.25"/>
<stop offset="0.54" stop-color="#808080" stop-opacity="0.12"/>
<stop offset="1" stop-color="#808080" stop-opacity="0.1"/>
</linearGradient>
</defs>
</svg>
